<svg xmlns="http://www.w3.org/2000/svg" id="bg2" viewBox="0 0 375 666.969">
    <defs>
        <style>
            .cls-1{fill:#e2f0ef}.cls-2{fill:#c7e0de;fill-rule:evenodd}
        </style>
    </defs>
    <g id="_2473822786048">
        <path id="Rectangle_41" d="M0 0h375v666.969H0z" class="cls-1" data-name="Rectangle 41"/>
        <g id="_2536040977184">
            <g id="Group_62" data-name="Group 62">
                <path id="Path_921" d="M24.567 48.425A28.78 28.78 0 0 1 0 46.3v-1.418a26.061 26.061 0 0 0 24.213 2.48 27.687 27.687 0 0 0 16.653-35.433 18.472 18.472 0 0 0-4.252-6.5 25.009 25.009 0 0 0-3.071-3.071c-.118-.118-.118-.118-.236-.118 0 .118 0 .118.118.236a26.538 26.538 0 0 1 2.835 3.075 25.7 25.7 0 0 1 3.661 6.732A27.681 27.681 0 0 1 41.1 26.1c.236.236.118.354-.118.591a26.748 26.748 0 0 1-17.124 19.726c-8.5 3.189-16.89 1.063-19.961-.472-1.535-.827-2.717-1.417-3.9-2.126v-.709a25.628 25.628 0 0 0 23.622 2.835 25.863 25.863 0 0 0 16.657-19.252l-23.386-.236-1.535-4.488 24.8 4.37c.472 0 .591-.118 0-.354l-23.031-6.5 1.3-1.535 22.087 7.913a27.3 27.3 0 0 0-1.18-13.343A25.481 25.481 0 0 0 29.173 0h2.362a31.807 31.807 0 0 1 7.323 7.2l.236.236c0-.118-.118-.236-.118-.354A29.052 29.052 0 0 0 32.953 0h1.063a28.568 28.568 0 0 1 7.913 11.575 28.741 28.741 0 0 1-17.362 36.85zM0 0h.354L0 .236zm5.787 0h.591l5.433 20.787-2.011-.354zm1.182 0H7.8l10.035 17.362-3.071 3.661zM0 40.866V39.8l14.646-17.6 1.535 4.488zm0-2.244V37.8l9.685-16.54 1.89.236zm12.992-17.716l1.3.236L8.031 3.661c-.118-.354-.236-.236-.118.118zm2.48.591L33.78 24.8c.354.118.354 0 0-.118L16.3 20.433zm-2.6.236l-2.6 4.606c-.118.236 0 .236.118 0l3.78-4.37z" class="cls-2" data-name="Path 921"/>
                <path id="Path_922" d="M527.386 22.087A28.637 28.637 0 0 1 490.417 5.2 19.957 19.957 0 0 1 489 0h.709a30.711 30.711 0 0 0 1.417 5.433 30.518 30.518 0 0 0 5.669 8.976 46.187 46.187 0 0 0 4.724 4.252c.118.118.236.118.354.236-.118-.118-.118-.236-.236-.354s-2.717-2.48-4.37-4.252a28.738 28.738 0 0 1-5.2-9.094A42.477 42.477 0 0 1 490.654 0h1.181a19.073 19.073 0 0 0 1.181 4.252 27.2 27.2 0 0 0 7.677 10.984L509.433 0h1.767l-10.743 15.945c-.354.472-.236.591.236.118L514.039 0h4.843l.118.354-17.6 15.355a25.894 25.894 0 0 0 25.039 3.9A25.863 25.863 0 0 0 543.094.354L519.709.118V0h24.331c0 .118-.118.236-.236.354A27.116 27.116 0 0 1 526.677 20.2c-8.5 3.071-16.89 1.063-19.961-.591a46.9 46.9 0 0 1-5.787-3.425l-.591.354c6.5 5.906 16.535 8.268 26.693 4.606A27.9 27.9 0 0 0 544.866 0h1.181a28.812 28.812 0 0 1-18.661 22.087zM513.094 0h.118c-.118.236-.236.236-.118 0zm-13.11 16.3l.354-.591a31.137 31.137 0 0 1-4.843-5.2c-.118-.118-.118-.236-.236-.236a.434.434 0 0 0 .118.354 35.776 35.776 0 0 0 4.607 5.673z" class="cls-2" data-name="Path 922" transform="translate(-431.244)"/>
            </g>
            <g id="Group_63" data-name="Group 63" transform="translate(12.193)">
                <path id="Path_923" d="M142.064 602.136a28.645 28.645 0 1 1 17.244-36.85 28.766 28.766 0 0 1-17.244 36.85zm-27.52-5.787l.354-.472a44.914 44.914 0 0 1-4.843-5.315.254.254 0 0 0-.236-.236c0 .118.118.236.118.354a35.775 35.775 0 0 0 4.608 5.668zm9.094-45.472l11.575 20.2-3.071 3.661-8.858-23.74c-.118-.236-.236-.118-.236.118l6.142 23.384-2.008-.354-4.37-22.913a25.756 25.756 0 0 0-15.236 33.189 27.614 27.614 0 0 0 7.677 10.866l11.811-20.315 2.008.354-14.055 20.669c-.354.472-.118.591.236.118l16.772-20.079 1.654 4.37-17.717 15.354a25.6 25.6 0 0 0 25.039 3.9 26.246 26.246 0 0 0 16.772-19.259l-23.386-.236-1.654-4.37 24.8 4.252c.591 0 .591-.118.118-.236l-23.15-6.614 1.3-1.535 22.2 7.913a28.866 28.866 0 0 0-1.3-13.346c-4.833-13.228-19.715-19.84-33.062-15.352zm32.6 10.039l.236.236a.434.434 0 0 0-.118-.354 27.816 27.816 0 0 0-33.78-11.811 28.5 28.5 0 0 0-16.89 36.5 27.312 27.312 0 0 0 5.787 8.976 45.147 45.147 0 0 0 4.606 4.252c.118.118.236.118.354.236 0-.118 0-.236-.236-.354-.118-.118-2.6-2.362-4.252-4.252a28.549 28.549 0 0 1-5.315-9.094 27.35 27.35 0 0 1 38.268-33.9c4.489 2.359 7.088 4.131 11.34 9.564zM115.49 596.23l-.472.472c6.5 5.906 16.417 8.15 26.693 4.488a27.853 27.853 0 0 0 16.535-35.551 18.472 18.472 0 0 0-4.252-6.5c-.827-.945-2.362-2.48-2.953-3.071-.118 0-.236-.118-.354-.118 0 .118.118.118.236.236a32.255 32.255 0 0 1 2.717 3.189 21.962 21.962 0 0 1 3.661 6.614 27.791 27.791 0 0 1 1.181 13.819c.236.236.236.472-.118.709a26.793 26.793 0 0 1-17.008 19.724c-8.5 3.071-17.008 1.063-19.961-.591a26.883 26.883 0 0 1-5.905-3.42zm14.882-21.5l1.417.236-6.26-17.6c-.118-.354-.236-.236-.236.118zm2.48.591l18.307 3.189c.354.118.354 0 .118-.118l-17.48-4.252zm-2.48.236l-2.717 4.488c-.118.236 0 .236.236 0l3.78-4.37z" class="cls-2" data-name="Path 923" transform="translate(-103.234 -482.017)"/>
                <path id="Path_924" d="M748.065 379.136a28.645 28.645 0 1 1 17.244-36.85 28.766 28.766 0 0 1-17.244 36.85zm-27.52-5.787l.354-.472a44.9 44.9 0 0 1-4.843-5.315.254.254 0 0 0-.236-.236c0 .118.118.236.118.354a35.782 35.782 0 0 0 4.607 5.668zm9.094-45.354l11.575 20.079-3.071 3.661-8.858-23.622c-.118-.354-.236-.236-.236 0l6.141 23.387-2.008-.354-4.37-22.913a25.8 25.8 0 0 0-15.236 33.189 27.616 27.616 0 0 0 7.677 10.866l11.811-20.315 2.008.354-14.055 20.669c-.354.472-.118.591.236.118l16.772-20.079 1.654 4.37-17.716 15.354a25.314 25.314 0 0 0 25.039 3.9 26.28 26.28 0 0 0 16.772-19.134l-23.386-.354-1.654-4.37 24.8 4.252c.591.118.591-.118.118-.236l-23.15-6.5 1.3-1.535 22.2 7.8a28.866 28.866 0 0 0-1.3-13.346c-4.834-13.116-19.716-19.848-33.063-15.242zm32.6 9.921l.236.236a.434.434 0 0 0-.118-.354 27.816 27.816 0 0 0-33.78-11.811 28.5 28.5 0 0 0-16.89 36.5 29.141 29.141 0 0 0 5.787 9.094 59.7 59.7 0 0 0 4.606 4.134c.118.118.236.118.354.236 0-.118 0-.236-.236-.354-.118-.118-2.6-2.362-4.252-4.252a28.55 28.55 0 0 1-5.315-9.094 27.421 27.421 0 0 1 38.268-33.9c4.488 2.359 7.087 4.131 11.339 9.564zM721.49 373.23l-.472.472c6.5 5.905 16.417 8.268 26.693 4.488a27.769 27.769 0 0 0 16.535-35.433 18.08 18.08 0 0 0-4.252-6.614 34.555 34.555 0 0 0-2.953-2.953c-.118-.118-.236-.236-.354-.236 0 .118.118.236.236.354a19.92 19.92 0 0 1 2.717 3.071 21.961 21.961 0 0 1 3.661 6.614 27.791 27.791 0 0 1 1.181 13.819c.236.236.236.472-.118.709a26.793 26.793 0 0 1-17.008 19.724c-8.5 3.071-17.008 1.063-19.961-.591a26.886 26.886 0 0 1-5.905-3.424zm14.882-21.5l1.417.236-6.26-17.48c-.118-.354-.236-.354-.236 0zm2.48.591l18.307 3.307c.354 0 .354-.118.118-.236l-17.48-4.134zm-2.48.236l-2.717 4.488c-.118.236 0 .236.236 0l3.78-4.37z" class="cls-2" data-name="Path 924" transform="translate(-637.659 -285.356)"/>
                <path id="Path_925" d="M1354.064 156.254a28.7 28.7 0 1 1 17.244-36.969 28.922 28.922 0 0 1-17.244 36.969zm-27.52-5.906l.354-.472a44.9 44.9 0 0 1-4.843-5.315l-.236-.236c0 .118.118.236.118.354a35.781 35.781 0 0 0 4.608 5.669zm9.094-45.354l11.575 20.079-3.071 3.661-8.858-23.622c-.118-.354-.236-.236-.236 0l6.142 23.386-2.008-.354-4.37-22.913a25.8 25.8 0 0 0-15.236 33.189 27.615 27.615 0 0 0 7.677 10.866l11.811-20.315 2.008.354-14.055 20.669c-.354.472-.118.591.236.118l16.772-20.079 1.653 4.37-17.716 15.472a25.572 25.572 0 0 0 25.039 3.78 26.28 26.28 0 0 0 16.772-19.134l-23.386-.354-1.654-4.37 24.8 4.252c.591.118.591-.118.118-.236l-23.15-6.5 1.3-1.535 22.2 7.8a28.868 28.868 0 0 0-1.3-13.346c-4.833-13.112-19.715-19.844-33.062-15.238zm32.6 9.921l.236.236a.434.434 0 0 0-.118-.354 27.764 27.764 0 0 0-33.78-11.693 28.324 28.324 0 0 0-16.89 36.378 29.141 29.141 0 0 0 5.787 9.094 59.7 59.7 0 0 0 4.606 4.134c.118.118.236.236.354.236 0-.118 0-.236-.236-.354-.118-.118-2.6-2.362-4.252-4.252a28.551 28.551 0 0 1-5.315-9.094 27.421 27.421 0 0 1 38.268-33.9c4.489 2.364 7.088 4.136 11.34 9.569zm-40.748 35.315l-.472.472c6.5 5.906 16.417 8.268 26.693 4.488a27.769 27.769 0 0 0 16.535-35.433 18.081 18.081 0 0 0-4.252-6.614c-.827-.945-2.362-2.362-2.953-2.953-.118-.118-.236-.236-.354-.236 0 .118.118.236.236.354a19.927 19.927 0 0 1 2.717 3.071 21.959 21.959 0 0 1 3.661 6.614 27.791 27.791 0 0 1 1.181 13.819c.236.236.236.472-.118.709a26.793 26.793 0 0 1-17.008 19.724c-8.5 3.071-17.008 1.063-19.961-.472a32.364 32.364 0 0 1-5.905-3.543zm14.882-21.5l1.417.236-6.26-17.48c-.118-.354-.236-.354-.236 0zm2.48.591l18.307 3.307c.354 0 .354-.118.118-.236l-17.48-4.134zm-2.48.236l-2.717 4.488c-.118.236 0 .236.236 0l3.78-4.252z" class="cls-2" data-name="Path 925" transform="translate(-1172.084 -88.695)"/>
                <path id="Path_926" d="M1959.925 41.22c-15 5.433-31.654-2.126-37.087-16.89A28.233 28.233 0 0 1 1925.083 0h.827a28.508 28.508 0 0 0-2.362 24.449 27.843 27.843 0 0 0 5.787 9.094 59.7 59.7 0 0 0 4.606 4.134c.118.118.236.236.354.236 0-.118-.118-.236-.236-.354s-2.6-2.362-4.252-4.252a28.553 28.553 0 0 1-5.315-9.094A27.589 27.589 0 0 1 1927.091 0h1.181a25.841 25.841 0 0 0-2.835 23.386 26.794 26.794 0 0 0 7.677 10.866l11.811-20.315 2.008.354-14.055 20.669c-.354.472-.118.591.236.118L1949.886 15l1.654 4.37-17.717 15.472a25.573 25.573 0 0 0 25.039 3.78 26.08 26.08 0 0 0 16.772-19.134l-23.386-.354-1.654-4.37 24.8 4.252c.591.118.591-.118.118-.236l-23.15-6.5 1.3-1.535 22.2 7.8a28.868 28.868 0 0 0-1.3-13.346 26.706 26.706 0 0 0-2.6-5.2h.709a24.294 24.294 0 0 1 2.48 4.961 27.791 27.791 0 0 1 1.181 13.819c.236.236.236.472-.118.709a26.793 26.793 0 0 1-17.008 19.724c-8.5 3.071-17.008 1.063-19.961-.472a32.359 32.359 0 0 1-5.906-3.543l-.472.472c6.5 5.906 16.417 8.268 26.693 4.488a27.723 27.723 0 0 0 16.535-35.433 21.082 21.082 0 0 0-2.6-4.724h.709a.116.116 0 0 0 .118.118V0h.827a19.941 19.941 0 0 1 2.008 4.252 28.808 28.808 0 0 1-17.232 36.968zM1942.563 0h.945l3.543 13.465-2.008-.354zm1.654 0h.472l4.961 13.937-1.417-.236zm.709 0h2.362l5.787 10.039-3.075 3.78zm-12.52 35.433l.354-.591a37.24 37.24 0 0 1-4.843-5.315c0-.118-.118-.118-.236-.236 0 .118.118.236.118.354a36.712 36.712 0 0 0 4.607 5.788zm18.307-21.142l18.307 3.309c.354 0 .354-.118.118-.118l-17.48-4.252zm-2.48.236l-2.717 4.488c-.118.236 0 .354.236.118l3.78-4.37z" class="cls-2" data-name="Path 926" transform="translate(-1706.37)"/>
                <path id="Path_927" d="M2585.26 14.882A28.969 28.969 0 0 1 2549 0h.709a31.2 31.2 0 0 0 4.961 7.2 59.7 59.7 0 0 0 4.606 4.134c.118.118.236.236.354.236 0-.118-.118-.118-.236-.354a53.551 53.551 0 0 1-4.252-4.134A32.249 32.249 0 0 1 2550.654 0h1.417a28.461 28.461 0 0 0 6.378 7.913L2563.055 0h.945l-5.787 8.622c-.354.472-.118.591.236.118l7.323-8.74h3.071l-9.685 8.5a25.572 25.572 0 0 0 25.039 3.78A26.314 26.314 0 0 0 2598.488 0h.708a27.122 27.122 0 0 1-14.646 12.874c-8.5 3.071-17.008 1.063-19.961-.472a32.363 32.363 0 0 1-5.906-3.543l-.472.472c6.5 5.906 16.417 8.268 26.693 4.488A28.112 28.112 0 0 0 2600.26 0h1.3a29.749 29.749 0 0 1-16.3 14.882zm-27.52-5.787l.354-.591a31.838 31.838 0 0 1-4.843-5.315l-.236-.236c0 .118.118.236.118.354a36.727 36.727 0 0 0 4.607 5.787z" class="cls-2" data-name="Path 927" transform="translate(-2260.13)"/>
            </g>
            <g id="Group_64" data-name="Group 64" transform="translate(0 31.027)">
                <path id="Path_928" d="M5.787 1434.276A26.251 26.251 0 0 1 0 1435.811v-1.063a46.02 46.02 0 0 0 5.433-1.417 27.671 27.671 0 0 0 16.536-35.431 19.924 19.924 0 0 0-4.134-6.614 34.785 34.785 0 0 0-3.071-2.953c-.118-.118-.236-.236-.354-.236.118.118.118.236.236.354a19.217 19.217 0 0 1 2.835 3.071 24.861 24.861 0 0 1 3.661 6.614 29.216 29.216 0 0 1 1.181 13.819c.236.236.118.472-.118.709a26.947 26.947 0 0 1-17.126 19.724 26.752 26.752 0 0 1-5.079 1.3v-.591a24.541 24.541 0 0 0 4.843-1.3 26.124 26.124 0 0 0 16.657-19.136l-21.5-.354v-3.78l21.26 3.661c.591.118.709-.118.118-.236L0 1405.929v-1.89l21.732 7.677a26.048 26.048 0 0 0-1.3-13.346A25.632 25.632 0 0 0 0 1381.953v-1.181a29.443 29.443 0 0 1 8.622 2.717c4.606 2.362 7.2 4.134 11.339 9.567.118.118.236.236.354.236 0-.118-.118-.236-.118-.354A27.882 27.882 0 0 0 0 1379.591V1379a28.64 28.64 0 0 1 23.15 18.425 28.792 28.792 0 0 1-17.363 36.851zM0 1408.055v-1.063l15 3.543c.354.118.236.236 0 .236z" class="cls-2" data-name="Path 928" transform="translate(0 -1247.153)"/>
                <path id="Path_929" d="M365.171 1209.254a28.923 28.923 0 0 1-37.087-17.008c-5.433-14.764 2.362-31.3 17.362-36.85a28.68 28.68 0 1 1 19.724 53.858zm-27.4-5.906l.354-.472a36.49 36.49 0 0 1-4.843-5.315c-.118-.118-.236-.118-.236-.236v.354a30.891 30.891 0 0 0 4.723 5.669zm8.976-45.354l11.575 20.079-2.953 3.661-8.858-23.622c-.118-.354-.354-.236-.236 0l6.025 23.388-1.89-.354-4.488-22.913a25.9 25.9 0 0 0-15.236 33.189 30.23 30.23 0 0 0 7.677 10.866l11.811-20.315 2.008.354-14.055 20.669c-.354.473-.118.591.236.118l16.772-20.079 1.654 4.37-17.6 15.472a25.526 25.526 0 0 0 25.039 3.78 26.124 26.124 0 0 0 16.654-19.134l-23.386-.354-1.654-4.37 24.8 4.252c.591.118.709-.118.118-.236l-23.031-6.5 1.181-1.535 22.2 7.8a26.048 26.048 0 0 0-1.3-13.347c-4.836-13.113-19.718-19.727-33.064-15.239zm32.6 9.921c.118.118.236.236.354.236 0-.118-.118-.236-.118-.354a27.919 27.919 0 0 0-33.9-11.693 28.265 28.265 0 0 0-16.772 36.378 28.832 28.832 0 0 0 5.669 9.094 43.514 43.514 0 0 0 4.724 4.134c.118.118.118.236.354.236-.118-.118-.118-.236-.236-.354a57.2 57.2 0 0 1-4.37-4.252 28.74 28.74 0 0 1-5.2-9.094 27.384 27.384 0 0 1 16.3-35.315 28.309 28.309 0 0 1 21.85 1.417c4.61 2.362 7.208 4.134 11.342 9.567zM338.6 1203.23l-.472.473c6.5 5.906 16.417 8.268 26.693 4.488a27.671 27.671 0 0 0 16.535-35.433 19.924 19.924 0 0 0-4.134-6.614 34.77 34.77 0 0 0-3.071-2.953c-.118-.118-.236-.236-.354-.236.118.118.118.236.236.354a19.215 19.215 0 0 1 2.835 3.071 24.861 24.861 0 0 1 3.661 6.614 29.217 29.217 0 0 1 1.181 13.819c.236.236.118.472-.118.709a27.185 27.185 0 0 1-17.126 19.724c-8.5 3.071-17.008 1.063-19.961-.473a37.016 37.016 0 0 1-5.905-3.543zm15-21.5l1.3.236-6.26-17.48c-.118-.354-.236-.354-.118 0zm2.362.59l18.425 3.307c.236 0 .354-.118 0-.236l-17.48-4.134zm-2.48.236l-2.6 4.488c-.236.236-.118.236.118 0l3.78-4.252z" class="cls-2" data-name="Path 929" transform="translate(-287.809 -1048.352)"/>
                <path id="Path_930" d="M971.171 986.71a28.68 28.68 0 1 1 17.362-36.969 29.007 29.007 0 0 1-17.362 36.969zm-27.4-5.787l.354-.591a31.274 31.274 0 0 1-4.843-5.315c-.118-.118-.236-.118-.236-.236v.354a31.641 31.641 0 0 0 4.723 5.787zm8.976-45.472l11.575 20.079-2.953 3.779-8.858-23.74c-.118-.354-.354-.236-.236 0l6.024 23.386-1.89-.354-4.488-22.913a25.9 25.9 0 0 0-15.236 33.189 29.24 29.24 0 0 0 7.677 10.866l11.811-20.315 2.008.354-14.057 20.668c-.354.472-.118.591.236.118l16.772-20.079 1.654 4.37-17.6 15.472a25.526 25.526 0 0 0 25.039 3.78 25.926 25.926 0 0 0 16.654-19.134l-23.386-.354-1.654-4.37 24.8 4.252c.591.118.709-.118.118-.236l-23.031-6.5 1.181-1.535 22.2 7.913a26.378 26.378 0 0 0-1.3-13.465c-4.833-13.106-19.715-19.721-33.061-15.232zm32.6 9.921c.118.118.236.236.354.236 0-.118-.118-.118-.118-.236a27.834 27.834 0 0 0-33.9-11.811 28.31 28.31 0 0 0-16.772 36.378 27.562 27.562 0 0 0 5.669 9.094 43.511 43.511 0 0 0 4.724 4.134c.118.118.118.236.354.236-.118-.118-.118-.236-.236-.354a57.164 57.164 0 0 1-4.37-4.252 28.737 28.737 0 0 1-5.2-9.094 27.384 27.384 0 0 1 16.3-35.315 28.308 28.308 0 0 1 21.85 1.417c4.61 2.361 7.208 4.133 11.342 9.566zM944.6 980.686l-.472.472c6.5 5.906 16.535 8.268 26.693 4.488a27.626 27.626 0 0 0 16.535-35.433 21.323 21.323 0 0 0-4.134-6.614 34.774 34.774 0 0 0-3.071-2.953c-.118-.118-.236-.236-.354-.236.118.118.118.236.236.354a26.535 26.535 0 0 1 2.835 3.071 24.859 24.859 0 0 1 3.661 6.614 29.216 29.216 0 0 1 1.181 13.819c.236.236.118.472-.118.709a26.947 26.947 0 0 1-17.13 19.723c-8.5 3.071-17.008 1.063-19.961-.472a37.029 37.029 0 0 1-5.901-3.542zm15-21.5l1.3.236-6.26-17.48c-.118-.354-.236-.354-.118 0zm2.362.591l18.425 3.307c.236 0 .354-.118 0-.118l-17.48-4.252zm-2.48.236l-2.6 4.488c-.236.236-.118.354.118.118l3.779-4.37z" class="cls-2" data-name="Path 930" transform="translate(-822.234 -852.146)"/>
                <path id="Path_931" d="M1577.171 763.71c-15 5.433-31.654-2.126-37.087-16.89a29.019 29.019 0 1 1 37.087 16.89zm-27.4-5.787l.354-.591a27.381 27.381 0 0 1-4.843-5.315c-.118-.118-.236-.118-.236-.236-.118.118 0 .236 0 .354a31.635 31.635 0 0 0 4.723 5.787zm8.976-45.472l11.575 20.079-2.953 3.78-8.858-23.74c-.118-.354-.354-.236-.236.118l6.024 23.268-1.89-.354-4.488-22.8a25.723 25.723 0 0 0-15.236 33.071 29.238 29.238 0 0 0 7.677 10.866l11.811-20.315 2.008.354-14.055 20.669c-.354.472-.118.591.236.118l16.772-20.079 1.654 4.37-17.6 15.472a26.326 26.326 0 0 0 41.693-15.354l-23.386-.354-1.653-4.37 24.8 4.252c.591.118.709-.118.118-.236l-23.031-6.5 1.181-1.535 22.2 7.913a25.93 25.93 0 0 0-1.3-13.346c-4.836-13.222-19.718-19.836-33.064-15.348zm32.6 9.921c.118.118.236.236.354.236 0-.118-.118-.118-.118-.236a27.833 27.833 0 0 0-33.9-11.811 28.354 28.354 0 0 0-16.772 36.378 27.564 27.564 0 0 0 5.669 9.095 43.518 43.518 0 0 0 4.724 4.134c.118.118.118.236.354.236a.909.909 0 0 1-.236-.354 47.666 47.666 0 0 1-4.37-4.134 31.145 31.145 0 0 1-5.2-9.213 27.384 27.384 0 0 1 16.3-35.315 28.308 28.308 0 0 1 21.85 1.417c4.61 2.361 7.208 4.251 11.342 9.566zm-40.747 35.314l-.472.472c6.5 5.906 16.417 8.268 26.693 4.488a27.626 27.626 0 0 0 16.535-35.433 22.922 22.922 0 0 0-4.134-6.614 34.767 34.767 0 0 0-3.071-2.953c-.118-.118-.236-.118-.354-.236.118.118.118.236.236.354a26.551 26.551 0 0 1 2.835 3.071 23.92 23.92 0 0 1 3.661 6.732 28.609 28.609 0 0 1 1.181 13.7c.236.236.118.472-.118.709a27.184 27.184 0 0 1-17.126 19.724c-8.5 3.071-17.008 1.063-19.961-.472a37.026 37.026 0 0 1-5.905-3.542zm15-21.5l1.3.236-6.26-17.48c-.118-.354-.236-.354-.118 0zm2.362.591l18.425 3.307c.236 0 .354-.118 0-.118l-17.48-4.252zm-2.48.236l-2.6 4.488c-.236.236-.118.354.118.118l3.78-4.37z" class="cls-2" data-name="Path 931" transform="translate(-1356.659 -655.485)"/>
                <path id="Path_932" d="M2183.171 541.126a28.626 28.626 0 1 1 17.362-36.969 28.864 28.864 0 0 1-17.362 36.969zm-27.4-5.787l.354-.591a31.145 31.145 0 0 1-4.843-5.2l-.354-.354c0 .118.118.236.118.354a28.111 28.111 0 0 0 4.723 5.79zm8.976-45.472l11.575 20.079-2.953 3.78-8.858-23.74c-.118-.236-.354-.236-.236.118l6.024 23.268-1.89-.354-4.488-22.8a25.723 25.723 0 0 0-15.236 33.071 29.241 29.241 0 0 0 7.677 10.866l11.811-20.315 2.008.354-14.055 20.669c-.354.472-.118.591.236.118l16.771-20.079 1.654 4.37-17.6 15.472a26.326 26.326 0 0 0 41.693-15.354l-23.386-.354-1.654-4.37 24.8 4.252c.591.118.709-.118.118-.236l-23.031-6.5 1.181-1.535 22.2 7.913a25.93 25.93 0 0 0-1.3-13.346c-4.834-13.222-19.716-19.836-33.062-15.348zm32.6 9.921c.118.118.236.236.354.236 0-.118-.118-.118-.118-.236a27.833 27.833 0 0 0-33.9-11.811 28.354 28.354 0 0 0-16.771 36.378 27.558 27.558 0 0 0 5.669 9.094 46.167 46.167 0 0 0 4.724 4.252c.118 0 .118.118.354.118l-.236-.236c-.118-.118-2.717-2.48-4.37-4.252a31.144 31.144 0 0 1-5.2-9.213 27.429 27.429 0 0 1 16.3-35.315 28.308 28.308 0 0 1 21.85 1.417 29.991 29.991 0 0 1 11.341 9.567zM2156.6 535.1l-.472.472c6.5 5.906 16.417 8.268 26.693 4.488a27.626 27.626 0 0 0 16.536-35.433 20.434 20.434 0 0 0-4.134-6.5 25 25 0 0 0-3.071-3.071c-.118-.118-.236-.118-.354-.236.118.118.118.236.236.354a26.536 26.536 0 0 1 2.835 3.071 23.923 23.923 0 0 1 3.661 6.732 28.731 28.731 0 0 1 1.181 13.7c.236.354.118.472-.118.709a26.981 26.981 0 0 1-17.126 19.724c-8.5 3.189-17.008 1.063-19.961-.472a37.036 37.036 0 0 1-5.906-3.538zm15-21.5l1.3.236-6.26-17.48c-.118-.354-.236-.354-.118 0zm2.362.591l18.425 3.307c.236 0 .354-.118 0-.118l-17.48-4.252zm-2.48.236l-2.6 4.488c-.236.236-.118.354.118.118l3.78-4.37z" class="cls-2" data-name="Path 932" transform="translate(-1891.084 -459.24)"/>
                <path id="Path_933" d="M2789.171 318.245a28.625 28.625 0 1 1 11.339-46.535v.945a27.8 27.8 0 0 0-30.827-7.559 28.354 28.354 0 0 0-16.772 36.378 27.567 27.567 0 0 0 5.669 9.094 46.2 46.2 0 0 0 4.724 4.252c.118.118.118.118.354.118l-.236-.236c-.118-.118-2.717-2.48-4.37-4.252a29.627 29.627 0 0 1-5.2-9.213 27.473 27.473 0 0 1 16.3-35.315 28.308 28.308 0 0 1 21.85 1.417 29.365 29.365 0 0 1 8.5 6.26v.827c-.827-.827-1.89-1.772-2.362-2.244-.118-.118-.236-.118-.354-.236.118.118.118.236.236.354a33.976 33.976 0 0 1 2.48 2.717v1.063a26.427 26.427 0 0 0-29.764-9.094l11.575 20.2-2.953 3.661-8.858-23.74c-.118-.236-.354-.236-.236.118l6.023 23.268-1.89-.354-4.488-22.8a25.723 25.723 0 0 0-15.236 33.071 30.691 30.691 0 0 0 7.677 10.984l11.811-20.433 2.008.354-14.055 20.669c-.354.472-.118.591.236.118l16.772-20.079 1.654 4.488-17.6 15.354a25.526 25.526 0 0 0 25.039 3.78 26.16 26.16 0 0 0 12.283-9.213v1.068a26 26 0 0 1-12.047 8.74c-8.5 3.189-17.008 1.063-19.961-.472a49.385 49.385 0 0 1-5.906-3.425l-.472.354c6.5 5.906 16.417 8.268 26.693 4.488a26.888 26.888 0 0 0 11.693-8.15v1.654a29.03 29.03 0 0 1-11.329 7.556zm11.339-24.213v.591l-18.78-5.315 1.181-1.535zm0 1.3v1.181l-19.016-.236-1.653-4.488zm-38.74 17.126l.354-.591a31.124 31.124 0 0 1-4.843-5.2l-.354-.354c0 .118.118.236.118.354a28.112 28.112 0 0 0 4.724 5.791zm15.827-21.732l1.3.236-6.26-17.48c-.118-.354-.236-.354-.118 0zm2.362.591l18.425 3.307c.236 0 .354 0 0-.118l-17.48-4.252zm-2.48.236l-2.717 4.488c-.118.236 0 .354.236.118l3.78-4.37z" class="cls-2" data-name="Path 933" transform="translate(-2425.51 -262.698)"/>
            </g>
            <g id="Group_65" data-name="Group 65" transform="translate(0 103.228)">
                <path id="Path_934" d="M32.244 2039.709A29.06 29.06 0 0 1 0 2031.206v-1.063c.472.591 1.063 1.3 1.535 1.89a43.5 43.5 0 0 0 4.724 4.134c.118.118.236.236.354.236-.118-.118-.118-.236-.236-.354a57.145 57.145 0 0 1-4.37-4.252A14.687 14.687 0 0 1 0 2029.08v-1.18c0 .118 0 .118.118.236a36.719 36.719 0 0 0 4.606 5.787l.354-.591a31.271 31.271 0 0 1-4.843-5.315L0 2027.78v-1.3a28.024 28.024 0 0 0 5.433 6.26l11.811-20.315 1.89.354L5.2 2033.45c-.354.472-.236.591.236.118l16.764-20.079 1.535 4.37-17.6 15.472a25.572 25.572 0 0 0 25.039 3.78 25.7 25.7 0 0 0 16.654-19.134l-23.386-.354-1.535-4.37 24.8 4.252c.472.118.591-.118 0-.236l-23.031-6.5 1.3-1.535 22.087 7.913a27.657 27.657 0 0 0-1.181-13.465c-4.843-13.11-19.724-19.724-33.071-15.236l11.575 20.079-3.071 3.78-8.858-23.74c-.118-.354-.236-.236-.236 0l6.142 23.386-2.008-.354-4.488-22.913A26.079 26.079 0 0 0 0 1999.316v-1.772a26.99 26.99 0 0 1 13.11-10.157 28.308 28.308 0 0 1 21.85 1.417c4.606 2.362 7.2 4.134 11.457 9.567.118.118.118.236.236.236 0-.118-.118-.118-.118-.236a27.68 27.68 0 0 0-33.78-11.811A27.718 27.718 0 0 0 0 1995.891v-1.181a29.56 29.56 0 0 1 12.4-8.858c15-5.433 31.654 2.126 37.087 16.89a28.905 28.905 0 0 1-17.243 36.967zm-26.575-6.024l-.591.472c6.614 5.906 16.535 8.268 26.693 4.488a27.687 27.687 0 0 0 16.654-35.433 19.218 19.218 0 0 0-4.252-6.614c-.827-.945-2.362-2.362-2.953-2.953-.236-.118-.236-.236-.354-.236a.434.434 0 0 0 .118.354 26.539 26.539 0 0 1 2.835 3.071 24.857 24.857 0 0 1 3.661 6.614 27.791 27.791 0 0 1 1.181 13.819c.236.236.236.472-.118.709a26.947 26.947 0 0 1-17.126 19.724c-8.5 3.071-16.89 1.063-19.961-.472a35.422 35.422 0 0 1-5.787-3.542zm14.882-21.5l1.417.236-6.378-17.48c-.118-.354-.236-.354-.118 0zm2.48.591l18.307 3.307c.354 0 .354-.118 0-.118l-17.48-4.252zm-2.6.236l-2.6 4.488c-.118.236 0 .354.118.118l3.78-4.37z" class="cls-2" data-name="Path 934" transform="translate(0 -1852.977)"/>
                <path id="Path_935" d="M588.712 1816.709c-15.118 5.433-31.654-2.126-37.087-16.89a28.808 28.808 0 0 1 17.244-36.969c15-5.433 31.654 2.126 37.087 16.89a28.906 28.906 0 0 1-17.244 36.969zm-27.52-5.787l.354-.591a27.383 27.383 0 0 1-4.843-5.315l-.236-.236a.434.434 0 0 0 .118.354 36.726 36.726 0 0 0 4.607 5.788zm9.094-45.473l11.575 20.079-3.071 3.78-8.858-23.74c-.118-.354-.236-.236-.236.118l6.142 23.268-2.008-.354-4.488-22.8a25.664 25.664 0 0 0-15.118 33.071 26.8 26.8 0 0 0 7.677 10.866l11.811-20.315 1.89.354-13.937 20.669c-.354.473-.236.591.236.118l16.772-20.079 1.535 4.37-17.6 15.472a26.326 26.326 0 0 0 41.693-15.354l-23.386-.354-1.535-4.37 24.8 4.252c.472.118.591-.118 0-.236l-23.031-6.5 1.3-1.535 22.087 7.913a27.186 27.186 0 0 0-1.181-13.346c-4.84-13.22-19.722-19.835-33.069-15.346zm32.6 9.921c.118.118.118.236.236.236 0-.118-.118-.118-.118-.236a27.68 27.68 0 0 0-33.78-11.811 28.317 28.317 0 0 0-16.89 36.378 29.641 29.641 0 0 0 5.669 9.094 43.5 43.5 0 0 0 4.724 4.134c.118.118.236.236.354.236a.907.907 0 0 1-.236-.354 47.672 47.672 0 0 1-4.37-4.134 31.142 31.142 0 0 1-5.2-9.213 27.384 27.384 0 0 1 16.3-35.315 28.308 28.308 0 0 1 21.85 1.417c4.609 2.364 7.208 4.254 11.46 9.569zm-40.748 35.315l-.591.472c6.5 5.906 16.535 8.268 26.693 4.488a27.687 27.687 0 0 0 16.654-35.433 20.5 20.5 0 0 0-4.252-6.614c-.827-.945-2.362-2.362-2.953-2.953a.909.909 0 0 1-.354-.236.434.434 0 0 0 .118.354 26.558 26.558 0 0 1 2.835 3.071 23.919 23.919 0 0 1 3.661 6.732 27.331 27.331 0 0 1 1.181 13.7c.236.236.236.472-.118.709a26.947 26.947 0 0 1-17.126 19.724c-8.5 3.071-16.89 1.063-19.961-.472a35.416 35.416 0 0 1-5.788-3.541zm14.882-21.5l1.417.236-6.378-17.48c-.118-.354-.236-.354-.118 0zm2.48.59l18.307 3.307c.354 0 .354-.118 0-.118l-17.48-4.252zm-2.6.236l-2.6 4.488c-.118.236 0 .354.118.118l3.779-4.37z" class="cls-2" data-name="Path 935" transform="translate(-484.893 -1656.316)"/>
                <path id="Path_936" d="M1194.593 1594.126a28.626 28.626 0 1 1 17.362-36.969 28.733 28.733 0 0 1-17.362 36.969zm-27.4-5.787l.354-.591a31.132 31.132 0 0 1-4.843-5.2c-.118-.118-.118-.236-.236-.354a.434.434 0 0 0 .118.354 32 32 0 0 0 4.606 5.79zm9.094-45.472l11.575 20.079-3.071 3.779-8.858-23.74c-.118-.236-.236-.236-.236.118l6.142 23.268-2.008-.354-4.488-22.8a25.664 25.664 0 0 0-15.118 33.071 26.794 26.794 0 0 0 7.677 10.866l11.811-20.315 1.89.354-13.937 20.669c-.354.472-.236.59.236.118l16.772-20.079 1.535 4.488-17.6 15.354a26.326 26.326 0 0 0 41.693-15.354l-23.386-.354-1.535-4.37 24.8 4.252c.472.118.591-.118 0-.236l-23.031-6.5 1.3-1.535 22.087 7.913a27.187 27.187 0 0 0-1.181-13.346c-4.841-13.221-19.723-19.835-33.07-15.347zm32.6 9.921c.118.118.118.236.236.236 0-.118-.118-.118-.118-.236a27.68 27.68 0 0 0-33.779-11.811 28.317 28.317 0 0 0-16.89 36.378 29.646 29.646 0 0 0 5.669 9.094 46.182 46.182 0 0 0 4.724 4.252c.118 0 .236.118.354.118l-.236-.236c-.118-.118-2.716-2.48-4.37-4.252a31.14 31.14 0 0 1-5.2-9.213 27.429 27.429 0 0 1 16.3-35.315 28.308 28.308 0 0 1 21.85 1.417 31.175 31.175 0 0 1 11.458 9.567zm-40.748 35.315l-.591.472c6.614 5.906 16.535 8.268 26.693 4.488a27.687 27.687 0 0 0 16.654-35.433 18.471 18.471 0 0 0-4.252-6.5 38.22 38.22 0 0 0-2.953-3.071.907.907 0 0 1-.354-.236.434.434 0 0 0 .118.354 26.532 26.532 0 0 1 2.835 3.071 23.924 23.924 0 0 1 3.661 6.732 27.332 27.332 0 0 1 1.181 13.7c.236.354.236.472-.118.709a26.748 26.748 0 0 1-17.126 19.724c-8.5 3.189-16.89 1.063-19.961-.472a35.43 35.43 0 0 1-5.789-3.541zm14.882-21.5l1.3.236-6.26-17.48c-.118-.354-.236-.354-.118 0zm2.48.591l18.307 3.307c.354 0 .354-.118 0-.118l-17.48-4.252zm-2.6.236l-2.6 4.488c-.118.236 0 .354.118.118l3.78-4.37z" class="cls-2" data-name="Path 936" transform="translate(-1019.318 -1460.071)"/>
                <path id="Path_937" d="M1800.594 1371.135a28.625 28.625 0 1 1 17.362-36.85 28.637 28.637 0 0 1-17.362 36.85zm-27.4-5.787l.354-.591a31.137 31.137 0 0 1-4.843-5.2c-.118-.118-.118-.236-.236-.354a.434.434 0 0 0 .118.354 32.013 32.013 0 0 0 4.605 5.791zm9.094-45.472l11.575 20.2-3.071 3.661-8.858-23.74c-.118-.236-.236-.236-.236.118l6.142 23.268-2.008-.354-4.488-22.8a25.664 25.664 0 0 0-15.118 33.071 28.024 28.024 0 0 0 7.677 10.984l11.811-20.433 1.89.354-13.937 20.669c-.354.591-.236.591.236.118l16.772-20.079 1.536 4.488-17.6 15.354a26.326 26.326 0 0 0 41.689-15.355l-23.386-.236-1.535-4.488 24.8 4.252c.473.118.591-.118 0-.236l-23.031-6.5 1.3-1.535 22.087 7.913a27.186 27.186 0 0 0-1.181-13.347c-4.839-13.223-19.721-19.835-33.068-15.347zm32.6 9.921c.118.118.118.236.236.354 0-.118-.118-.236-.118-.354a27.785 27.785 0 0 0-33.9-11.811 28.354 28.354 0 0 0-16.772 36.378 29.64 29.64 0 0 0 5.669 9.094 46.18 46.18 0 0 0 4.724 4.252.434.434 0 0 0 .354.118l-.236-.236c-.118-.118-2.717-2.48-4.37-4.252a29.628 29.628 0 0 1-5.2-9.213 27.473 27.473 0 0 1 16.3-35.315 28.308 28.308 0 0 1 21.85 1.417 31.175 31.175 0 0 1 11.46 9.571zm-40.748 35.433l-.591.354c6.5 5.906 16.536 8.268 26.693 4.488a27.687 27.687 0 0 0 16.654-35.433 18.472 18.472 0 0 0-4.252-6.5 38.221 38.221 0 0 0-2.953-3.071.906.906 0 0 1-.354-.236.434.434 0 0 0 .118.354 26.525 26.525 0 0 1 2.835 3.071 23.921 23.921 0 0 1 3.661 6.732 27.331 27.331 0 0 1 1.181 13.7c.236.354.118.472-.118.709a26.748 26.748 0 0 1-17.126 19.724c-8.5 3.189-16.89 1.063-19.961-.472a46.911 46.911 0 0 1-5.79-3.42zm14.882-21.614l1.3.236-6.26-17.48c-.118-.354-.236-.354-.118 0zm2.48.591l18.307 3.307c.354 0 .354 0 0-.118l-17.48-4.252zm-2.6.236l-2.6 4.488c-.118.236 0 .354.118.118l3.78-4.37z" class="cls-2" data-name="Path 937" transform="translate(-1553.743 -1263.419)"/>
                <path id="Path_938" d="M2406.594 1148.135a28.625 28.625 0 1 1 17.362-36.85 28.637 28.637 0 0 1-17.362 36.85zm-27.4-5.787l.354-.591a31.147 31.147 0 0 1-4.843-5.2c-.118-.118-.118-.236-.236-.236 0 .118 0 .118.118.236a32.019 32.019 0 0 0 4.605 5.791zm9.094-45.472l11.575 20.2-3.071 3.661-8.858-23.74c-.118-.236-.236-.236-.236.118l6.142 23.268-2.008-.236-4.488-22.913a25.664 25.664 0 0 0-15.118 33.071 28.025 28.025 0 0 0 7.677 10.984l11.811-20.433 1.89.354-13.937 20.669c-.354.591-.236.591.236.236l16.772-20.2 1.535 4.488-17.6 15.354a26.2 26.2 0 0 0 41.69-15.357l-23.386-.236-1.535-4.488 24.8 4.252c.472.118.59 0 0-.236l-23.032-6.5 1.3-1.535 22.087 7.913a27.186 27.186 0 0 0-1.181-13.346c-4.838-13.224-19.72-19.837-33.067-15.348zm32.6 9.921c.118.118.118.236.236.354 0-.118-.118-.236-.118-.354a27.68 27.68 0 0 0-33.78-11.811 28.317 28.317 0 0 0-16.89 36.378 29.642 29.642 0 0 0 5.669 9.094 46.167 46.167 0 0 0 4.724 4.252.434.434 0 0 0 .354.118l-.236-.236c-.118-.118-2.717-2.48-4.37-4.252a30.216 30.216 0 0 1-5.2-9.095 27.275 27.275 0 0 1 38.15-33.9c4.607 2.365 7.206 4.137 11.458 9.455zm-40.748 35.433l-.591.354c6.5 5.906 16.535 8.268 26.693 4.488a27.687 27.687 0 0 0 16.654-35.433 18.469 18.469 0 0 0-4.252-6.5 38.2 38.2 0 0 0-2.953-3.071.907.907 0 0 1-.354-.236c0 .236 0 .236.118.354a26.532 26.532 0 0 1 2.835 3.071 23.924 23.924 0 0 1 3.661 6.732 27.683 27.683 0 0 1 1.181 13.819c.236.236.118.354-.118.591a26.748 26.748 0 0 1-17.126 19.724c-8.5 3.189-16.89 1.063-19.961-.472a46.916 46.916 0 0 1-5.79-3.421zm14.882-21.614l1.3.236-6.26-17.48c-.118-.354-.236-.354-.118 0zm2.48.591l18.307 3.307c.354.118.354 0 0-.118l-17.48-4.252zm-2.6.236l-2.6 4.488c-.118.354 0 .354.118.118l3.78-4.37z" class="cls-2" data-name="Path 938" transform="translate(-2088.168 -1066.758)"/>
                <path id="Path_939" d="M2997.593 930.457a28.62 28.62 0 0 1-4.724-55.157 23.48 23.48 0 0 1 4.724-1.3v.709a31.48 31.48 0 0 0-4.488 1.181 28.439 28.439 0 0 0-16.771 36.5 30.514 30.514 0 0 0 5.669 8.976 46.208 46.208 0 0 0 4.724 4.252.434.434 0 0 0 .354.118l-.236-.236c-.118-.118-2.717-2.48-4.37-4.252a28.74 28.74 0 0 1-5.2-9.094 27.558 27.558 0 0 1 16.3-35.433 25.222 25.222 0 0 1 4.016-1.063v1.3a27.06 27.06 0 0 0-3.307.827l3.307 5.906v4.009l-3.661-9.8c-.118-.236-.236-.236-.236.118l3.9 14.882v6.85l-4.252-21.614a25.708 25.708 0 0 0-15.118 33.071 28.024 28.024 0 0 0 7.677 10.984l11.693-20.315v3.307l-11.93 17.717c-.354.472-.236.591.236.118l11.693-14.055v4.134l-10.984 9.567a25.338 25.338 0 0 0 10.984 5.079v.591a23.059 23.059 0 0 1-5.669-1.772 46.9 46.9 0 0 1-5.788-3.425l-.591.354a24.649 24.649 0 0 0 12.047 5.906zm0-41.929v1.417l-1.654-5.551c-.118-.472 0-.472.118-.118zm-12.4 34.724l.354-.591a31.132 31.132 0 0 1-4.842-5.2c-.118-.118-.118-.236-.236-.236 0 .118 0 .118.118.236a32.016 32.016 0 0 0 4.605 5.791z" class="cls-2" data-name="Path 939" transform="translate(-2622.593 -874)"/>
            </g>
            <g id="Group_66" data-name="Group 66" transform="translate(0 200.737)">
                <path id="Path_940" d="M0 2907a28.5 28.5 0 0 1 4.252 7.677A28.378 28.378 0 0 1 0 2942.079v-1.89a27.6 27.6 0 0 0 3.189-25.039A16 16 0 0 0 0 2909.717v-.827c.354.472.827.945 1.181 1.417l.236.236c0-.118 0-.118-.118-.236a20.544 20.544 0 0 0-1.3-2.126zm0 31.417v-1.181a27.38 27.38 0 0 0 2.717-7.323H0v-.827l2.48.354c.591.118.591-.118.118-.236L0 2928.5v-.472l2.953 1.063a28.72 28.72 0 0 0-1.3-13.346A34.429 34.429 0 0 0 0 2912.079v-1.417a23.028 23.028 0 0 1 2.244 4.843 26.068 26.068 0 0 1 1.181 13.7c.236.236.236.472-.118.708A27.693 27.693 0 0 1 0 2938.417z" class="cls-2" data-name="Path 940" transform="translate(0 -2764.391)"/>
                <path id="Path_941" d="M206.064 2647.126a28.645 28.645 0 1 1 17.244-36.969 28.863 28.863 0 0 1-17.244 36.969zm-27.4-5.787l.236-.591a45.986 45.986 0 0 1-4.843-5.2c0-.118-.118-.236-.236-.354 0 .118.118.236.118.354a28.107 28.107 0 0 0 4.724 5.79zm8.976-45.472l11.575 20.2-3.071 3.661-8.858-23.74c0-.236-.236-.236-.236.118l6.142 23.268-1.89-.354-4.488-22.8a25.723 25.723 0 0 0-15.236 33.071 26.8 26.8 0 0 0 7.677 10.866l11.811-20.315 2.008.354-14.055 20.669c-.354.472-.118.591.236.118l16.772-20.079 1.654 4.488-17.717 15.354a25.619 25.619 0 0 0 25.039 3.78 25.883 25.883 0 0 0 16.772-19.134l-23.386-.354-1.654-4.37 24.8 4.252c.591.118.591-.118.118-.236l-23.15-6.5 1.3-1.535 22.2 7.913a28.72 28.72 0 0 0-1.3-13.346c-4.835-13.224-19.717-19.838-33.064-15.35zm32.6 9.921l.236.236c0-.118 0-.118-.118-.236a27.681 27.681 0 0 0-33.78-11.811 28.415 28.415 0 0 0-16.89 36.378 27.842 27.842 0 0 0 5.787 9.094c1.063 1.181 4.016 3.78 4.606 4.252.236 0 .236.118.354.118 0-.118 0-.118-.118-.236a58.582 58.582 0 0 1-4.37-4.252 30.924 30.924 0 0 1-5.315-9.213 27.585 27.585 0 0 1 16.417-35.315 28.308 28.308 0 0 1 21.85 1.417 31.858 31.858 0 0 1 11.339 9.567zm-40.75 35.312l-.472.472c6.5 5.906 16.417 8.268 26.693 4.488a27.723 27.723 0 0 0 16.535-35.433 20.435 20.435 0 0 0-4.134-6.5c-.945-1.063-2.48-2.48-3.071-3.071-.118-.118-.236-.118-.354-.236 0 .118.118.236.236.354a28.075 28.075 0 0 1 2.717 3.071 21.287 21.287 0 0 1 3.661 6.732 26.068 26.068 0 0 1 1.181 13.7c.236.354.236.472-.118.709a26.6 26.6 0 0 1-17.008 19.724c-8.5 3.189-17.008 1.063-19.961-.472a37.027 37.027 0 0 1-5.905-3.538zm14.882-21.5l1.417.236-6.26-17.48c-.118-.354-.236-.354-.118 0zm2.48.591l18.307 3.307c.354 0 .354-.118.118-.118l-17.48-4.252zm-2.48.236l-2.717 4.488c-.118.236 0 .354.236.118l3.78-4.37z" class="cls-2" data-name="Path 941" transform="translate(-147.482 -2486.209)"/>
                <path id="Path_942" d="M812.064 2424.135a28.645 28.645 0 1 1 17.244-36.85c5.552 14.764-2.244 31.299-17.244 36.85zm-27.4-5.787l.236-.591a46.011 46.011 0 0 1-4.843-5.2c0-.118-.118-.236-.236-.354 0 .118.118.236.118.354a28.111 28.111 0 0 0 4.724 5.791zm8.976-45.472l11.575 20.2-3.071 3.661-8.858-23.74c0-.236-.236-.236-.236.118l6.142 23.268-2.008-.354-4.37-22.8a25.723 25.723 0 0 0-15.236 33.071 28.025 28.025 0 0 0 7.677 10.984l11.811-20.433 2.008.354-14.055 20.669c-.354.591-.118.591.236.118l16.772-20.079 1.654 4.488-17.717 15.354a25.619 25.619 0 0 0 25.039 3.78 25.883 25.883 0 0 0 16.772-19.134l-23.386-.236-1.654-4.488 24.8 4.252c.591.118.591-.118.118-.236l-23.15-6.5 1.3-1.535 22.2 7.913a28.719 28.719 0 0 0-1.3-13.346c-4.835-13.225-19.717-19.838-33.064-15.349zm32.6 9.921c.118.118.236.236.236.354a.434.434 0 0 0-.118-.354 27.681 27.681 0 0 0-33.78-11.811 28.415 28.415 0 0 0-16.89 36.378 27.844 27.844 0 0 0 5.787 9.095c1.063 1.181 4.016 3.779 4.606 4.252.236.118.236.118.354.118 0-.118 0-.118-.118-.236a58.6 58.6 0 0 1-4.37-4.252 29.424 29.424 0 0 1-5.315-9.213 27.631 27.631 0 0 1 16.417-35.315 28.308 28.308 0 0 1 21.85 1.417 31.861 31.861 0 0 1 11.339 9.57zm-40.75 35.433l-.472.354c6.5 5.905 16.417 8.268 26.693 4.488a27.723 27.723 0 0 0 16.535-35.433 20.436 20.436 0 0 0-4.134-6.5c-.945-1.063-2.48-2.48-3.071-3.071-.118-.118-.236-.118-.354-.236 0 .118.118.236.236.354a28.1 28.1 0 0 1 2.717 3.071 21.285 21.285 0 0 1 3.661 6.732 27.681 27.681 0 0 1 1.181 13.819c.236.236.236.354-.118.591a26.6 26.6 0 0 1-17.008 19.724c-8.5 3.189-17.008 1.063-19.961-.472a49.4 49.4 0 0 1-5.905-3.421zm14.882-21.614l1.417.236-6.26-17.48c-.118-.354-.236-.354-.118 0zm2.48.591l18.307 3.307c.354 0 .354 0 .118-.118l-17.48-4.252zm-2.48.236l-2.717 4.488c-.118.236 0 .354.236.118l3.78-4.37z" class="cls-2" data-name="Path 942" transform="translate(-681.907 -2289.558)"/>
                <path id="Path_943" d="M1418.064 2201.135a28.645 28.645 0 1 1 17.244-36.85c5.552 14.764-2.244 31.299-17.244 36.85zm-27.4-5.787l.236-.591a46.037 46.037 0 0 1-4.843-5.2.254.254 0 0 0-.236-.236c0 .118.118.118.118.236a28.11 28.11 0 0 0 4.724 5.791zm8.976-45.473l11.575 20.2-3.071 3.661-8.858-23.74c0-.236-.236-.236-.236.118l6.142 23.268-2.008-.236-4.37-22.913a25.768 25.768 0 0 0-15.236 33.071 28.025 28.025 0 0 0 7.677 10.984l11.811-20.433 2.008.354-14.055 20.669c-.354.591-.118.709.236.236l16.772-20.2 1.654 4.488-17.717 15.354a25.894 25.894 0 0 0 25.039 3.9 26.246 26.246 0 0 0 16.772-19.252l-23.386-.236-1.654-4.488 24.8 4.252c.591.118.591 0 .118-.236l-23.15-6.5 1.3-1.535 22.2 7.913a28.718 28.718 0 0 0-1.3-13.346c-4.835-13.228-19.717-19.841-33.064-15.353zm32.6 10.04a.254.254 0 0 1 .236.236.434.434 0 0 0-.118-.354 27.68 27.68 0 0 0-33.779-11.811 27.705 27.705 0 0 0-11.1 45.472c1.063 1.181 4.016 3.78 4.606 4.252.236.118.236.118.354.118 0-.118 0-.118-.118-.236a58.488 58.488 0 0 1-4.37-4.252 30 30 0 0 1-5.315-9.094 27.35 27.35 0 0 1 38.268-33.9c4.483 2.364 7.082 4.136 11.334 9.569zm-40.748 35.315l-.472.354c6.5 5.906 16.417 8.268 26.693 4.488a27.723 27.723 0 0 0 16.536-35.433 20.435 20.435 0 0 0-4.134-6.5c-.945-1.063-2.48-2.48-3.071-3.071-.118-.118-.236-.118-.354-.236 0 .236.118.236.236.354a28.116 28.116 0 0 1 2.717 3.071 21.29 21.29 0 0 1 3.661 6.732 27.681 27.681 0 0 1 1.181 13.819c.236.236.236.354-.118.591a26.6 26.6 0 0 1-17.008 19.724c-8.5 3.189-17.008 1.063-19.961-.472a49.367 49.367 0 0 1-5.908-3.421zm14.882-21.614l1.417.236-6.26-17.48c-.118-.354-.236-.354-.118 0zm2.48.591l18.307 3.307c.354.118.354 0 .118-.118l-17.48-4.252zm-2.48.236l-2.717 4.488c-.118.354 0 .354.236.118l3.78-4.37z" class="cls-2" data-name="Path 943" transform="translate(-1216.332 -2092.896)"/>
                <path id="Path_944" d="M2024.064 1978.136a28.645 28.645 0 1 1 17.244-36.85c5.552 14.763-2.244 31.298-17.244 36.85zm-27.4-5.787l.236-.59a46.027 46.027 0 0 1-4.843-5.2.254.254 0 0 0-.236-.236c0 .118.118.118.118.236a28.108 28.108 0 0 0 4.724 5.789zm8.976-45.472l11.575 20.2-3.071 3.661-8.858-23.74c0-.236-.236-.236-.236.118l6.142 23.386-2.008-.354-4.37-22.913a25.768 25.768 0 0 0-15.236 33.071 28.025 28.025 0 0 0 7.677 10.984l11.811-20.433 2.008.354-14.055 20.787c-.354.472-.118.591.236.118l16.772-20.2 1.654 4.488-17.717 15.354a25.894 25.894 0 0 0 25.039 3.9 26.246 26.246 0 0 0 16.772-19.252l-23.386-.236-1.654-4.488 24.8 4.37c.591 0 .591-.118.118-.354l-23.15-6.5 1.3-1.535 22.2 7.913a28.866 28.866 0 0 0-1.3-13.346c-4.835-13.23-19.717-19.842-33.064-15.354zm32.6 10.039c.118.118.236.118.236.236a.434.434 0 0 0-.118-.354 27.816 27.816 0 0 0-33.78-11.811 27.706 27.706 0 0 0-11.1 45.473c1.063 1.181 4.016 3.78 4.606 4.252a.906.906 0 0 1 .354.236c0-.236 0-.236-.236-.354-.118-.118-2.6-2.48-4.252-4.252a28.551 28.551 0 0 1-5.315-9.094 27.35 27.35 0 0 1 38.268-33.9c4.484 2.362 7.083 4.134 11.335 9.567zm-40.748 35.315l-.472.354c6.5 5.906 16.417 8.268 26.693 4.488a27.723 27.723 0 0 0 16.535-35.433 20.433 20.433 0 0 0-4.134-6.5c-.945-1.063-2.48-2.48-3.071-3.071a.434.434 0 0 0-.354-.118c0 .118.118.118.236.236a28.1 28.1 0 0 1 2.716 3.071 22.678 22.678 0 0 1 3.661 6.732 27.679 27.679 0 0 1 1.181 13.819c.236.236.236.354-.118.591a26.6 26.6 0 0 1-17.008 19.724c-8.5 3.189-17.008 1.063-19.961-.472a49.4 49.4 0 0 1-5.906-3.422zm14.882-21.614l1.417.236-6.26-17.48c-.118-.354-.236-.354-.118.118zm2.48.59l18.307 3.307c.354.118.354 0 .118-.118l-17.48-4.252zm-2.48.236l-2.716 4.488c-.118.354 0 .354.236.118l3.779-4.37z" class="cls-2" data-name="Path 944" transform="translate(-1750.757 -1896.235)"/>
                <path id="Path_945" d="M2630.064 1755.135a28.645 28.645 0 1 1 17.244-36.85 28.766 28.766 0 0 1-17.244 36.85zm-27.4-5.787l.236-.591a45.994 45.994 0 0 1-4.843-5.2.254.254 0 0 0-.236-.236c0 .118.118.118.118.354a30.891 30.891 0 0 0 4.724 5.673zm8.977-45.472l11.575 20.2-3.071 3.661-8.858-23.74c0-.236-.236-.118-.236.118l6.142 23.386-2.008-.354-4.37-22.913a25.768 25.768 0 0 0-15.236 33.071 27.2 27.2 0 0 0 7.677 10.984l11.811-20.315 2.008.236-14.055 20.787c-.354.472-.118.591.236.118l16.772-20.2 1.654 4.488-17.717 15.354a25.894 25.894 0 0 0 25.039 3.9 26.246 26.246 0 0 0 16.772-19.252l-23.386-.236-1.654-4.488 24.8 4.37c.591 0 .591-.118.118-.354l-23.15-6.5 1.3-1.535 22.2 7.913a28.866 28.866 0 0 0-1.3-13.346c-4.836-13.229-19.718-19.842-33.065-15.353zm32.6 10.039c.118.118.236.118.236.236a.435.435 0 0 0-.118-.354 27.816 27.816 0 0 0-33.78-11.811 27.705 27.705 0 0 0-11.1 45.472c1.063 1.181 4.016 3.78 4.606 4.252a.908.908 0 0 1 .354.236c0-.118 0-.236-.236-.354-.118-.118-2.6-2.48-4.252-4.252a28.555 28.555 0 0 1-5.315-9.094 27.351 27.351 0 0 1 38.268-33.9c4.483 2.364 7.082 4.136 11.334 9.569zm-40.748 35.315l-.472.354c6.5 5.906 16.417 8.268 26.693 4.606a27.9 27.9 0 0 0 16.535-35.551 20.434 20.434 0 0 0-4.134-6.5c-.945-1.063-2.48-2.48-3.071-3.071a.434.434 0 0 0-.354-.118c0 .118.118.118.236.236a22.4 22.4 0 0 1 2.717 3.189 21.961 21.961 0 0 1 3.661 6.614 27.683 27.683 0 0 1 1.181 13.819c.236.236.236.472-.118.59a26.962 26.962 0 0 1-17.008 19.843c-8.5 3.071-17.008 1.063-19.961-.59a49.408 49.408 0 0 1-5.908-3.421zm14.882-21.614l1.417.354-6.26-17.6c-.118-.354-.236-.236-.118.118zm2.48.709l18.307 3.189c.354.118.354 0 .118-.118l-17.48-4.252zm-2.48.236l-2.717 4.488c-.118.236 0 .236.236 0l3.78-4.37z" class="cls-2" data-name="Path 945" transform="translate(-2285.183 -1699.573)"/>
            </g>
            <g id="Group_67" data-name="Group 67" transform="translate(0 272.461)">
                <path id="Path_946" d="M13.346 3476.688A28.964 28.964 0 0 1 0 3478.342v-1.063a28.052 28.052 0 0 0 12.992-1.654 27.626 27.626 0 0 0 16.535-35.433 20.436 20.436 0 0 0-4.134-6.5 25.01 25.01 0 0 0-3.071-3.071c-.118-.118-.236-.118-.354-.236.118.118.118.236.236.354a26.525 26.525 0 0 1 2.835 3.071 23.923 23.923 0 0 1 3.661 6.732 27.682 27.682 0 0 1 1.181 13.819c.236.236.118.354-.118.591a26.748 26.748 0 0 1-17.126 19.724A28.778 28.778 0 0 1 0 3476.216v-.591a28.2 28.2 0 0 0 12.4-1.417 25.863 25.863 0 0 0 16.654-19.252l-23.386-.236-1.654-4.488 24.8 4.252c.591.118.709-.118.118-.236l-23.031-6.5 1.3-1.535 22.087 7.913a27.186 27.186 0 0 0-1.181-13.346c-4.252-11.575-16.181-18.071-28.11-16.535v-1.181a28.241 28.241 0 0 1 16.181 2.717 31.173 31.173 0 0 1 11.457 9.567c0 .118.118.236.236.354 0-.118-.118-.236-.118-.354A27.6 27.6 0 0 0 0 3422v-.709a28.858 28.858 0 0 1 30.709 18.543c5.433 14.766-2.363 31.303-17.363 36.854zM0 3459.208v-4.725l3.307-4.016 1.654 4.488zm0-5.551v-.827l1.654-2.83 1.3.236zm0-3.425v-.472h.354zm0-1.3v-2.008l.591 2.008zm0-5.669v-2.48l3.071 8.622-1.3-.236zm0-3.425v-5.669l6.614 11.457-3.071 3.661zm4.134 9.921l18.425 3.307c.236.118.354 0 0-.118l-17.48-4.248z" class="cls-2" data-name="Path 946" transform="translate(0 -3289.464)"/>
                <path id="Path_947" d="M429.171 3254.135a28.625 28.625 0 1 1 17.362-36.85c5.433 14.764-2.362 31.299-17.362 36.85zm-27.4-5.787l.354-.591a31.132 31.132 0 0 1-4.843-5.2l-.236-.236v.236a28.112 28.112 0 0 0 4.723 5.791zm8.976-45.472l11.693 20.2-3.071 3.661-8.858-23.74c-.118-.236-.354-.236-.236.118l6.142 23.268-2.008-.236-4.488-22.913a25.768 25.768 0 0 0-15.236 33.071 29.563 29.563 0 0 0 7.8 10.984l11.693-20.433 2.008.354-14.055 20.669c-.354.591-.118.709.236.236l16.772-20.2 1.654 4.488-17.6 15.354a26.2 26.2 0 0 0 41.687-15.357l-23.386-.236-1.654-4.488 24.8 4.252c.591.118.709 0 .118-.236l-23.031-6.5 1.3-1.535 22.087 7.913a27.186 27.186 0 0 0-1.181-13.346c-4.959-13.224-19.841-19.837-33.187-15.348zm32.717 10.039l.236.236c0-.118-.118-.236-.118-.354a27.785 27.785 0 0 0-33.9-11.811 27.92 27.92 0 0 0-11.1 45.473 46.235 46.235 0 0 0 4.724 4.252c.118.118.118.118.354.118l-.236-.236c-.118-.118-2.717-2.48-4.37-4.252a28.74 28.74 0 0 1-5.2-9.094 27.275 27.275 0 0 1 38.15-33.9c4.608 2.363 7.206 4.135 11.458 9.568zM402.6 3248.23l-.472.354c6.5 5.905 16.535 8.268 26.693 4.488a27.626 27.626 0 0 0 16.535-35.433 20.435 20.435 0 0 0-4.134-6.5 25.012 25.012 0 0 0-3.071-3.071c-.118-.118-.236-.118-.354-.236a.909.909 0 0 0 .236.354 26.546 26.546 0 0 1 2.835 3.071 23.921 23.921 0 0 1 3.661 6.732 27.68 27.68 0 0 1 1.181 13.819c.236.236.118.354-.118.591a26.748 26.748 0 0 1-17.126 19.724c-8.5 3.189-17.008 1.063-19.961-.472a49.4 49.4 0 0 1-5.905-3.421zm15-21.614l1.3.236-6.26-17.48c-.118-.354-.236-.354-.118 0zm2.362.591l18.425 3.307c.236.118.354 0 0-.118l-17.48-4.252zm-2.48.236l-2.6 4.488c-.236.354-.118.354.118.118l3.78-4.37z" class="cls-2" data-name="Path 947" transform="translate(-344.25 -3093.25)"/>
                <path id="Path_948" d="M1035.171 3031.135a28.625 28.625 0 1 1 17.362-36.85 28.811 28.811 0 0 1-17.362 36.85zm-27.4-5.787l.354-.591a31.131 31.131 0 0 1-4.842-5.2l-.236-.236v.236a28.115 28.115 0 0 0 4.722 5.791zm8.976-45.472l11.693 20.2-3.071 3.661-8.858-23.74c-.118-.236-.354-.236-.236.118l6.142 23.386-2.008-.354-4.488-22.914a25.768 25.768 0 0 0-15.236 33.071 29.563 29.563 0 0 0 7.8 10.984l11.693-20.433 2.008.354-14.055 20.787c-.354.472-.118.591.236.118l16.772-20.2 1.654 4.488-17.6 15.354a26.2 26.2 0 0 0 41.693-15.354l-23.386-.236-1.654-4.488 24.8 4.37c.59 0 .709-.118.118-.354l-23.031-6.5 1.3-1.535 22.087 7.913a27.305 27.305 0 0 0-1.181-13.346c-4.965-13.226-19.847-19.839-33.193-15.35zm32.6 10.039c.118.118.236.118.354.236 0-.118-.118-.236-.118-.354a27.921 27.921 0 0 0-33.9-11.811 27.92 27.92 0 0 0-11.1 45.473 46.2 46.2 0 0 0 4.724 4.252.217.217 0 1 0 .118-.118c-.118-.118-2.717-2.48-4.37-4.252a28.739 28.739 0 0 1-5.2-9.094 27.275 27.275 0 0 1 38.15-33.9c4.607 2.363 7.205 4.135 11.339 9.568zm-40.747 35.315l-.472.354c6.5 5.906 16.535 8.268 26.693 4.488a27.626 27.626 0 0 0 16.535-35.433 20.431 20.431 0 0 0-4.134-6.5 25.017 25.017 0 0 0-3.071-3.071.434.434 0 0 0-.354-.118l.236.236a26.542 26.542 0 0 1 2.835 3.071 25.708 25.708 0 0 1 3.661 6.732 27.681 27.681 0 0 1 1.181 13.819c.236.236.118.354-.118.591a26.748 26.748 0 0 1-17.126 19.724c-8.5 3.189-17.008 1.063-19.961-.472a49.4 49.4 0 0 1-5.905-3.421zm15-21.614l1.3.236-6.26-17.48c-.118-.354-.236-.236-.118.118zm2.362.591l18.425 3.307c.236.118.354 0 0-.118l-17.48-4.252zm-2.48.236l-2.6 4.606c-.236.236-.118.236.118 0l3.78-4.37z" class="cls-2" data-name="Path 948" transform="translate(-878.675 -2896.589)"/>
                <path id="Path_949" d="M1641.171 2808.135a28.625 28.625 0 1 1 17.362-36.85 28.811 28.811 0 0 1-17.362 36.85zm-27.4-5.787l.354-.591a31.131 31.131 0 0 1-4.842-5.2l-.236-.236v.354a30.889 30.889 0 0 0 4.722 5.673zm8.976-45.472l11.693 20.2-3.071 3.662-8.858-23.74c-.118-.236-.354-.118-.236.118l6.142 23.386-2.008-.354-4.488-22.913a25.768 25.768 0 0 0-15.236 33.071 28.639 28.639 0 0 0 7.8 10.984l11.693-20.315 2.008.236-14.055 20.787c-.354.472-.118.591.236.118l16.772-20.2 1.654 4.488-17.6 15.354a26.2 26.2 0 0 0 41.693-15.354l-23.386-.236-1.654-4.488 24.8 4.37c.591 0 .709-.118.118-.354l-23.031-6.5 1.3-1.535 22.087 7.914a26.048 26.048 0 0 0-1.3-13.346c-4.846-13.229-19.728-19.842-33.074-15.354zm32.717 10.039c0 .118.118.118.236.236 0-.118-.118-.236-.118-.354a27.92 27.92 0 0 0-33.9-11.811 27.92 27.92 0 0 0-11.1 45.472 46.18 46.18 0 0 0 4.724 4.252.906.906 0 0 0 .354.236c-.118-.118-.118-.236-.236-.354s-2.717-2.48-4.37-4.252a28.739 28.739 0 0 1-5.2-9.094 27.275 27.275 0 0 1 38.15-33.9c4.608 2.364 7.206 4.136 11.458 9.569zm-40.864 35.315l-.473.354c6.5 5.906 16.536 8.268 26.693 4.606a27.8 27.8 0 0 0 16.535-35.551 20.43 20.43 0 0 0-4.134-6.5 25.018 25.018 0 0 0-3.071-3.071.434.434 0 0 0-.354-.118l.236.236a21.441 21.441 0 0 1 2.835 3.189 24.859 24.859 0 0 1 3.661 6.614 27.681 27.681 0 0 1 1.181 13.819c.236.236.118.472-.118.591a27.116 27.116 0 0 1-17.126 19.843c-8.5 3.071-17.008 1.063-19.961-.591a49.4 49.4 0 0 1-5.904-3.421zm15-21.614l1.3.354-6.26-17.6c-.118-.354-.236-.236-.118.118zm2.362.708l18.425 3.189c.236.118.354 0 0-.118l-17.48-4.252zm-2.48.236l-2.6 4.488c-.236.236-.118.236.118 0l3.78-4.37z" class="cls-2" data-name="Path 949" transform="translate(-1413.1 -2699.927)"/>
                <path id="Path_950" d="M2247.171 2585.135a28.811 28.811 0 0 1-37.087-16.89c-5.433-14.764 2.362-31.3 17.362-36.85a28.625 28.625 0 1 1 19.724 53.74zm-27.4-5.788l.354-.472a36.476 36.476 0 0 1-4.843-5.315l-.236-.236v.354a30.894 30.894 0 0 0 4.723 5.67zm8.977-45.472l11.693 20.2-3.071 3.661-8.858-23.74c-.118-.236-.354-.118-.236.118l6.023 23.386-1.89-.354-4.488-22.913a25.852 25.852 0 0 0-15.236 33.189 29.13 29.13 0 0 0 7.8 10.866l11.693-20.315 2.008.354-14.055 20.669c-.354.472-.118.591.236.118l16.772-20.079 1.654 4.37-17.6 15.354a25.551 25.551 0 0 0 25.039 3.9 25.863 25.863 0 0 0 16.654-19.252l-23.386-.236-1.653-4.37 24.8 4.252c.591 0 .709-.118.118-.236l-23.031-6.614 1.3-1.535 22.086 7.913a26.047 26.047 0 0 0-1.3-13.346c-4.846-13.235-19.728-19.848-33.074-15.36zm32.6 10.04c.118.118.236.236.354.236 0-.118-.118-.236-.118-.354a27.92 27.92 0 0 0-33.9-11.811 28.439 28.439 0 0 0-16.772 36.5 27.034 27.034 0 0 0 5.669 8.976 35.431 35.431 0 0 0 4.724 4.252.908.908 0 0 0 .354.236c-.118-.118-.118-.236-.236-.354a57.085 57.085 0 0 1-4.37-4.252 28.739 28.739 0 0 1-5.2-9.094 27.275 27.275 0 0 1 38.15-33.9c4.609 2.36 7.207 4.132 11.341 9.565zm-40.748 35.315l-.472.472c6.5 5.787 16.535 8.15 26.693 4.488a27.755 27.755 0 0 0 16.535-35.551 20.432 20.432 0 0 0-4.134-6.5 37.6 37.6 0 0 0-3.071-3.071c-.118 0-.236-.118-.354-.118l.236.236a30.181 30.181 0 0 1 2.834 3.189 24.856 24.856 0 0 1 3.662 6.614 27.793 27.793 0 0 1 1.181 13.819c.236.236.118.472-.118.709a26.947 26.947 0 0 1-17.126 19.724c-8.5 3.071-17.008 1.063-19.961-.591a29.987 29.987 0 0 1-5.905-3.42zm15-21.5l1.3.236-6.26-17.6c-.118-.354-.236-.236-.118.118zm2.362.591l18.425 3.189c.236.118.354 0 0-.118l-17.48-4.252zm-2.48.236l-2.6 4.488c-.236.236-.118.236.118 0l3.78-4.37z" class="cls-2" data-name="Path 950" transform="translate(-1947.525 -2503.266)"/>
                <path id="Path_951" d="M2853.171 2362.367a28.811 28.811 0 0 1-37.087-16.89c-5.433-14.764 2.362-31.3 17.362-36.85a28.969 28.969 0 0 1 23.5 1.535v.709a27.938 27.938 0 0 0-23.268-1.654 28.439 28.439 0 0 0-16.771 36.5 28.831 28.831 0 0 0 5.669 9.094 43.515 43.515 0 0 0 4.724 4.134.908.908 0 0 0 .354.236c-.118-.118-.118-.236-.236-.354a57.085 57.085 0 0 1-4.37-4.252 28.739 28.739 0 0 1-5.2-9.094 27.344 27.344 0 0 1 38.15-33.9l.945.472v1.417a26.888 26.888 0 0 0-22.2-2.244l11.693 20.079-3.071 3.661-8.858-23.622c-.118-.354-.354-.236-.236 0l6.142 23.386-2.008-.354-4.488-22.913a25.9 25.9 0 0 0-15.236 33.189 29.131 29.131 0 0 0 7.8 10.866l11.693-20.315 2.008.354-14.055 20.669c-.354.472-.118.591.236.118l16.772-20.079 1.654 4.37-17.6 15.354a25.267 25.267 0 0 0 25.039 3.9 34.566 34.566 0 0 0 4.724-2.244v.708a31.172 31.172 0 0 1-4.488 2.126c-8.5 3.071-17.008 1.063-19.96-.591a29.987 29.987 0 0 1-5.906-3.425l-.472.472c6.5 5.906 16.535 8.268 26.693 4.488a44 44 0 0 0 4.134-1.89v1.181a21.548 21.548 0 0 1-3.782 1.653zm3.78-26.811v1.063l-11.22-3.189 1.181-1.417zm0 1.771v.473l-12.992-2.244.945-1.063zm0 .945v2.244l-11.457-.118-1.653-4.37zm-31.181 18.307l.354-.472a36.476 36.476 0 0 1-4.843-5.315l-.236-.236v.354a30.887 30.887 0 0 0 4.724 5.67zm15.827-21.614l1.3.236-6.26-17.48c-.118-.354-.236-.354-.118 0zm-.118.827l-2.6 4.488c-.236.236-.118.236.118 0l3.78-4.37z" class="cls-2" data-name="Path 951" transform="translate(-2481.95 -2306.836)"/>
            </g>
            <g id="Group_68" data-name="Group 68" transform="translate(.925 347.244)">
                <path id="Path_952" d="M46.712 4084.135a28.645 28.645 0 1 1-19.843-53.74 28.645 28.645 0 1 1 19.843 53.74zm-27.52-5.787l.354-.591a31.132 31.132 0 0 1-4.843-5.2c-.118-.118-.118-.236-.236-.236 0 .118 0 .118.118.236a32.015 32.015 0 0 0 4.607 5.791zm9.094-45.472l11.575 20.2-3.071 3.661-8.858-23.74c-.118-.236-.236-.236-.236.118l6.142 23.386-2.008-.354-4.488-22.913a25.708 25.708 0 0 0-15.119 33.066 28.026 28.026 0 0 0 7.677 10.984l11.811-20.315 1.89.236-13.937 20.787c-.354.473-.236.591.236.118l16.772-20.2 1.535 4.488-17.6 15.354A26.2 26.2 0 0 0 62.3 4062.4l-23.386-.236-1.535-4.488 24.8 4.37c.472 0 .591-.118 0-.354l-23.031-6.5 1.3-1.535 22.087 7.913a27.3 27.3 0 0 0-1.181-13.346c-4.839-13.224-19.721-19.837-33.068-15.348zm32.6 10.039l.236.236a.434.434 0 0 0-.122-.351 27.816 27.816 0 0 0-33.78-11.811 28.4 28.4 0 0 0-16.89 36.5 30.52 30.52 0 0 0 5.67 8.969 46.234 46.234 0 0 0 4.724 4.252c.118.118.236.118.354.236 0-.236-.118-.236-.236-.354s-2.717-2.48-4.37-4.252a28.741 28.741 0 0 1-5.2-9.094 27.558 27.558 0 0 1 16.3-35.433 27.75 27.75 0 0 1 21.85 1.535c4.612 2.362 7.211 4.134 11.463 9.567zm-40.749 35.315l-.591.354c6.614 5.905 16.535 8.268 26.693 4.488a27.687 27.687 0 0 0 16.654-35.433 18.475 18.475 0 0 0-4.252-6.5 38.219 38.219 0 0 0-2.953-3.071c-.236-.118-.236-.118-.354-.118 0 .118 0 .118.236.236.472.472 1.654 1.772 2.717 3.071a25.706 25.706 0 0 1 3.661 6.732 27.68 27.68 0 0 1 1.181 13.819c.236.236.236.354-.118.591a26.52 26.52 0 0 1-17.126 19.724c-8.5 3.189-16.89 1.181-19.961-.472a46.909 46.909 0 0 1-5.787-3.421zm14.882-21.614l1.417.236-6.378-17.48c-.118-.354-.236-.236-.118.118zm2.48.591l18.307 3.307c.354.118.354 0 0-.118l-17.48-4.252zm-2.6.236l-2.6 4.606c-.118.236 0 .236.118 0l3.78-4.37z" class="cls-2" data-name="Path 952" transform="translate(-7.834 -3900.002)"/>
                <path id="Path_953" d="M652.711 3861.135a28.645 28.645 0 1 1 17.244-36.85 28.722 28.722 0 0 1-17.244 36.85zm-27.52-5.787l.354-.591a31.135 31.135 0 0 1-4.843-5.2c-.118-.118-.118-.236-.236-.236a.434.434 0 0 0 .118.354 35.777 35.777 0 0 0 4.608 5.673zm9.094-45.472l11.575 20.2-3.071 3.661-8.858-23.74c-.118-.236-.236-.118-.236.118l6.142 23.386-2.008-.354-4.488-22.914a25.708 25.708 0 0 0-15.118 33.071 27.2 27.2 0 0 0 7.677 10.984l11.811-20.315 1.89.236-13.937 20.787c-.354.472-.236.591.236.118l16.772-20.2 1.535 4.488-17.6 15.354a25.6 25.6 0 0 0 25.039 3.9A25.863 25.863 0 0 0 668.3 3839.4l-23.386-.236-1.535-4.488 24.8 4.37c.472 0 .591-.118 0-.354l-23.031-6.5 1.3-1.535 22.087 7.913a27.3 27.3 0 0 0-1.181-13.346c-4.839-13.224-19.721-19.837-33.068-15.348zm32.6 10.039l.236.236a.434.434 0 0 0-.118-.354 27.816 27.816 0 0 0-33.78-11.811 28.4 28.4 0 0 0-16.89 36.5 30.52 30.52 0 0 0 5.669 8.977 46.18 46.18 0 0 0 4.724 4.252c.118.118.236.118.354.236 0-.118-.118-.236-.236-.354s-2.716-2.48-4.37-4.252a28.738 28.738 0 0 1-5.2-9.094 27.275 27.275 0 0 1 38.15-33.9c4.61 2.359 7.209 4.131 11.461 9.564zm-40.748 35.315l-.591.354c6.614 5.906 16.535 8.268 26.693 4.606a27.861 27.861 0 0 0 16.654-35.551 18.47 18.47 0 0 0-4.252-6.5 38.224 38.224 0 0 0-2.953-3.071c-.236-.118-.236-.118-.354-.118 0 .118 0 .118.236.236a34.488 34.488 0 0 1 2.717 3.189 24.861 24.861 0 0 1 3.661 6.614 27.681 27.681 0 0 1 1.181 13.819c.236.236.236.472-.118.591a26.881 26.881 0 0 1-17.126 19.843c-8.5 3.071-16.89 1.063-19.961-.591a46.9 46.9 0 0 1-5.787-3.421zm14.882-21.614l1.417.354-6.378-17.6c-.118-.354-.236-.236-.118.118zm2.48.708l18.307 3.189c.354.118.354 0 0-.118l-17.48-4.252zm-2.6.236l-2.6 4.488c-.118.236 0 .236.118 0l3.78-4.37z" class="cls-2" data-name="Path 953" transform="translate(-542.259 -3703.34)"/>
                <path id="Path_954" d="M1258.712 3638.135a28.722 28.722 0 0 1-37.087-16.89c-5.551-14.764 2.244-31.3 17.244-36.85a28.645 28.645 0 1 1 19.843 53.74zm-27.52-5.787l.354-.472a36.5 36.5 0 0 1-4.843-5.315c-.118-.118-.118-.236-.236-.236a.434.434 0 0 0 .118.354 35.777 35.777 0 0 0 4.607 5.669zm9.094-45.472l11.575 20.2-3.071 3.662-8.858-23.74c-.118-.236-.236-.118-.236.118l6.142 23.386-2.008-.354-4.488-22.913a25.793 25.793 0 0 0-15.118 33.189 27.615 27.615 0 0 0 7.677 10.866l11.811-20.315 1.89.354-13.937 20.669c-.354.472-.236.591.236.118l16.772-20.079 1.536 4.37-17.6 15.354a25.6 25.6 0 0 0 25.039 3.9 25.863 25.863 0 0 0 16.652-19.261l-23.386-.236-1.535-4.37 24.8 4.252c.473 0 .591-.118 0-.236l-23.031-6.614 1.3-1.535 22.087 7.914a27.3 27.3 0 0 0-1.181-13.346c-4.839-13.229-19.721-19.842-33.068-15.354zm32.6 10.039c.118.118.118.236.236.236 0-.118-.118-.236-.118-.354a27.816 27.816 0 0 0-33.78-11.811 28.4 28.4 0 0 0-16.89 36.5 29.057 29.057 0 0 0 5.669 8.976 35.424 35.424 0 0 0 4.724 4.252c.118.118.236.118.354.236 0-.118-.118-.236-.236-.354a57.136 57.136 0 0 1-4.37-4.252 28.739 28.739 0 0 1-5.2-9.094 27.275 27.275 0 0 1 38.15-33.9c4.609 2.36 7.208 4.132 11.46 9.565zm-40.748 35.315l-.591.472c6.614 5.906 16.536 8.149 26.693 4.488a27.816 27.816 0 0 0 16.654-35.551 18.469 18.469 0 0 0-4.252-6.5c-.827-.945-2.362-2.48-2.953-3.071-.236 0-.236-.118-.354-.118 0 .118 0 .118.118.236a30.149 30.149 0 0 1 2.835 3.189 24.862 24.862 0 0 1 3.661 6.614 27.791 27.791 0 0 1 1.181 13.819c.236.236.236.472-.118.709a26.714 26.714 0 0 1-17.126 19.724c-8.5 3.071-16.89 1.063-19.961-.591a28.8 28.8 0 0 1-5.788-3.42zm14.882-21.5l1.417.236-6.378-17.6c-.118-.354-.236-.236-.118.118zm2.48.59l18.307 3.189c.354.118.354 0 0-.118l-17.48-4.252zm-2.6.236l-2.6 4.488c-.118.236 0 .236.118 0l3.78-4.37z" class="cls-2" data-name="Path 954" transform="translate(-1076.684 -3506.679)"/>
                <path id="Path_955" d="M1864.712 3415.135a28.722 28.722 0 0 1-37.087-16.89c-5.551-14.764 2.244-31.3 17.244-36.85a28.645 28.645 0 1 1 19.843 53.74zm-27.52-5.787l.354-.473a36.5 36.5 0 0 1-4.843-5.315c-.118-.118-.118-.236-.236-.236a.434.434 0 0 0 .118.354 35.783 35.783 0 0 0 4.607 5.67zm9.094-45.354l11.575 20.079-3.071 3.661-8.858-23.622c-.118-.354-.236-.236-.236 0l6.142 23.386-2.008-.354-4.488-22.913a25.838 25.838 0 0 0-15.118 33.189 27.615 27.615 0 0 0 7.677 10.866l11.811-20.315 1.89.354-13.937 20.669c-.354.472-.236.591.236.118l16.772-20.079 1.536 4.37-17.6 15.354a25.314 25.314 0 0 0 25.039 3.9 25.891 25.891 0 0 0 16.653-19.134l-23.386-.354-1.535-4.37 24.8 4.252c.472.118.591-.118 0-.236l-23.031-6.614 1.3-1.417 22.087 7.8a27.305 27.305 0 0 0-1.181-13.346c-4.84-13.118-19.722-19.851-33.069-15.244zm32.6 9.921c.118.118.118.236.236.236 0-.118-.118-.236-.118-.354a27.816 27.816 0 0 0-33.78-11.811 28.4 28.4 0 0 0-16.89 36.5 31.12 31.12 0 0 0 5.669 9.094 43.518 43.518 0 0 0 4.724 4.134c.118.118.236.118.354.236 0-.118-.118-.236-.236-.354a57.116 57.116 0 0 1-4.37-4.252 28.736 28.736 0 0 1-5.2-9.094 27.344 27.344 0 0 1 38.15-33.9c4.609 2.36 7.208 4.132 11.46 9.565zm-40.748 35.315l-.591.472c6.614 5.906 16.535 8.268 26.693 4.488a27.732 27.732 0 0 0 16.653-35.433 18.078 18.078 0 0 0-4.252-6.614 34.572 34.572 0 0 0-2.953-2.953c-.236-.118-.236-.236-.354-.236a.434.434 0 0 0 .118.354 19.221 19.221 0 0 1 2.835 3.071 24.862 24.862 0 0 1 3.661 6.614 27.791 27.791 0 0 1 1.181 13.819c.236.236.236.472-.118.709a26.714 26.714 0 0 1-17.126 19.724c-8.5 3.071-16.89 1.063-19.961-.591a28.783 28.783 0 0 1-5.787-3.424zm14.882-21.5l1.417.236-6.378-17.48c-.118-.354-.236-.354-.118 0zm2.48.591l18.307 3.189c.354.118.354 0 0-.118l-17.48-4.134zm-2.6.236l-2.6 4.488c-.118.236 0 .236.118 0l3.78-4.37z" class="cls-2" data-name="Path 955" transform="translate(-1611.109 -3310.017)"/>
                <path id="Path_956" d="M2470.711 3192.254a28.877 28.877 0 0 1-37.086-17.008c-5.551-14.764 2.244-31.3 17.244-36.85a28.7 28.7 0 1 1 19.843 53.858zm-27.52-5.906l.354-.473a36.49 36.49 0 0 1-4.843-5.315l-.236-.236a.434.434 0 0 0 .118.354 35.773 35.773 0 0 0 4.608 5.67zm9.094-45.354l11.575 20.079-3.071 3.661-8.858-23.622c-.118-.354-.236-.236-.236 0l6.142 23.386-2.008-.354-4.488-22.913a25.838 25.838 0 0 0-15.118 33.189 27.615 27.615 0 0 0 7.677 10.866l11.811-20.315 1.89.354-13.937 20.669c-.354.472-.236.591.236.118l16.772-20.079 1.535 4.37-17.6 15.472a25.572 25.572 0 0 0 25.039 3.78 25.891 25.891 0 0 0 16.654-19.134l-23.386-.354-1.535-4.37 24.8 4.252c.472.118.591-.118 0-.236l-23.031-6.5 1.3-1.535 22.087 7.8a27.3 27.3 0 0 0-1.181-13.346c-4.839-13.112-19.721-19.845-33.068-15.238zm32.6 9.921c.118.118.118.236.236.236 0-.118-.118-.236-.118-.354a27.764 27.764 0 0 0-33.78-11.693 28.228 28.228 0 0 0-16.89 36.378 31.12 31.12 0 0 0 5.669 9.094 43.492 43.492 0 0 0 4.724 4.134c.118.118.236.236.354.236-.118-.118-.118-.236-.236-.354a57.085 57.085 0 0 1-4.37-4.252 28.738 28.738 0 0 1-5.2-9.094 27.384 27.384 0 0 1 16.3-35.315 27.8 27.8 0 0 1 21.85 1.417c4.61 2.362 7.209 4.134 11.461 9.567zm-40.748 35.315l-.591.472c6.614 5.906 16.535 8.268 26.693 4.488a27.732 27.732 0 0 0 16.654-35.433 18.081 18.081 0 0 0-4.252-6.614c-.827-.945-2.362-2.362-2.953-2.953-.236-.118-.236-.236-.354-.236a.433.433 0 0 0 .118.354 19.225 19.225 0 0 1 2.835 3.071 24.857 24.857 0 0 1 3.661 6.614 27.793 27.793 0 0 1 1.181 13.819c.236.236.236.473-.118.709a26.714 26.714 0 0 1-17.126 19.724c-8.5 3.071-16.89 1.063-19.961-.472a35.427 35.427 0 0 1-5.787-3.543zm14.882-21.5l1.417.236-6.378-17.48c-.118-.354-.236-.354-.118 0zm2.48.591l18.307 3.307c.354 0 .354-.118 0-.236l-17.48-4.134zm-2.6.236l-2.6 4.488c-.118.236 0 .236.118 0l3.78-4.252z" class="cls-2" data-name="Path 956" transform="translate(-2145.534 -3113.356)"/>
                <path id="Path_957" d="M3054.025 2991.5a28.572 28.572 0 0 1 0-51.5v.708a28.477 28.477 0 0 0-13.7 35.079 29.639 29.639 0 0 0 5.669 9.094 43.515 43.515 0 0 0 4.724 4.134c.118.118.236.236.354.236-.118-.118-.118-.236-.236-.354a57.158 57.158 0 0 1-4.37-4.252 28.737 28.737 0 0 1-5.2-9.094 27.536 27.536 0 0 1 12.756-33.78v1.3a25.9 25.9 0 0 0-11.811 31.654 26.8 26.8 0 0 0 7.677 10.866l4.134-7.087v1.3l-4.37 6.5c-.354.472-.236.591.236.118l4.134-4.961v1.654l-3.425 3.071a34.239 34.239 0 0 0 3.425 2.244v.59a20.144 20.144 0 0 1-3.9-2.48l-.591.472a30.737 30.737 0 0 0 4.488 3.189zm-4.843-4.725l.354-.59a31.278 31.278 0 0 1-4.842-5.315l-.236-.236a.433.433 0 0 0 .118.354 36.717 36.717 0 0 0 4.607 5.783z" class="cls-2" data-name="Path 957" transform="translate(-2679.951 -2940)"/>
            </g>
            <g id="Group_69" data-name="Group 69" transform="translate(0 442.215)">
                <path id="Path_958" d="M0 4895a27.58 27.58 0 0 1 11.811 14.41A28.685 28.685 0 0 1 0 4943.662v-1.3a27.717 27.717 0 0 0 10.748-32.6 20.433 20.433 0 0 0-4.134-6.5 24.993 24.993 0 0 0-3.071-3.071.434.434 0 0 0-.354-.118c0 .118.118.118.236.236a31.372 31.372 0 0 1 2.835 3.191 24.785 24.785 0 0 1 3.543 6.614 26.406 26.406 0 0 1 1.181 13.819c.236.236.236.473-.118.591A26.028 26.028 0 0 1 0 4941.063v-.708a26.037 26.037 0 0 0 10.276-15.827L0 4924.41v-2.01l10.039 1.771c.591 0 .591-.118.118-.354L0 4920.984v-.945l10.512 3.662a28.867 28.867 0 0 0-1.3-13.347A24.489 24.489 0 0 0 0 4898.425v-1.535a30.3 30.3 0 0 1 8.74 8.149c.118.118.236.118.236.236a.434.434 0 0 0-.118-.354A27.587 27.587 0 0 0 0 4895.709zm0 27.047v-.354l3.78.827c.236.118.236.236-.118.118z" class="cls-2" data-name="Path 958" transform="translate(0 -4759.066)"/>
                <path id="Path_959" d="M270.064 4691.136a28.645 28.645 0 1 1 17.244-36.851 28.767 28.767 0 0 1-17.244 36.851zm-27.4-5.788l.354-.472a36.477 36.477 0 0 1-4.843-5.315c-.118-.118-.236-.236-.354-.236 0 .118.118.236.118.354a30.886 30.886 0 0 0 4.724 5.669zm8.976-45.472l11.575 20.2-2.953 3.661-8.976-23.74c0-.236-.236-.118-.118.118l6.024 23.386-1.89-.354-4.488-22.914a25.853 25.853 0 0 0-15.236 33.189 27.614 27.614 0 0 0 7.677 10.866l11.811-20.315 2.008.354-14.055 20.669c-.354.473-.118.591.236.118l16.772-20.079 1.654 4.37-17.717 15.354a25.648 25.648 0 0 0 25.039 3.9 26.016 26.016 0 0 0 16.772-19.252l-23.386-.236-1.654-4.37 24.8 4.252c.591 0 .591-.118.118-.236l-23.15-6.614 1.3-1.536 22.2 7.914a28.867 28.867 0 0 0-1.3-13.347c-4.835-13.234-19.717-19.846-33.064-15.358zm32.6 10.039l.236.236a.434.434 0 0 0-.118-.354 27.816 27.816 0 0 0-33.78-11.811 28.5 28.5 0 0 0-16.89 36.5 27.314 27.314 0 0 0 5.787 8.977 45.158 45.158 0 0 0 4.606 4.252.908.908 0 0 1 .354.236.434.434 0 0 0-.118-.354 57.2 57.2 0 0 1-4.37-4.252 30.955 30.955 0 0 1-5.315-9.095 27.35 27.35 0 0 1 38.268-33.9c4.487 2.36 7.086 4.132 11.338 9.565zm-40.75 35.315l-.472.473c6.5 5.905 16.417 8.149 26.693 4.488a27.852 27.852 0 0 0 16.535-35.551 20.433 20.433 0 0 0-4.134-6.5 37.511 37.511 0 0 0-3.071-3.071c-.118 0-.236-.118-.354-.118 0 .118.118.118.236.236.472.591 1.772 1.772 2.835 3.189a24.774 24.774 0 0 1 3.543 6.614 26.505 26.505 0 0 1 1.181 13.819c.236.236.236.473-.118.709a26.792 26.792 0 0 1-17.008 19.724c-8.5 3.071-17.008 1.063-19.961-.59a29.991 29.991 0 0 1-5.905-3.422zm14.882-21.5l1.417.236-6.26-17.6c-.118-.354-.236-.236-.118.118zm2.48.591l18.307 3.189c.354.118.354 0 .118-.118l-17.48-4.252zm-2.48.236l-2.717 4.488c-.118.236 0 .236.236 0l3.78-4.37z" class="cls-2" data-name="Path 959" transform="translate(-203.923 -4530.28)"/>
                <path id="Path_960" d="M876.065 4468.135a28.645 28.645 0 1 1 17.244-36.85 28.766 28.766 0 0 1-17.244 36.85zm-27.4-5.787l.354-.473a36.5 36.5 0 0 1-4.843-5.315c-.118-.118-.236-.236-.354-.236 0 .118.118.236.118.354a30.9 30.9 0 0 0 4.723 5.67zm8.976-45.354l11.575 20.079-2.953 3.662-8.976-23.622c0-.354-.236-.236-.118 0l6.024 23.386-1.89-.354-4.488-22.913a25.9 25.9 0 0 0-15.236 33.189 27.618 27.618 0 0 0 7.677 10.866l11.811-20.315 2.008.354-14.055 20.669c-.354.472-.118.59.236.118l16.772-20.079 1.654 4.37-17.717 15.354a25.361 25.361 0 0 0 25.039 3.9 26.047 26.047 0 0 0 16.772-19.134l-23.386-.354-1.654-4.37 24.8 4.252c.591.118.591-.118.118-.236l-23.15-6.5 1.3-1.535 22.2 7.795a28.866 28.866 0 0 0-1.3-13.346c-4.836-13.11-19.718-19.843-33.065-15.236zm32.6 9.921l.236.236a.434.434 0 0 0-.118-.354 27.815 27.815 0 0 0-33.78-11.811 28.5 28.5 0 0 0-16.89 36.5 29.137 29.137 0 0 0 5.787 9.094 59.63 59.63 0 0 0 4.606 4.134.908.908 0 0 1 .354.236.434.434 0 0 0-.118-.354 56.987 56.987 0 0 1-4.37-4.252 30.951 30.951 0 0 1-5.315-9.094 27.42 27.42 0 0 1 38.268-33.9c4.486 2.36 7.085 4.132 11.337 9.565zm-40.751 35.315l-.472.472c6.5 5.906 16.417 8.268 26.693 4.488a27.769 27.769 0 0 0 16.535-35.433 19.923 19.923 0 0 0-4.134-6.614 23.331 23.331 0 0 0-3.071-2.953c-.118-.118-.236-.236-.354-.236 0 .118.118.236.236.354a27.092 27.092 0 0 1 2.835 3.071 24.786 24.786 0 0 1 3.543 6.614 26.5 26.5 0 0 1 1.181 13.819c.236.236.236.473-.118.708a26.793 26.793 0 0 1-17.008 19.725c-8.5 3.071-17.008 1.063-19.961-.59a29.992 29.992 0 0 1-5.905-3.425zm14.882-21.5l1.417.236-6.26-17.48c-.118-.354-.236-.354-.118 0zm2.48.59l18.307 3.307c.354 0 .354-.118.118-.236l-17.48-4.134zm-2.48.236l-2.717 4.488c-.118.236 0 .236.236 0l3.779-4.37z" class="cls-2" data-name="Path 960" transform="translate(-738.348 -4333.619)"/>
                <path id="Path_961" d="M1482.064 4245.253a28.7 28.7 0 1 1 17.244-36.968 28.923 28.923 0 0 1-17.244 36.968zm-27.4-5.905l.354-.473a36.477 36.477 0 0 1-4.843-5.315c-.118-.118-.236-.118-.354-.236 0 .118.118.236.118.354a30.9 30.9 0 0 0 4.724 5.67zm8.976-45.354l11.575 20.079-2.953 3.662-8.976-23.622c0-.354-.236-.236-.118 0l6.024 23.386-1.89-.354-4.488-22.914a25.9 25.9 0 0 0-15.236 33.189 27.619 27.619 0 0 0 7.677 10.866l11.811-20.315 2.008.354-14.055 20.669c-.354.473-.118.59.236.118l16.772-20.079 1.654 4.37-17.717 15.472a25.62 25.62 0 0 0 25.039 3.78 26.047 26.047 0 0 0 16.772-19.134l-23.386-.354-1.654-4.37 24.8 4.252c.591.118.591-.118.118-.236l-23.15-6.5 1.3-1.535 22.2 7.795a28.865 28.865 0 0 0-1.3-13.346c-4.835-13.107-19.717-19.84-33.064-15.233zm32.6 9.921l.236.236a.434.434 0 0 0-.118-.354 27.764 27.764 0 0 0-33.78-11.693 28.324 28.324 0 0 0-16.89 36.378 29.135 29.135 0 0 0 5.787 9.094 59.63 59.63 0 0 0 4.606 4.134c.236.118.236.236.354.236a.433.433 0 0 0-.118-.354 57.187 57.187 0 0 1-4.37-4.252 30.962 30.962 0 0 1-5.315-9.095 27.42 27.42 0 0 1 38.268-33.9c4.487 2.365 7.086 4.137 11.338 9.57zm-40.748 35.315l-.472.472c6.5 5.906 16.417 8.268 26.693 4.488a27.769 27.769 0 0 0 16.535-35.433 19.929 19.929 0 0 0-4.134-6.614c-.945-.945-2.362-2.362-3.071-2.953-.118-.118-.236-.236-.354-.236 0 .118.118.236.236.354a27.137 27.137 0 0 1 2.835 3.071 24.787 24.787 0 0 1 3.543 6.614 26.5 26.5 0 0 1 1.181 13.819c.236.236.236.473-.118.709a26.793 26.793 0 0 1-17.008 19.724c-8.5 3.071-17.008 1.063-19.961-.472a37.026 37.026 0 0 1-5.907-3.543zm14.882-21.5l1.417.236-6.26-17.48c-.118-.354-.236-.354-.118 0zm2.48.59l18.307 3.307c.354 0 .354-.118.118-.236l-17.48-4.134zm-2.48.236l-2.716 4.488c-.118.236 0 .236.236 0l3.779-4.252z" class="cls-2" data-name="Path 961" transform="translate(-1272.773 -4136.957)"/>
                <path id="Path_962" d="M2088.064 4022.709c-15 5.433-31.654-2.126-37.086-16.89a28.905 28.905 0 0 1 17.244-36.969c15.118-5.433 31.654 2.126 37.087 16.89a28.808 28.808 0 0 1-17.245 36.969zm-27.4-5.787l.354-.591a31.261 31.261 0 0 1-4.843-5.315c-.118-.118-.236-.118-.354-.236 0 .118.118.236.118.354a31.646 31.646 0 0 0 4.724 5.788zm8.977-45.473l11.575 20.079-2.953 3.78-8.976-23.74c0-.354-.236-.236-.118 0l6.023 23.386-1.89-.354-4.488-22.913a25.9 25.9 0 0 0-15.236 33.189 26.794 26.794 0 0 0 7.677 10.866l11.811-20.315 2.008.354-14.055 20.669c-.354.473-.118.591.236.118l16.772-20.079 1.654 4.37-17.717 15.472a26.451 26.451 0 0 0 41.811-15.354l-23.386-.354-1.654-4.37 24.8 4.252c.591.118.591-.118.118-.236l-23.15-6.5 1.3-1.535 22.2 7.8a28.866 28.866 0 0 0-1.3-13.346c-4.835-13.112-19.717-19.726-33.064-15.238zm32.6 9.921l.236.236c0-.118 0-.118-.118-.236a27.68 27.68 0 0 0-33.78-11.811 28.369 28.369 0 0 0-16.89 36.378 27.848 27.848 0 0 0 5.787 9.094 59.68 59.68 0 0 0 4.606 4.134c.236.118.236.236.354.236a.433.433 0 0 0-.118-.354 57.158 57.158 0 0 1-4.37-4.252 30.959 30.959 0 0 1-5.315-9.094 27.54 27.54 0 0 1 16.417-35.315 28.307 28.307 0 0 1 21.85 1.417c4.487 2.363 7.086 4.135 11.338 9.568zm-40.748 35.315l-.472.472c6.5 5.906 16.417 8.268 26.693 4.488a27.768 27.768 0 0 0 16.535-35.433 21.322 21.322 0 0 0-4.134-6.614c-.945-.945-2.48-2.362-3.071-2.953-.118-.118-.236-.236-.354-.236 0 .118.118.236.236.354.472.473 1.771 1.772 2.834 3.071a24.767 24.767 0 0 1 3.543 6.614 26.506 26.506 0 0 1 1.181 13.819c.236.236.236.473-.118.709a26.793 26.793 0 0 1-17.008 19.724c-8.5 3.071-17.008 1.063-19.961-.472a37.014 37.014 0 0 1-5.907-3.542zm14.882-21.5l1.417.236-6.26-17.48c-.118-.354-.236-.354-.118 0zm2.48.591l18.307 3.307c.354 0 .354-.118.118-.118l-17.48-4.252zm-2.48.236l-2.717 4.488c-.118.236 0 .354.236.118l3.78-4.37z" class="cls-2" data-name="Path 962" transform="translate(-1807.198 -3940.752)"/>
                <path id="Path_963" d="M2694.064 3799.71c-15 5.433-31.654-2.126-37.087-16.89a28.906 28.906 0 0 1 17.244-36.969c15.118-5.433 31.654 2.126 37.087 16.89a28.808 28.808 0 0 1-17.244 36.969zm-27.4-5.787l.236-.591a38 38 0 0 1-4.843-5.315c0-.118-.118-.118-.236-.236 0 .118.118.236.118.354a31.646 31.646 0 0 0 4.724 5.787zm8.976-45.473l11.575 20.079-2.953 3.78-8.976-23.74c0-.354-.236-.236-.236.118l6.142 23.268-1.89-.354-4.488-22.8a25.723 25.723 0 0 0-15.236 33.071 26.8 26.8 0 0 0 7.677 10.866l11.811-20.315 2.008.354-14.055 20.669c-.354.473-.118.591.236.118l16.772-20.079 1.654 4.37-17.717 15.472a25.619 25.619 0 0 0 25.039 3.78 25.883 25.883 0 0 0 16.772-19.134l-23.386-.354-1.653-4.37 24.8 4.252c.591.118.591-.118.118-.236l-23.15-6.5 1.3-1.535 22.2 7.913a29.216 29.216 0 0 0-1.3-13.465c-4.836-13.102-19.718-19.716-33.065-15.228zm32.6 9.921l.236.236c0-.118 0-.118-.118-.236a27.681 27.681 0 0 0-33.78-11.811 28.415 28.415 0 0 0-16.89 36.378 27.845 27.845 0 0 0 5.787 9.094 59.68 59.68 0 0 0 4.606 4.134c.236.118.236.236.354.236 0-.118 0-.118-.118-.354a47.66 47.66 0 0 1-4.37-4.134 30.922 30.922 0 0 1-5.315-9.213 27.54 27.54 0 0 1 16.417-35.315 28.309 28.309 0 0 1 21.85 1.417c4.488 2.363 7.087 4.253 11.339 9.568zm-40.748 35.315l-.472.472c6.5 5.906 16.417 8.268 26.693 4.488a27.723 27.723 0 0 0 16.535-35.433 21.328 21.328 0 0 0-4.134-6.614c-.945-.945-2.48-2.362-3.071-2.953-.118-.118-.236-.118-.354-.236 0 .118.118.236.236.354.472.473 1.771 1.772 2.834 3.071a23.871 23.871 0 0 1 3.543 6.732 25.97 25.97 0 0 1 1.181 13.7c.236.236.236.472-.118.708a26.793 26.793 0 0 1-17.008 19.724c-8.5 3.071-17.008 1.063-19.961-.472a37 37 0 0 1-5.906-3.541zm14.882-21.5l1.417.236-6.26-17.48c-.118-.354-.236-.354-.118 0zm2.48.591l18.307 3.307c.354 0 .354-.118.118-.118l-17.48-4.252zm-2.48.236l-2.717 4.488c-.118.236 0 .354.236.118l3.78-4.37z" class="cls-2" data-name="Path 963" transform="translate(-2341.624 -3744.09)"/>
            </g>
            <g id="Group_70" data-name="Group 70" transform="translate(0 513.902)">
                <path id="Path_964" d="M0 5467.868a12.386 12.386 0 0 1 1.181-.472 28.766 28.766 0 0 1 37.087 16.89 23.781 23.781 0 0 1 .827 2.717h-1.182a17.2 17.2 0 0 0-.827-2.244 18.172 18.172 0 0 0-4.134-6.614 34.829 34.829 0 0 0-3.071-2.953c-.118-.118-.118-.236-.354-.236.118.118.118.236.236.354a19.231 19.231 0 0 1 2.835 3.071 24.857 24.857 0 0 1 3.661 6.614 18.228 18.228 0 0 1 .591 2.005h-.709c-.118-.591-.354-1.181-.472-1.772-4.961-13.11-19.843-19.842-33.189-15.236L12.4 5487H8.622l-6.378-16.89c-.118-.354-.354-.236-.236 0l4.37 16.89H4.961l-3.307-16.77c-.591.236-1.063.473-1.654.708v-1.3c.591-.236 1.3-.473 1.89-.709a27.3 27.3 0 0 1 21.85 1.417c4.606 2.362 7.2 4.134 11.457 9.567a.254.254 0 0 0 .236.236c0-.118-.118-.236-.118-.354a28.058 28.058 0 0 0-33.9-11.811 7.223 7.223 0 0 1-1.417.591zM8.15 5487h-.827l-3.071-10.51c-.118-.354 0-.354.118 0z" class="cls-2" data-name="Path 964" transform="translate(0 -5333.935)"/>
                <path id="Path_965" d="M461.517 5290.34a29.9 29.9 0 0 1-5.433-8.976 29.018 29.018 0 0 1 54.449-20.079 28.548 28.548 0 0 1-5.787 29.055h-1.417a27.559 27.559 0 0 0 6.024-28.583 18.172 18.172 0 0 0-4.134-6.614 34.817 34.817 0 0 0-3.071-2.953c-.118-.118-.118-.236-.354-.236.118.118.118.236.236.354a19.223 19.223 0 0 1 2.835 3.071 24.868 24.868 0 0 1 3.661 6.614 27.791 27.791 0 0 1 1.181 13.819c.236.236.118.473-.118.708a27.767 27.767 0 0 1-7.677 13.819h-.945a24.9 24.9 0 0 0 7.913-13.819l-23.386-.354-1.654-4.37 24.8 4.252c.591.118.709-.118.118-.236l-23.031-6.5 1.3-1.535 22.087 7.795a27.3 27.3 0 0 0-1.181-13.346c-4.961-13.11-19.842-19.843-33.189-15.236l11.693 20.079-3.071 3.662-8.858-23.622c-.118-.354-.354-.236-.236 0l6.142 23.386-2.008-.354-4.488-22.913a25.74 25.74 0 0 0-15.118 33.189 24.881 24.881 0 0 0 6.614 9.921h-.945a30.078 30.078 0 0 1-3.189-3.779c-.118-.118-.236-.118-.236-.236a.434.434 0 0 0 .118.354 24.345 24.345 0 0 0 2.717 3.661h-.827a28.733 28.733 0 0 1-5.2-9.094 27.384 27.384 0 0 1 16.3-35.315 28.307 28.307 0 0 1 21.85 1.417c4.606 2.362 7.2 4.134 11.457 9.567a.254.254 0 0 0 .236.236c0-.118-.118-.236-.118-.354a27.869 27.869 0 0 0-33.9-11.693 28.265 28.265 0 0 0-16.772 36.378 26.224 26.224 0 0 0 5.551 8.858zm7.323 0h-.94l15.236-18.307 1.654 4.37zm-1.535 0h-.354l11.22-19.37 2.008.354zm14.291-19.606l1.3.236-6.26-17.48c-.118-.354-.236-.354-.118 0zm2.362.59l18.425 3.307c.354 0 .354-.118 0-.236l-17.48-4.134zm-2.48.236l-2.6 4.488c-.236.236-.118.236.118 0l3.78-4.252z" class="cls-2" data-name="Path 965" transform="translate(-400.691 -5137.274)"/>
                <path id="Path_966" d="M1099.171 5075.71a28.68 28.68 0 1 1-19.724-53.858c15-5.433 31.654 2.126 37.087 16.89a28.967 28.967 0 0 1-17.363 36.968zm-27.4-5.788l.354-.59a31.281 31.281 0 0 1-4.843-5.315c-.118-.118-.236-.118-.236-.236a.433.433 0 0 0 .118.354 26.823 26.823 0 0 0 4.605 5.787zm8.976-45.472l11.693 20.079-3.071 3.779-8.858-23.74c-.118-.354-.354-.236-.236 0l6.142 23.386-2.008-.354-4.488-22.914a25.741 25.741 0 0 0-15.118 33.189 26.8 26.8 0 0 0 7.677 10.866l11.693-20.315 2.008.354-14.055 20.669c-.354.472-.118.59.354.118l16.654-20.079 1.653 4.37-17.6 15.473a26.326 26.326 0 0 0 41.693-15.354l-23.386-.354-1.654-4.37 24.8 4.252c.591.118.709-.118.118-.236l-23.031-6.5 1.3-1.536 22.087 7.914a27.657 27.657 0 0 0-1.181-13.465c-4.959-13.106-19.841-19.72-33.187-15.232zm32.717 9.921a.254.254 0 0 0 .236.236c0-.118-.118-.118-.118-.236a27.785 27.785 0 0 0-33.9-11.811 28.31 28.31 0 0 0-16.772 36.378 27.567 27.567 0 0 0 5.669 9.095 43.465 43.465 0 0 0 4.724 4.134c.118.118.118.236.354.236-.118-.118-.118-.236-.236-.354a57.211 57.211 0 0 1-4.37-4.252 28.74 28.74 0 0 1-5.2-9.094 27.385 27.385 0 0 1 16.3-35.315 28.31 28.31 0 0 1 21.85 1.417c4.611 2.362 7.209 4.133 11.461 9.566zm-40.866 35.315l-.472.473c6.5 5.905 16.535 8.268 26.693 4.488a27.626 27.626 0 0 0 16.536-35.433c-1.181-3.543-3.071-5.2-4.134-6.614a34.738 34.738 0 0 0-3.071-2.953c-.118-.118-.118-.236-.354-.236.118.118.118.236.236.354a26.5 26.5 0 0 1 2.835 3.071 24.851 24.851 0 0 1 3.661 6.614 27.789 27.789 0 0 1 1.181 13.819c.236.236.118.472-.118.708a26.947 26.947 0 0 1-17.126 19.725c-8.5 3.071-16.89 1.063-19.961-.473a37.026 37.026 0 0 1-5.904-3.543zm15-21.5l1.3.236-6.26-17.48c-.118-.354-.236-.354-.118 0zm2.362.591l18.425 3.307c.354 0 .354-.118 0-.118l-17.48-4.252zm-2.48.236l-2.6 4.488c-.236.236-.118.354.118.118l3.78-4.37z" class="cls-2" data-name="Path 966" transform="translate(-935.116 -4941.068)"/>
                <path id="Path_967" d="M1705.171 4852.709a28.68 28.68 0 1 1-19.724-53.858c15-5.433 31.654 2.126 37.087 16.89a28.966 28.966 0 0 1-17.363 36.968zm-27.4-5.787l.354-.591a27.375 27.375 0 0 1-4.843-5.315c-.118-.118-.236-.118-.236-.236v.354a31.655 31.655 0 0 0 4.723 5.788zm8.976-45.473l11.693 20.079-3.071 3.78-8.858-23.74c-.118-.354-.354-.236-.236.118l6.142 23.268-2.008-.354-4.488-22.8a25.567 25.567 0 0 0-15.118 33.071 26.8 26.8 0 0 0 7.677 10.866l11.693-20.315 2.008.354-14.055 20.669c-.354.473-.118.591.354.118l16.654-20.079 1.654 4.37-17.6 15.472a26.326 26.326 0 0 0 41.693-15.354l-23.386-.354-1.654-4.37 24.8 4.252c.59.118.709-.118.118-.236l-23.031-6.5 1.3-1.535 22.087 7.913a27.185 27.185 0 0 0-1.181-13.346c-4.96-13.22-19.842-19.835-33.188-15.346zm32.717 9.921a.254.254 0 0 0 .236.236c0-.118-.118-.118-.118-.236a27.785 27.785 0 0 0-33.9-11.811 28.354 28.354 0 0 0-16.772 36.378 27.556 27.556 0 0 0 5.669 9.094 43.541 43.541 0 0 0 4.724 4.134c.118.118.118.236.354.236a.91.91 0 0 1-.236-.354 47.7 47.7 0 0 1-4.37-4.134 31.148 31.148 0 0 1-5.2-9.213 27.384 27.384 0 0 1 16.3-35.315 28.309 28.309 0 0 1 21.85 1.417c4.611 2.365 7.209 4.254 11.461 9.569zm-40.866 35.315l-.473.472c6.5 5.906 16.536 8.268 26.693 4.488a27.626 27.626 0 0 0 16.535-35.433c-1.181-3.425-3.071-5.2-4.134-6.614a34.765 34.765 0 0 0-3.071-2.953.909.909 0 0 0-.354-.236c.118.118.118.236.236.354a26.542 26.542 0 0 1 2.835 3.071 23.93 23.93 0 0 1 3.661 6.732 27.222 27.222 0 0 1 1.181 13.7c.236.236.118.473-.118.709a26.947 26.947 0 0 1-17.126 19.724c-8.5 3.071-16.89 1.063-19.961-.472a37.021 37.021 0 0 1-5.902-3.541zm15-21.5l1.3.236-6.26-17.48c-.118-.354-.236-.354-.118 0zm2.362.59l18.425 3.307c.236 0 .354-.118 0-.118l-17.48-4.252zm-2.48.236l-2.6 4.488c-.236.236-.118.354.118.118l3.78-4.37z" class="cls-2" data-name="Path 967" transform="translate(-1469.541 -4744.407)"/>
                <path id="Path_968" d="M2311.171 4630.126a28.626 28.626 0 1 1 17.362-36.969 28.909 28.909 0 0 1-17.362 36.969zm-27.4-5.788l.354-.59a31.131 31.131 0 0 1-4.843-5.2c-.118-.118-.236-.236-.236-.354a.434.434 0 0 0 .118.354 24.25 24.25 0 0 0 4.605 5.79zm8.976-45.472l11.693 20.079-3.071 3.78-8.858-23.74c-.118-.236-.354-.236-.236.118l6.142 23.268-2.008-.354-4.488-22.8a25.568 25.568 0 0 0-15.118 33.071 26.79 26.79 0 0 0 7.677 10.866l11.693-20.315 2.008.354-14.055 20.669c-.354.472-.118.59.354.118l16.654-20.079 1.654 4.488-17.6 15.354a26.326 26.326 0 0 0 41.693-15.354l-23.386-.354-1.653-4.37 24.8 4.252c.591.118.709-.118.118-.236l-23.031-6.5 1.3-1.536 22.086 7.914a27.184 27.184 0 0 0-1.181-13.347c-4.96-13.22-19.842-19.834-33.188-15.346zm32.717 9.921a.254.254 0 0 0 .236.236c0-.118-.118-.118-.118-.236a27.785 27.785 0 0 0-33.9-11.811 28.354 28.354 0 0 0-16.771 36.378 27.562 27.562 0 0 0 5.669 9.094 46.164 46.164 0 0 0 4.724 4.252c.118 0 .118.118.354.118l-.236-.236c-.118-.118-2.717-2.48-4.37-4.252a31.14 31.14 0 0 1-5.2-9.212 27.428 27.428 0 0 1 16.3-35.315 28.307 28.307 0 0 1 21.85 1.417 31.176 31.176 0 0 1 11.46 9.567zM2284.6 4624.1l-.472.472c6.5 5.906 16.535 8.268 26.693 4.488a27.626 27.626 0 0 0 16.535-35.433 18.559 18.559 0 0 0-4.134-6.5 25 25 0 0 0-3.071-3.071.905.905 0 0 0-.354-.236c.118.118.118.236.236.354a26.526 26.526 0 0 1 2.834 3.071 23.91 23.91 0 0 1 3.661 6.732 27.33 27.33 0 0 1 1.181 13.7c.236.354.118.472-.118.708a26.749 26.749 0 0 1-17.126 19.725c-8.5 3.189-16.89 1.063-19.96-.473a37.058 37.058 0 0 1-5.905-3.537zm15-21.5l1.3.236-6.26-17.48c-.118-.354-.236-.354-.118 0zm2.362.59l18.425 3.307c.236 0 .354-.118 0-.118l-17.48-4.252zm-2.48.236l-2.6 4.488c-.236.236-.118.354.118.118l3.78-4.37z" class="cls-2" data-name="Path 968" transform="translate(-2003.966 -4548.162)"/>
                <path id="Path_969" d="M2913.391 4407.727a28.58 28.58 0 0 1-15.945-54.8 28.524 28.524 0 0 1 15.945-1.3v.709a28.872 28.872 0 0 0-15.709 1.181 28.354 28.354 0 0 0-16.771 36.378 27.562 27.562 0 0 0 5.669 9.094 46.164 46.164 0 0 0 4.724 4.252c.118 0 .118.118.354.118l-.236-.236c-.118-.118-2.717-2.48-4.37-4.252a29.622 29.622 0 0 1-5.2-9.212 27.473 27.473 0 0 1 16.3-35.315 28.052 28.052 0 0 1 15.236-.945v1.3a26.965 26.965 0 0 0-14.646.708l11.693 20.2-3.071 3.661-8.858-23.74c-.118-.236-.354-.236-.236.118l6.142 23.268-2.008-.354-4.488-22.8a25.568 25.568 0 0 0-15.118 33.071 28.022 28.022 0 0 0 7.677 10.984l11.693-20.433 2.008.354-14.055 20.669c-.354.59-.118.59.354.118l16.654-20.079 1.654 4.488-17.6 15.354a25.543 25.543 0 0 0 22.2 4.724v.591c-7.441 1.653-14.291 0-16.89-1.417a49.369 49.369 0 0 1-5.906-3.425l-.473.354a25.691 25.691 0 0 0 23.268 5.551zm0-30.708v1.771l-3.661-1.063 1.3-1.536zm0 2.716v.945l-5.433-.945.945-1.063zm0 1.417v3.543h-3.9l-1.654-4.488zm-23.622 19.724l.354-.59a31.139 31.139 0 0 1-4.842-5.2c-.118-.118-.236-.236-.236-.354v.354a28.1 28.1 0 0 0 4.724 5.79zm15.827-21.732l1.3.236-6.26-17.48c-.118-.354-.236-.354-.118 0zm-.118.827l-2.6 4.488c-.236.236-.118.354.118.118l3.78-4.37z" class="cls-2" data-name="Path 969" transform="translate(-2538.391 -4351.038)"/>
            </g>
            <g id="Group_71" data-name="Group 71" transform="translate(169.252 594.094)">
                <path id="Path_970" d="M1433 5629.606c.472-.118.945-.354 1.417-.472a29.029 29.029 0 0 1 21.614.472h-1.654a28.338 28.338 0 0 0-19.488 0zm17.362 0h-12.047a27.636 27.636 0 0 1 12.047 0z" class="cls-2" data-name="Path 970" transform="translate(-1433 -5556.733)"/>
                <path id="Path_971" d="M1890 5433.206a28.937 28.937 0 0 1 57.874 0h-1.181a30.184 30.184 0 0 0-1.654-9.566 18.467 18.467 0 0 0-4.252-6.5 38.191 38.191 0 0 0-2.953-3.071.914.914 0 0 1-.354-.236c0 .118 0 .236.236.354.472.473 1.653 1.772 2.717 3.071a23.93 23.93 0 0 1 3.661 6.732 27.425 27.425 0 0 1 1.535 9.212h-.591a26.089 26.089 0 0 0-1.535-8.976c-4.843-13.229-19.724-19.843-33.071-15.354l11.575 20.2-3.071 3.662-8.858-23.74c-.118-.236-.236-.236-.236.118l6.142 23.268-2.008-.354-4.488-22.8a25.6 25.6 0 0 0-16.772 23.976h-.945a27.413 27.413 0 0 1 17.953-25.394 28.268 28.268 0 0 1 21.85 1.417 31.176 31.176 0 0 1 11.457 9.567c.118.118.118.236.236.354a.434.434 0 0 0-.118-.354 27.681 27.681 0 0 0-33.78-11.811 28.414 28.414 0 0 0-18.661 26.22zm42.638 0h-4.138l-7.2-2.008 1.3-1.535zm-7.559 0h-5.433l.827-1.062zm-9.331 0h-2.126l.236-.354 1.89.354zm1.417-.59l1.417.236-6.378-17.48c-.118-.354-.236-.354-.118 0z" class="cls-2" data-name="Path 971" transform="translate(-1836.024 -5360.333)"/>
                <path id="Path_972" d="M2513.1 5236.545a27.752 27.752 0 0 1-15.472-16.3 28.943 28.943 0 1 1 38.386 16.3h-3.071a4.228 4.228 0 0 0 1.3-.473 27.687 27.687 0 0 0 16.654-35.433 18.473 18.473 0 0 0-4.252-6.5 38.2 38.2 0 0 0-2.953-3.071.908.908 0 0 1-.354-.236c0 .236 0 .236.236.354.472.472 1.654 1.771 2.717 3.071a21.281 21.281 0 0 1 3.661 6.732 27.682 27.682 0 0 1 1.181 13.819c.236.236.236.354-.118.59a26.52 26.52 0 0 1-17.126 19.725 25.887 25.887 0 0 1-5.788 1.417h-7.086a21.981 21.981 0 0 1-7.087-1.89 46.9 46.9 0 0 1-5.787-3.425l-.472.354a22.286 22.286 0 0 0 8.386 4.961zm-5.905-5.2l.354-.59a31.141 31.141 0 0 1-4.843-5.2c-.118-.118-.118-.236-.236-.236 0 .118 0 .118.118.236a32 32 0 0 0 4.604 5.793zm9.094-45.472l11.575 20.2-3.071 3.661-8.858-23.74c-.118-.236-.236-.236-.236.118l6.142 23.268-2.008-.236-4.488-22.914a25.664 25.664 0 0 0-15.118 33.071 28.022 28.022 0 0 0 7.677 10.984l11.811-20.433 1.89.354-13.937 20.669c-.354.59-.236.59.236.236l16.772-20.2 1.535 4.488-17.6 15.354a26.2 26.2 0 0 0 41.689-15.353l-23.386-.236-1.535-4.488 24.8 4.252c.472.118.591 0 0-.236l-23.031-6.5 1.3-1.536 22.087 7.914a27.189 27.189 0 0 0-1.181-13.347c-4.839-13.223-19.721-19.836-33.068-15.348zm32.6 9.921c.118.118.118.236.236.354a.434.434 0 0 0-.118-.354 27.68 27.68 0 0 0-33.78-11.811 28.4 28.4 0 0 0-16.89 36.5 30.515 30.515 0 0 0 5.669 8.977 63.221 63.221 0 0 0 4.724 4.252.433.433 0 0 0 .354.118c0-.118-.118-.118-.236-.236s-2.6-2.48-4.37-4.252a30.2 30.2 0 0 1-5.2-9.094 27.275 27.275 0 0 1 38.15-33.9c4.606 2.362 7.205 4.133 11.457 9.452zm-25.866 13.819l1.417.236-6.378-17.48c-.118-.354-.236-.354-.118 0zm2.48.59l18.307 3.307c.354.118.354 0 0-.118l-17.48-4.252zm-2.6.236l-2.6 4.488c-.118.354 0 .354.118.118l3.78-4.37z" class="cls-2" data-name="Path 972" transform="translate(-2370.302 -5163.67)"/>
                <path id="Path_973" d="M3110.674 5070.866a29.446 29.446 0 0 1-6.85-10.63 28.5 28.5 0 0 1 6.85-30.236v.945a28.63 28.63 0 0 0-6.142 29.527 30.516 30.516 0 0 0 5.669 8.977l.472.472zm0-38.386v1.536a25.558 25.558 0 0 0-4.252 25.275 25.883 25.883 0 0 0 4.252 7.441v.945l-1.772-2.126c-.118-.118-.118-.236-.236-.236 0 .118 0 .118.118.236a13.994 13.994 0 0 0 1.89 2.717v.945a29.3 29.3 0 0 1-5.2-8.977 27.36 27.36 0 0 1 5.2-27.756z" class="cls-2" data-name="Path 973" transform="translate(-2904.926 -5030)"/>
            </g>
        </g>
    </g>
</svg>
