<svg xmlns="http://www.w3.org/2000/svg" id="calendar-icon_1_" data-name="calendar-icon(1)" viewBox="0 0 16 16">
    <defs>
        <style>
            .cls-1{fill:#7e7e7e}
        </style>
    </defs>
    <g id="_x32_22._Calender">
        <g id="Group_1" data-name="Group 1">
            <path id="Path_2" d="M9.263 8.421a.842.842 0 0 0 0 1.685.842.842 0 0 0 0-1.685zm-2.526-.842a.842.842 0 1 0-.842-.842.842.842 0 0 0 .842.842zm2.526-1.684a.842.842 0 1 0 0 1.684.842.842 0 1 0 0-1.684zm.842-4.211h-4.21v1.684h4.211zm1.685 5.895a.842.842 0 1 0-.842-.842.843.843 0 0 0 .842.842zm0 2.526a.842.842 0 1 0-.842-.842.843.843 0 0 0 .842.842zm-5.053 0a.842.842 0 1 0-.842-.842.842.842 0 0 0 .842.842zm-2.526 2.527a.842.842 0 1 0-.842-.842.843.843 0 0 0 .842.842zM14.316 1.684h-.842v1.684h.842v10.948H1.684V3.368h.842V1.684h-.842A1.684 1.684 0 0 0 0 3.368v10.947A1.684 1.684 0 0 0 1.684 16h12.632A1.684 1.684 0 0 0 16 14.315V3.368a1.684 1.684 0 0 0-1.684-1.684zM4.211 10.105a.842.842 0 1 0-.842-.842.843.843 0 0 0 .842.842zm0-2.526a.842.842 0 1 0-.842-.842.842.842 0 0 0 .842.842zm2.526 5.053a.842.842 0 1 0-.842-.842.843.843 0 0 0 .842.842zM4.211 3.368a.842.842 0 0 0 .842-.842V.842a.842.842 0 1 0-1.684 0v1.684a.842.842 0 0 0 .842.842zm7.579 0a.843.843 0 0 0 .842-.842V.842a.842.842 0 1 0-1.684 0v1.684a.843.843 0 0 0 .842.842z" class="cls-1" data-name="Path 2"/>
        </g>
    </g>
</svg>
