<svg xmlns="http://www.w3.org/2000/svg" viewBox="0 0 185.949 200.001">
    <defs>
        <style>
            .cls-1{fill:#d56da8}.cls-1,.cls-10,.cls-11,.cls-12,.cls-13,.cls-14,.cls-15,.cls-16,.cls-17,.cls-2,.cls-3,.cls-4,.cls-5,.cls-6,.cls-7,.cls-8,.cls-9{fill-rule:evenodd}.cls-2{fill:#eab6d4}.cls-3{fill:#01a1bd}.cls-4{fill:#ffb969}.cls-5{fill:#80d0de}.cls-6{fill:#b3e5dc}.cls-7{fill:#ffdcb4}.cls-8{fill:#cc3d3d}.cls-9{fill:#e69e9e}.cls-10{fill:#e6e6e6}.cls-11{fill:#fbc9be}.cls-12{fill:#b32b2b}.cls-13{fill:#f0b7aa}.cls-14{fill:#c9897b}.cls-15,.cls-19{fill:#fff}.cls-16{fill:#67cbb9}.cls-17{fill:#ba6e2b}.cls-18{fill:#4d4d4d}
        </style>
    </defs>
    <g id="fun" transform="translate(-429 -291)">
        <g id="_2473818854336" transform="translate(429 291)">
            <path id="Path_548" d="M8305.766 4006.516a15.758 15.758 0 1 0-15.766-15.751 15.787 15.787 0 0 0 15.766 15.751z" class="cls-1" data-name="Path 548" transform="translate(-8185.597 -3926.073)"/>
            <path id="Path_549" d="M5275.765 3175.516a15.758 15.758 0 1 0-15.765-15.751 15.785 15.785 0 0 0 15.765 15.751z" class="cls-1" data-name="Path 549" transform="translate(-5195.838 -3106.11)"/>
            <path id="Path_550" d="M7456.155 3823.311a11.156 11.156 0 1 0-11.155-11.155 11.172 11.172 0 0 0 11.155 11.155z" class="cls-2" data-name="Path 550" transform="translate(-7351.819 -3754.384)"/>
            <path id="Path_551" d="M8520.105 2161.235a14.117 14.117 0 1 0-14.105-14.118 14.136 14.136 0 0 0 14.105 14.118z" class="cls-3" data-name="Path 551" transform="translate(-8398.727 -2108.537)"/>
            <path id="Path_552" d="M3753.118 3123.222a14.111 14.111 0 1 0-14.118-14.1 14.131 14.131 0 0 0 14.118 14.1z" class="cls-3" data-name="Path 552" transform="translate(-3695.039 -3057.76)"/>
            <path id="Path_553" d="M6835.117 5166.235a14.118 14.118 0 1 0-14.117-14.116 14.152 14.152 0 0 0 14.117 14.116z" class="cls-3" data-name="Path 553" transform="translate(-6736.106 -5073.628)"/>
            <path id="Path_554" d="M2558.118 3885.222A14.111 14.111 0 1 0 2544 3871.1a14.145 14.145 0 0 0 14.118 14.122z" class="cls-4" data-name="Path 554" transform="translate(-2515.911 -3809.641)"/>
            <path id="Path_555" d="M5536.118 1616.235a14.118 14.118 0 1 0-14.118-14.117 14.146 14.146 0 0 0 14.118 14.117z" class="cls-4" data-name="Path 555" transform="translate(-5454.359 -1570.775)"/>
            <path id="Path_556" d="M9606.1 3659.235a14.118 14.118 0 1 0-14.1-14.118 14.137 14.137 0 0 0 14.1 14.118z" class="cls-4" data-name="Path 556" transform="translate(-9470.303 -3586.642)"/>
            <path id="Path_557" d="M5207.118 5356.234a14.117 14.117 0 1 0-14.118-14.117 14.136 14.136 0 0 0 14.118 14.117z" class="cls-4" data-name="Path 557" transform="translate(-5129.728 -5261.104)"/>
            <path id="Path_558" d="M4720.687 2616.358a8.679 8.679 0 1 0-8.687-8.672 8.7 8.7 0 0 0 8.687 8.672z" class="cls-5" data-name="Path 558" transform="translate(-4655.116 -2568.348)"/>
            <path id="Path_559" d="M1918.673 3945.358a8.679 8.679 0 1 0-8.672-8.685 8.706 8.706 0 0 0 8.672 8.685z" class="cls-6" data-name="Path 559" transform="translate(-1890.331 -3879.698)"/>
            <path id="Path_560" d="M8664.685 1474.371a8.686 8.686 0 1 0-8.686-8.686 8.706 8.706 0 0 0 8.686 8.686z" class="cls-6" data-name="Path 560" transform="translate(-8546.733 -1441.514)"/>
            <path id="Path_561" d="M10865.672 5751.358a8.679 8.679 0 1 0-8.672-8.685 8.705 8.705 0 0 0 8.672 8.685z" class="cls-7" data-name="Path 561" transform="translate(-10718.503 -5661.711)"/>
            <path id="Path_562" d="M5717.673 1163.358a8.679 8.679 0 1 0-8.672-8.673 8.695 8.695 0 0 0 8.672 8.673z" class="cls-7" data-name="Path 562" transform="translate(-5638.876 -1134.645)"/>
            <path id="Path_563" d="M4367.686 5938.358a8.679 8.679 0 1 0-8.686-8.687 8.707 8.707 0 0 0 8.686 8.687z" class="cls-7" data-name="Path 563" transform="translate(-4306.805 -5846.229)"/>
            <path id="Path_564" d="M10191.686 2358.372a8.686 8.686 0 1 0-8.685-8.686 8.694 8.694 0 0 0 8.685 8.686z" class="cls-7" data-name="Path 564" transform="translate(-10053.456 -2313.774)"/>
            <path id="Path_565" d="M6468.157 4429.313a11.156 11.156 0 1 0-11.157-11.156 11.18 11.18 0 0 0 11.157 11.156z" class="cls-5" data-name="Path 565" transform="translate(-6376.941 -4352.336)"/>
            <path id="Path_566" d="M9581.156 5251.311a11.156 11.156 0 1 0-11.156-11.156 11.179 11.179 0 0 0 11.156 11.156z" class="cls-6" data-name="Path 566" transform="translate(-9448.596 -5163.418)"/>
            <path id="Path_567" d="M9758.728 5429.456a4.728 4.728 0 1 0-4.729-4.727 4.74 4.74 0 0 0 4.729 4.727z" class="cls-8" data-name="Path 567" transform="translate(-9630.152 -5351.881)"/>
            <path id="Path_568" d="M7101.655 2815.324a9.662 9.662 0 1 0-9.654-9.656 9.682 9.682 0 0 0 9.654 9.656z" class="cls-7" data-name="Path 568" transform="translate(-7003.507 -2762.731)"/>
            <path id="Path_569" d="M6734.157 6858.311a11.155 11.155 0 1 0-11.157-11.156 11.171 11.171 0 0 0 11.157 11.156z" class="cls-9" data-name="Path 569" transform="translate(-6639.408 -6749.077)"/>
            <path id="Path_570" d="M3647.156 5000.325a11.163 11.163 0 1 0-11.156-11.157 11.188 11.188 0 0 0 11.156 11.157z" class="cls-2" data-name="Path 570" transform="translate(-3593.407 -4915.752)"/>
            <path id="Path_571" d="M2033.7 14636.605c13.6 0 24.69-2.154 24.69-4.811 0-2.641-11.09-4.795-24.69-4.795s-24.7 2.154-24.7 4.795c0 2.657 11.1 4.811 24.7 4.811z" class="cls-10" data-name="Path 571" transform="translate(-1988.016 -14436.604)"/>
            <path id="Path_572" d="M10541.16 8197.336l10.028-5.764c2.124-1.222 3.757 1.248 1.792 2.723l-8.95 6.773c-3.188 2.406-6.137-1.858-2.87-3.732z" class="cls-11" data-name="Path 572" transform="translate(-10405.453 -8086.321)"/>
            <path id="Path_573" d="M11343.726 7547.289l-7.4 10.054a1.644 1.644 0 1 1-2.522-2.073l8.34-9.27z" class="cls-11" data-name="Path 573" transform="translate(-11188.47 -7449.647)"/>
            <path id="Path_574" d="M11934 7587.677l.345-.678 1.489 1.036-.213.451z" class="cls-11" data-name="Path 574" transform="translate(-11781.198 -7490.103)"/>
            <path id="Path_575" d="M11957.527 7290.578c.811.146 2.484-1.448 3.1-2.829.636-1.448-.731-.319-1-.917a1.09 1.09 0 0 0-1.01-.61c-.359.013-.094-1.767-.891-.425-1.01 1.713-1.527 3.8-.638 4.568z" class="cls-11" data-name="Path 575" transform="translate(-11803.532 -7192.405)"/>
            <path id="Path_576" d="M11938.963 7254.16c.622.054.583-5.153-.042-5.207s-.598 5.14.042 5.207z" class="cls-11" data-name="Path 576" transform="translate(-11785.604 -7156.545)"/>
            <path id="Path_577" d="M12147.148 7245.975c-.308-.16-.066-1.262.542-2.471s1.343-2.072 1.66-1.912.067 1.262-.542 2.47-1.355 2.072-1.66 1.913z" class="cls-11" data-name="Path 577" transform="translate(-11991.385 -7149.263)"/>
            <path id="Path_578" d="M12089.15 7176.974c-.306-.159-.068-1.262.544-2.47s1.341-2.073 1.66-1.913.066 1.261-.544 2.471-1.355 2.071-1.66 1.912z" class="cls-11" data-name="Path 578" transform="translate(-11934.159 -7081.179)"/>
            <path id="Path_579" d="M11955.9 7179.281c-.3-.159.052-1.5.8-3s1.621-2.59 1.926-2.431-.039 1.5-.8 2.988-1.621 2.589-1.926 2.443z" class="cls-11" data-name="Path 579" transform="translate(-11802.7 -7082.424)"/>
            <path id="Path_580" d="M8885.974 7271.793c6.309-2.483 12.789 2.63 11.821 9.842-.771 5.71-10.546 11.235-21.8 7.688 5.265-2.416.47-13.784 9.979-17.53z" class="cls-8" data-name="Path 580" transform="translate(-8763.813 -7178.456)"/>
            <path id="Path_581" d="M8357.384 11333.92l6.918-.756c-.025-.146-.067-.293-.106-.439-1.314-4.395-7.238-.265-6.812 1.195z" class="cls-11" data-name="Path 581" transform="translate(-8252.064 -11184.139)"/>
            <path id="Path_582" d="M8062.985 11198.98c-.425-1.461 5.5-5.59 6.813-1.2l-1.129-3.785-9.669 2.869.2.664c.372 1.228 1.779 1.785 3.785 1.452z" class="cls-3" data-name="Path 582" transform="translate(-7957.665 -11049.197)"/>
            <path id="Path_583" d="M8906.661 8903.375l-11.5 1.235c-2.431.267-2.311 3.213.146 3.255l11.235.211c3.983.079 3.858-5.099.119-4.701z" class="cls-11" data-name="Path 583" transform="translate(-8780.981 -8788.975)"/>
            <path id="Path_584" d="M9149.8 12503.627l4.117-5.6c-.122-.081-.254-.146-.4-.228-4.117-2.009-5.091 5.164-3.717 5.828z" class="cls-11" data-name="Path 584" transform="translate(-9033.397 -12335.331)"/>
            <path id="Path_585" d="M8877.25 12401.557c-1.37-.664-.4-7.836 3.718-5.83l-3.546-1.727-4.423 9.072.624.291c1.143.573 2.523-.092 3.627-1.806z" class="cls-3" data-name="Path 585" transform="translate(-8760.852 -12233.263)"/>
            <path id="Path_586" d="M9368.161 9608.994c2.311 12.921 4.184 32.047.094 36.124-4.105 4.077-19.5 4.17-19.5 4.17l-.756-4.263 17.227-3.2s-8.938-21.7-4.834-27.227c4.728-6.347 6.441-9.535 7.769-5.604z" class="cls-12" data-name="Path 586" transform="translate(-9229.543 -9483.543)"/>
            <path id="Path_587" d="M8643.33 9620.524c-2.031 12.964-6.48 31.662-11.687 34.186S8612 9644.417 8612 9644.417l2.869-3.066 14.994 9.257s-1.381-23.428 4.3-27.319c6.525-4.464 9.194-6.92 9.167-2.765z" class="cls-8" data-name="Path 587" transform="translate(-8503.319 -9494.516)"/>
            <path id="Path_588" d="M10200.374 9608.939c.093 1.328-.6 3.31-.532 4.743l-9.841-.73c4.648-6.959 9.509-7.93 10.373-4.013z" class="cls-11" data-name="Path 588" transform="translate(-10060.363 -9482.931)"/>
            <path id="Path_589" d="M9693.59 8667.5c4.383.651 9.363.212 12.605-1.475.133-6.028-2.02-12.736-5.459-16.031l-12.736 3.592c3.652 2.471 6.732 10.425 5.59 13.914z" class="cls-1" data-name="Path 589" transform="translate(-9565.03 -8538.982)"/>
            <path id="Path_590" d="M9949 8309.7l3.467-1.7 2.522 5.152c1.21 2.471-2.481 3.691-3.467 1.688z" class="cls-13" data-name="Path 590" transform="translate(-9822.564 -8201.527)"/>
            <path id="Path_591" d="M8109 8809.951l11.9 3.8a1.644 1.644 0 1 0 .824-3.159l-12.206-2.592z" class="cls-11" data-name="Path 591" transform="translate(-8007 -8694.887)"/>
            <path id="Path_592" d="M9279.864 7260.165c11.155-4.834 14.515 13.92 7.371 17.013s-18.513-12.191-7.371-17.013z" class="cls-11" data-name="Path 592" transform="translate(-9157.703 -7166.827)"/>
            <path id="Path_593" d="M9261.431 7253.349c-3.174 1.168-3.745 4.754-2.935 7.783.425 1.553.118 1.261-.571.252-.706-1.037-.745-1.462-1.342-.054-7.091-10.425 11.222-18.354 13.971-6.043-1.672-.6-1.2-.438-1.008.864.133 1.009 0 1.274-.586.41-1.673-2.416-4.476-4.328-7.529-3.212z" class="cls-8" data-name="Path 593" transform="translate(-9137.742 -7156.624)"/>
            <path id="Path_594" d="M8161.275 8817.346l-.677-.346-.6 1.713.438.239z" class="cls-11" data-name="Path 594" transform="translate(-8057.323 -8703.767)"/>
            <path id="Path_595" d="M7861.514 8641.539c-.558.612-2.855.292-4.157-.464-1.367-.8.412-.691.266-1.327a1.092 1.092 0 0 1 .465-1.091c.293-.2-.969-1.473.465-.862 1.833.8 3.467 2.178 3.188 3.319z" class="cls-11" data-name="Path 595" transform="translate(-7758.187 -8526.78)"/>
            <path id="Path_596" d="M7995.238 8553c-.479.426-3.506-3.81-3.028-4.223s3.49 3.811 3.028 4.223z" class="cls-11" data-name="Path 596" transform="translate(-7891.711 -8439.076)"/>
            <path id="Path_597" d="M7711.929 8744.616c.159-.306-.678-1.049-1.886-1.674s-2.312-.875-2.471-.57.69 1.063 1.9 1.685 2.298.878 2.457.559z" class="cls-11" data-name="Path 597" transform="translate(-7610.886 -8630.003)"/>
            <path id="Path_598" d="M7717.942 8654.629c.159-.318-.69-1.062-1.9-1.687s-2.311-.875-2.47-.57.69 1.063 1.9 1.685 2.311.878 2.47.572z" class="cls-11" data-name="Path 598" transform="translate(-7616.806 -8541.197)"/>
            <path id="Path_599" d="M7797.255 8601.448c.158-.318-.931-1.182-2.417-1.953s-2.83-1.154-2.988-.836.93 1.182 2.417 1.953 2.827 1.14 2.988.836z" class="cls-11" data-name="Path 599" transform="translate(-7694.047 -8488.214)"/>
            <path id="Path_600" d="M9809.938 8148a9.252 9.252 0 0 1-5.937 2.537c2.219 3.254 6.64 1.62 5.937-2.537z" class="cls-14" data-name="Path 600" transform="translate(-9679.489 -8043.651)"/>
            <path id="Path_601" d="M9875.33 8195a9.649 9.649 0 0 1-4.33 1.846 2.992 2.992 0 0 0 4.33-1.846z" class="cls-15" data-name="Path 601" transform="translate(-9745.599 -8090.028)"/>
            <path id="Path_602" d="M3809.074 10129l10.93 3.48-5.073 15.963-10.931-3.479z" class="cls-11" data-name="Path 602" transform="translate(-3759.176 -9998.343)"/>
            <path id="Path_603" d="M4749.736 8788l4.756 1.687-2.749 7.73-4.743-1.688z" class="cls-13" data-name="Path 603" transform="translate(-4689.652 -8675.151)"/>
            <path id="Path_604" d="M4574.449 7792.459c11.315 1.793 6.535 21-3.082 19.483s-8.247-21.276 3.082-19.483z" class="cls-11" data-name="Path 604" transform="translate(-4510.035 -7692.72)"/>
            <path id="Path_605" d="M1988.289 13643.354L1977 13641.8l.093-.678a2.481 2.481 0 0 1 2.616-1.992l9.177-.133z" class="cls-1" data-name="Path 605" transform="translate(-1956.441 -13461.728)"/>
            <path id="Path_606" d="M2637.862 13414.639a1.593 1.593 0 0 0-2.191.439l-1.288 1.953a1.567 1.567 0 0 0 .438 2.178 1.564 1.564 0 0 0 2.178-.439l1.3-1.939a1.6 1.6 0 0 0-.437-2.192z" class="cls-11" data-name="Path 606" transform="translate(-2604.832 -13240.088)"/>
            <path id="Path_607" d="M4744 14098.08l8.009 8.115.492-.479a2.488 2.488 0 0 0 .013-3.293l-5.379-7.424z" class="cls-1" data-name="Path 607" transform="translate(-4686.691 -13911.671)"/>
            <path id="Path_608" d="M4886.634 13997.987a1.582 1.582 0 0 1 1.554 1.605l-.054 2.34a1.573 1.573 0 0 1-1.606 1.539 1.583 1.583 0 0 1-1.541-1.607l.054-2.338a1.567 1.567 0 0 1 1.593-1.539z" class="cls-11" data-name="Path 608" transform="translate(-4825.805 -13815.947)"/>
            <path id="Path_609" d="M2577.248 10879l11.143 3.48 5.631 40.906-5.021.105-7.251-32.366-2.2-.332-9.55 12.353-6.043 13.838-4.954-2.258 5.352-15.273z" class="cls-16" data-name="Path 609" transform="translate(-2530.711 -10738.381)"/>
            <path id="Path_610" d="M3446.78 7873.756l.12-.757-1.82.013-.08.479z" class="cls-11" data-name="Path 610" transform="translate(-3404.944 -7772.304)"/>
            <path id="Path_611" d="M3405.25 7562.861c-.757-.344-1.208-2.616-.917-4.089.292-1.556.784.158 1.328-.187a1.069 1.069 0 0 1 1.182.081c.292.2 1.076-1.409.969.158-.146 1.979-.916 3.984-2.085 4.1z" class="cls-11" data-name="Path 611" transform="translate(-3364.729 -7461.595)"/>
            <path id="Path_612" d="M3539.1 7591.084c-.545-.307 2.443-4.556 3-4.251s-2.445 4.555-3 4.251z" class="cls-11" data-name="Path 612" transform="translate(-3497.727 -7489.922)"/>
            <path id="Path_613" d="M3406.795 7388.718c.345.039.77-1.011.969-2.351s.066-2.471-.279-2.512-.784 1-.969 2.338-.066 2.471.279 2.525z" class="cls-11" data-name="Path 613" transform="translate(-3366.885 -7289.654)"/>
            <path id="Path_614" d="M3493.794 7364.716c.345.054.771-1 .97-2.337s.066-2.47-.279-2.522-.783 1-.969 2.336-.067 2.471.278 2.523z" class="cls-11" data-name="Path 614" transform="translate(-3452.729 -7265.975)"/>
            <path id="Path_615" d="M3562.245 7420.95c.345.053.823-1.261 1.049-2.921s.146-3.042-.186-3.095-.823 1.262-1.049 2.922-.146 3.044.186 3.094z" class="cls-11" data-name="Path 615" transform="translate(-3520.317 -7320.322)"/>
            <path id="Path_616" d="M3391 7846.451l2.271 12.8a2.191 2.191 0 0 0 .093.479.573.573 0 0 0 .12.278 2.364 2.364 0 0 0 .425.6l8.221 8.685c2.125 2.259 5.764-1.407 3.334-3.4l-8.54-7.012-2.7-12.883z" class="cls-4" data-name="Path 616" transform="translate(-3351.661 -7745.663)"/>
            <path id="Path_617" d="M6809 8895.584l.492-.584 1.208 1.355-.306.371z" class="cls-11" data-name="Path 617" transform="translate(-6724.267 -8780.73)"/>
            <path id="Path_618" d="M6841.413 8632.042c.757.332 2.749-.852 3.651-2.059.957-1.249-.637-.465-.757-1.115a1.094 1.094 0 0 0-.85-.824c-.346-.066.318-1.727-.757-.611-1.382 1.436-2.351 3.359-1.66 4.3z" class="cls-11" data-name="Path 618" transform="translate(-6755.655 -8516.338)"/>
            <path id="Path_619" d="M6836.51 8572.662c.6.2 1.74-4.873 1.143-5.088-.598-.199-1.741 4.873-1.143 5.088z" class="cls-11" data-name="Path 619" transform="translate(-6751.245 -8457.648)"/>
            <path id="Path_620" d="M7034.647 8642.831c-.266-.227.226-1.249 1.1-2.284s1.779-1.7 2.045-1.487-.213 1.247-1.089 2.282c-.861 1.051-1.79 1.715-2.056 1.489z" class="cls-11" data-name="Path 620" transform="translate(-6946.845 -8528.149)"/>
            <path id="Path_621" d="M6994.558 8562.5c-.267-.227.211-1.248 1.089-2.283s1.778-1.714 2.058-1.488-.226 1.249-1.1 2.285-1.782 1.711-2.047 1.486z" class="cls-11" data-name="Path 621" transform="translate(-6907.287 -8448.88)"/>
            <path id="Path_622" d="M6845.651 8543.028c-.266-.212.4-1.436 1.474-2.722s2.152-2.165 2.418-1.94-.386 1.448-1.461 2.737-2.165 2.15-2.431 1.925z" class="cls-11" data-name="Path 622" transform="translate(-6760.373 -8428.799)"/>
            <path id="Path_623" d="M5170.282 8871.711l11.262-4.023a4.222 4.222 0 0 0 .386-.172 2.217 2.217 0 0 0 .69-.465l8.845-8.74-2.284-2.311-8.712 8.605-11.621 2.564c-3.081.679-1.488 5.591 1.434 4.542z" class="cls-4" data-name="Path 623" transform="translate(-5104.248 -8742.249)"/>
            <path id="Path_624" d="M3742 9240.916l17.026 7.716 6.587-20.042-5.525-1.951-4.741-1.688-5.525-1.95z" class="cls-4" data-name="Path 624" transform="translate(-3698 -9104.375)"/>
            <path id="Path_625" d="M4541.127 7681.674c-3.852 2.936-13.481 5.963-15.127-4.675 2.084 4.343 10.133-2.828 15.127 4.675z" class="cls-17" data-name="Path 625" transform="translate(-4471.586 -7578.907)"/>
            <path id="Path_626" d="M4561.563 7852.929c-1.554 4.9-4.144 7.716-6.8 8.978-.093-2.444 1.837-9.921 6.8-8.978z" class="cls-17" data-name="Path 626" transform="translate(-4499.964 -7752.419)"/>
            <path id="Path_627" d="M4493.438 8436.892c.465-.039.93.73 1.022 1.741s-.212 1.859-.677 1.9-.929-.731-1.022-1.741.212-1.861.677-1.9z" class="cls-11" data-name="Path 627" transform="translate(-4438.773 -8328.706)"/>
            <path id="Path_628" d="M5631.6 8627.482c-.438-.186-1.115.413-1.514 1.342s-.372 1.832.067 2.021 1.1-.413 1.5-1.343.383-1.831-.053-2.02z" class="cls-11" data-name="Path 628" transform="translate(-5560.729 -8516.733)"/>
            <path id="Path_629" d="M5462.976 7922c-.026 5.141 1.567 8.62 3.7 10.625.841-2.299 1.324-10.001-3.7-10.625z" class="cls-17" data-name="Path 629" transform="translate(-5396.118 -7820.653)"/>
            <path id="Path_630" d="M4887.044 8839.958A11.585 11.585 0 0 1 4881 8839c.292 2.778 4.675 3.642 6.044.958z" class="cls-14" data-name="Path 630" transform="translate(-4821.872 -8725.475)"/>
            <path id="Path_631" d="M4941.489 8862.729A12.239 12.239 0 0 1 4937 8862a3.541 3.541 0 0 0 4.489.729z" class="cls-15" data-name="Path 631" transform="translate(-4877.128 -8748.17)"/>
            <path id="Path_632" d="M4879.026 8487.472a.218.218 0 0 1-.16.266.231.231 0 0 1-.279-.158.952.952 0 0 0-.425-.625.663.663 0 0 0-.306-.118.818.818 0 0 0-.319.013.951.951 0 0 0-.571.438.221.221 0 0 1-.306.08.237.237 0 0 1-.079-.318 1.422 1.422 0 0 1 .837-.639 1.313 1.313 0 0 1 .5-.013 1.206 1.206 0 0 1 .479.173 1.477 1.477 0 0 1 .629.901zm-7.345-.943a.219.219 0 0 1-.3.08.233.233 0 0 1-.066-.318 1.431 1.431 0 0 1 .876-.65 1.257 1.257 0 0 1 .5-.014 1.29 1.29 0 0 1 .464.172 1.35 1.35 0 0 1 .6.877.224.224 0 0 1-.439.094.936.936 0 0 0-.4-.6.842.842 0 0 0-.292-.107.961.961 0 0 0-.332.013 1 1 0 0 0-.611.452z" class="cls-18" data-name="Path 632" transform="translate(-4812.275 -8376.774)"/>
            <path id="Path_633" d="M5129 8674.737c.757-.318.863-.437.942-1.738.624 1.207.213 2.06-.942 1.738z" class="cls-14" data-name="Path 633" transform="translate(-5066.579 -8561.679)"/>
            <path id="Path_634" d="M9669.132 7854.413a.226.226 0 0 1-.306.332.95.95 0 0 0-.7-.292.8.8 0 0 0-.319.066.727.727 0 0 0-.267.186.982.982 0 0 0-.237.678.223.223 0 0 1-.213.226.246.246 0 0 1-.239-.226 1.433 1.433 0 0 1 .357-.983 1.253 1.253 0 0 1 .905-.4 1.467 1.467 0 0 1 1.019.413zm-6.68 3.188a.226.226 0 0 1-.452 0 1.455 1.455 0 0 1 .385-1.023 1.5 1.5 0 0 1 .413-.293h.013a1.208 1.208 0 0 1 .478-.1 1.412 1.412 0 0 1 .971.411.226.226 0 1 1-.307.332.963.963 0 0 0-.664-.292.768.768 0 0 0-.292.066h-.013a1 1 0 0 0-.267.186 1.052 1.052 0 0 0-.265.712z" class="cls-18" data-name="Path 634" transform="translate(-9539.374 -7753.557)"/>
            <path id="Path_635" d="M10336 7598.572c-.465.08-.717.943-.56 1.952s.679 1.754 1.143 1.674.718-.943.56-1.939-.66-1.766-1.143-1.687z" class="cls-11" data-name="Path 635" transform="translate(-10203.828 -7501.515)"/>
            <path id="Path_636" d="M9302.105 8053.132c.371-.291 1.182.134 1.807.931s.823 1.686.438 1.979-1.182-.133-1.792-.93-.824-1.688-.453-1.98z" class="cls-11" data-name="Path 636" transform="translate(-9184.076 -7949.954)"/>
            <path id="Path_637" d="M4800.179 7465.756c-3.944 1.475-12.75 1.54-11.408-7.756.624 4.156 8.738 1.434 11.408 7.756z" class="cls-17" data-name="Path 637" transform="translate(-4730.732 -7362.816)"/>
            <path id="Path_638" d="M8518.451 6204.9a7.451 7.451 0 1 0-7.451-7.451 7.467 7.467 0 0 0 7.451 7.451z" class="cls-16" data-name="Path 638" transform="translate(-8403.661 -6111.657)"/>
            <path id="Path_639" d="M8610.963 14660.938c12.643 0 22.949-2 22.949-4.475s-10.307-4.463-22.949-4.463-22.963 2-22.963 4.463 10.319 4.475 22.963 4.475z" class="cls-10" data-name="Path 639" transform="translate(-8479.637 -14461.272)"/>
            <path id="Path_640" d="M3404 7919.465l3.254-.465.212.982-3.28.479z" class="cls-19" data-name="Path 640" transform="translate(-3364.489 -7817.693)"/>
            <path id="Path_641" d="M6715.73 8909l2.283 2.313-.716.7-2.3-2.311z" class="cls-19" data-name="Path 641" transform="translate(-6631.513 -8794.545)"/>
            <path id="Path_642" d="M3765.424 10430l16.921 7.678-.319.955-17.027-7.718z" class="cls-19" data-name="Path 642" transform="translate(-3720.693 -10295.346)"/>
            <path id="Path_643" d="M4722.332 9370l4.742 1.686-.332.957-4.742-1.686z" class="cls-19" data-name="Path 643" transform="translate(-4664.984 -9249.424)"/>
            <path id="Path_644" d="M4889.584 4818.14a7.57 7.57 0 1 0-7.584-7.57 7.584 7.584 0 0 0 7.584 7.57z" class="cls-8" data-name="Path 644" transform="translate(-4822.859 -4743.077)"/>
            <path id="Path_645" d="M6471.464 6624.915a7.458 7.458 0 1 0-7.464-7.464 7.468 7.468 0 0 0 7.464 7.464z" class="cls-3" data-name="Path 645" transform="translate(-6383.849 -6526.078)"/>
            <path id="Path_646" d="M8403.452 3576.9a7.451 7.451 0 1 0-7.453-7.451 7.468 7.468 0 0 0 7.453 7.451z" class="cls-4" data-name="Path 646" transform="translate(-8290.188 -3518.559)"/>
            <path id="Path_647" d="M3313.464 2547.914a7.457 7.457 0 1 0-7.464-7.464 7.476 7.476 0 0 0 7.464 7.464z" class="cls-16" data-name="Path 647" transform="translate(-3267.79 -2503.224)"/>
            <path id="Path_648" d="M7126.728 6221.456a4.728 4.728 0 1 0-4.729-4.728 4.73 4.73 0 0 0 4.729 4.728z" class="cls-16" data-name="Path 648" transform="translate(-7033.108 -6133.364)"/>
            <path id="Path_649" d="M4562.729 5604.456a4.728 4.728 0 1 0-4.729-4.728 4.738 4.738 0 0 0 4.729 4.728z" class="cls-16" data-name="Path 649" transform="translate(-4503.162 -5524.557)"/>
            <path id="Path_650" d="M9698.729 4470.456a4.728 4.728 0 1 0-4.729-4.728 4.739 4.739 0 0 0 4.729 4.728z" class="cls-16" data-name="Path 650" transform="translate(-9570.949 -4405.619)"/>
            <path id="Path_651" d="M6485.728 3194.456a4.728 4.728 0 1 0-4.728-4.728 4.738 4.738 0 0 0 4.728 4.728z" class="cls-16" data-name="Path 651" transform="translate(-6400.622 -3146.565)"/>
            <path id="Path_652" d="M7857.728 7368.457a4.728 4.728 0 1 0-4.727-4.728 4.738 4.738 0 0 0 4.727 4.728z" class="cls-16" data-name="Path 652" transform="translate(-7754.402 -7265.131)"/>
            <path id="Path_653" d="M9212.725 6058.457a4.729 4.729 0 1 0-4.727-4.729 4.742 4.742 0 0 0 4.727 4.729z" class="cls-4" data-name="Path 653" transform="translate(-9091.401 -5972.529)"/>
            <path id="Path_654" d="M3277.728 3054.456a4.728 4.728 0 1 0-4.728-4.728 4.739 4.739 0 0 0 4.728 4.728z" class="cls-4" data-name="Path 654" transform="translate(-3235.228 -3008.424)"/>
            <path id="Path_655" d="M2925.451 5767.915a7.457 7.457 0 1 0-7.452-7.464 7.478 7.478 0 0 0 7.452 7.464z" class="cls-1" data-name="Path 655" transform="translate(-2884.943 -5680.46)"/>
            <path id="Path_656" d="M11055.463 3794.914a7.457 7.457 0 1 0-7.463-7.463 7.477 7.477 0 0 0 7.463 7.463z" class="cls-16" data-name="Path 656" transform="translate(-10906.967 -3733.663)"/>
            <path id="Path_657" d="M8276.742 3079.456a4.728 4.728 0 1 0-4.742-4.728 4.738 4.738 0 0 0 4.742 4.728z" class="cls-5" data-name="Path 657" transform="translate(-8167.835 -3033.092)"/>
            <path id="Path_658" d="M3565.728 6402.456a4.728 4.728 0 1 0-4.728-4.728 4.738 4.738 0 0 0 4.728 4.728z" class="cls-3" data-name="Path 658" transform="translate(-3519.403 -6311.96)"/>
            <path id="Path_659" d="M5615.962 2649.923a2.962 2.962 0 1 0-2.962-2.962 2.976 2.976 0 0 0 2.962 2.962z" class="cls-3" data-name="Path 659" transform="translate(-5544.149 -2612.75)"/>
            <path id="Path_660" d="M3895.962 5396.923a2.961 2.961 0 1 0-2.961-2.961 2.964 2.964 0 0 0 2.961 2.961z" class="cls-3" data-name="Path 660" transform="translate(-3846.994 -5323.267)"/>
            <path id="Path_661" d="M5404.962 6965.937a2.968 2.968 0 1 0-2.962-2.975 2.976 2.976 0 0 0 2.962 2.975z" class="cls-3" data-name="Path 661" transform="translate(-5335.953 -6871.431)"/>
            <path id="Path_662" d="M7456.976 5184.936a2.968 2.968 0 1 0-2.976-2.961 2.964 2.964 0 0 0 2.976 2.961z" class="cls-3" data-name="Path 662" transform="translate(-7360.7 -5114.083)"/>
            <path id="Path_663" d="M11531.962 6784.936a2.968 2.968 0 1 0-2.964-2.974 2.986 2.986 0 0 0 2.964 2.974z" class="cls-3" data-name="Path 663" transform="translate(-11381.577 -6692.833)"/>
            <path id="Path_664" d="M11018.961 3222.937a2.969 2.969 0 1 0-2.961-2.962 2.974 2.974 0 0 0 2.961 2.962z" class="cls-3" data-name="Path 664" transform="translate(-10875.391 -3178.14)"/>
            <path id="Path_665" d="M8332.963 1713.937a2.968 2.968 0 1 0-2.963-2.975 2.976 2.976 0 0 0 2.963 2.975z" class="cls-3" data-name="Path 665" transform="translate(-8225.064 -1689.181)"/>
            <path id="Path_666" d="M10055.962 2411.923a2.962 2.962 0 1 0-2.961-2.961 2.974 2.974 0 0 0 2.961 2.961z" class="cls-4" data-name="Path 666" transform="translate(-9925.184 -2377.911)"/>
            <path id="Path_667" d="M10648.975 5380.923a2.962 2.962 0 1 0-2.975-2.962 2.965 2.965 0 0 0 2.975 2.962z" class="cls-15" data-name="Path 667" transform="translate(-10510.306 -5307.479)"/>
            <path id="Path_668" d="M3089.962 5539.922a2.961 2.961 0 1 0-2.962-2.962 2.964 2.964 0 0 0 2.962 2.962z" class="cls-15" data-name="Path 668" transform="translate(-3051.698 -5464.367)"/>
            <path id="Path_669" d="M4617.962 2500.923a2.962 2.962 0 1 0-2.962-2.961 2.975 2.975 0 0 0 2.962 2.961z" class="cls-4" data-name="Path 669" transform="translate(-4559.405 -2465.729)"/>
            <path id="Path_670" d="M10162.963 4277.922a2.961 2.961 0 1 0-2.965-2.962 2.964 2.964 0 0 0 2.965 2.962z" class="cls-15" data-name="Path 670" transform="translate(-10030.759 -4219.128)"/>
            <path id="Path_671" d="M7484.729 2145.469a4.735 4.735 0 1 0-4.729-4.741 4.742 4.742 0 0 0 4.729 4.741z" class="cls-8" data-name="Path 671" transform="translate(-7386.355 -2111.497)"/>
            <path id="Path_672" d="M10738.963 6413.937a2.969 2.969 0 1 0-2.963-2.975 2.976 2.976 0 0 0 2.963 2.975z" class="cls-8" data-name="Path 672" transform="translate(-10599.11 -6326.762)"/>
            <path id="Path_673" d="M7404.961 1898.923a2.962 2.962 0 1 0-2.962-2.962 2.975 2.975 0 0 0 2.962 2.962z" class="cls-16" data-name="Path 673" transform="translate(-7309.39 -1871.724)"/>
            <path id="Path_674" d="M8280.975 5083.937a2.969 2.969 0 1 0-2.975-2.962 2.964 2.964 0 0 0 2.975 2.962z" class="cls-16" data-name="Path 674" transform="translate(-8173.754 -5014.424)"/>
            <path id="Path_675" d="M5244.962 1442.923a2.962 2.962 0 1 0-2.961-2.962 2.965 2.965 0 0 0 2.961 2.962z" class="cls-16" data-name="Path 675" transform="translate(-5178.078 -1421.78)"/>
            <path id="Path_676" d="M10908.975 1706.923a2.962 2.962 0 1 0-2.975-2.962 2.963 2.963 0 0 0 2.975 2.962z" class="cls-16" data-name="Path 676" transform="translate(-10766.852 -1682.274)"/>
            <path id="Path_677" d="M4350.962 3487.937a2.968 2.968 0 1 0-2.962-2.961 2.973 2.973 0 0 0 2.962 2.961z" class="cls-15" data-name="Path 677" transform="translate(-4295.95 -3439.621)"/>
            <path id="Path_678" d="M8883.96 707.923a2.962 2.962 0 1 0-2.961-2.962 2.976 2.976 0 0 0 2.961 2.962z" class="cls-1" data-name="Path 678" transform="translate(-8768.745 -696.542)"/>
            <path id="Path_679" d="M5105.962 4136.922a2.961 2.961 0 1 0-2.962-2.961 2.964 2.964 0 0 0 2.962 2.961z" class="cls-2" data-name="Path 679" transform="translate(-5040.923 -4080.001)"/>
            <path id="Path_680" d="M11854.963 5737.937a2.969 2.969 0 1 0-2.963-2.975 2.987 2.987 0 0 0 2.963 2.975z" class="cls-1" data-name="Path 680" transform="translate(-11700.29 -5659.738)"/>
            <path id="Path_681" d="M6605.963 5778.936a2.968 2.968 0 1 0-2.962-2.975 2.976 2.976 0 0 0 2.962 2.975z" class="cls-1" data-name="Path 681" transform="translate(-6521.003 -5700.194)"/>
            <path id="Path_682" d="M7600.779 3260.586a1.793 1.793 0 1 0-1.78-1.793 1.8 1.8 0 0 0 1.78 1.793z" class="cls-1" data-name="Path 682" transform="translate(-7503.772 -3217.61)"/>
            <path id="Path_683" d="M6491.779 1100.573a1.786 1.786 0 1 0-1.779-1.78 1.791 1.791 0 0 0 1.779 1.78z" class="cls-1" data-name="Path 683" transform="translate(-6409.502 -1086.296)"/>
            <path id="Path_684" d="M4168.793 2232.586a1.793 1.793 0 1 0-1.793-1.793 1.8 1.8 0 0 0 1.793 1.793z" class="cls-1" data-name="Path 684" transform="translate(-4117.354 -2203.262)"/>
            <path id="Path_685" d="M6516.792 6619.586a1.793 1.793 0 1 0-1.793-1.793 1.8 1.8 0 0 0 1.793 1.793z" class="cls-1" data-name="Path 685" transform="translate(-6434.17 -6531.999)"/>
            <path id="Path_686" d="M10565.792 5948.586a1.793 1.793 0 1 0-1.793-1.792 1.792 1.792 0 0 0 1.793 1.792z" class="cls-1" data-name="Path 686" transform="translate(-10429.395 -5869.911)"/>
            <path id="Path_687" d="M4372.792 7254.573a1.787 1.787 0 1 0-1.792-1.793 1.783 1.783 0 0 0 1.792 1.793z" class="cls-1" data-name="Path 687" transform="translate(-4318.644 -7158.565)"/>
            <path id="Path_688" d="M2748.793 4458.586a1.793 1.793 0 1 0-1.793-1.793 1.8 1.8 0 0 0 1.793 1.793z" class="cls-1" data-name="Path 688" transform="translate(-2716.214 -4399.698)"/>
            <path id="Path_689" d="M12420.793 3921.572a1.786 1.786 0 1 0-1.794-1.78 1.791 1.791 0 0 0 1.794 1.78z" class="cls-1" data-name="Path 689" transform="translate(-12259.757 -3869.83)"/>
            <path id="Path_690" d="M10060.794 831.586a1.793 1.793 0 1 0-1.793-1.793 1.792 1.792 0 0 0 1.793 1.793z" class="cls-1" data-name="Path 690" transform="translate(-9931.103 -820.868)"/>
            <path id="Path_691" d="M9574.793 3406.572a1.786 1.786 0 1 0-1.793-1.78 1.791 1.791 0 0 0 1.793 1.78z" class="cls-2" data-name="Path 691" transform="translate(-9451.557 -3361.67)"/>
            <path id="Path_692" d="M6183.793 4324.572a1.786 1.786 0 1 0-1.793-1.779 1.791 1.791 0 0 0 1.793 1.779z" class="cls-1" data-name="Path 692" transform="translate(-6105.594 -4267.478)"/>
            <path id="Path_693" d="M11176.779 7589.572a1.786 1.786 0 1 0-1.78-1.78 1.782 1.782 0 0 0 1.78 1.78z" class="cls-1" data-name="Path 693" transform="translate(-11032.279 -7489.116)"/>
            <path id="Path_694" d="M13524.783 3089.586a1.793 1.793 0 1 0-1.783-1.793 1.8 1.8 0 0 0 1.783 1.793z" class="cls-1" data-name="Path 694" transform="translate(-13349.096 -3048.88)"/>
            <path id="Path_695" d="M2921.793 1234.585a1.793 1.793 0 1 0-1.793-1.793 1.791 1.791 0 0 0 1.793 1.793z" class="cls-1" data-name="Path 695" transform="translate(-2886.917 -1218.516)"/>
            <path id="Path_696" d="M1585.779 6279.585a1.793 1.793 0 1 0-1.779-1.793 1.794 1.794 0 0 0 1.779 1.793z" class="cls-1" data-name="Path 696" transform="translate(-1568.66 -6196.514)"/>
            <path id="Path_697" d="M6697.779 2501.573a1.786 1.786 0 1 0-1.779-1.78 1.791 1.791 0 0 0 1.779 1.78z" class="cls-8" data-name="Path 697" transform="translate(-6612.767 -2468.689)"/>
            <path id="Path_698" d="M2436.793 3077.573a1.787 1.787 0 1 0-1.793-1.793 1.792 1.792 0 0 0 1.793 1.793z" class="cls-8" data-name="Path 698" transform="translate(-2408.357 -3037.039)"/>
            <path id="Path_699" d="M3780.779 5955.586a1.793 1.793 0 1 0-1.779-1.793 1.8 1.8 0 0 0 1.779 1.793z" class="cls-8" data-name="Path 699" transform="translate(-3734.508 -5876.817)"/>
            <path id="Path_700" d="M7445.792 7164.587a1.793 1.793 0 1 0-1.792-1.794 1.792 1.792 0 0 0 1.792 1.794z" class="cls-8" data-name="Path 700" transform="translate(-7350.832 -7069.76)"/>
            <path id="Path_701" d="M9160.793 3983.572a1.786 1.786 0 1 0-1.793-1.793 1.784 1.784 0 0 0 1.793 1.793z" class="cls-8" data-name="Path 701" transform="translate(-9043.055 -3931.007)"/>
            <path id="Path_702" d="M9614.778 1676.573a1.786 1.786 0 1 0-1.779-1.793 1.794 1.794 0 0 0 1.779 1.793z" class="cls-8" data-name="Path 702" transform="translate(-9491.025 -1654.646)"/>
            <path id="Path_703" d="M12453.793 2450.586a1.793 1.793 0 1 0-1.792-1.793 1.8 1.8 0 0 0 1.792 1.793z" class="cls-8" data-name="Path 703" transform="translate(-12292.322 -2418.366)"/>
            <path id="Path_704" d="M11417.794 4804.572a1.786 1.786 0 1 0-1.793-1.793 1.794 1.794 0 0 0 1.793 1.793z" class="cls-8" data-name="Path 704" transform="translate(-11270.079 -4741.104)"/>
            <path id="Path_705" d="M8443.793 5859.586a1.793 1.793 0 1 0-1.793-1.793 1.792 1.792 0 0 0 1.793 1.793z" class="cls-8" data-name="Path 705" transform="translate(-8335.576 -5782.092)"/>
            <path id="Path_706" d="M10170.791 6608.573a1.787 1.787 0 1 0-1.793-1.794 1.784 1.784 0 0 0 1.793 1.794z" class="cls-8" data-name="Path 706" transform="translate(-10039.639 -6521.145)"/>
            <path id="Path_707" d="M4413.793 1484.573a1.786 1.786 0 1 0-1.793-1.793 1.793 1.793 0 0 0 1.793 1.793z" class="cls-4" data-name="Path 707" transform="translate(-4359.101 -1465.196)"/>
            <path id="Path_708" d="M1009.793 3750.586a1.793 1.793 0 1 0-1.793-1.792 1.791 1.791 0 0 0 1.793 1.792z" class="cls-4" data-name="Path 708" transform="translate(-1000.31 -3701.101)"/>
            <path id="Path_709" d="M11911.779 826.573a1.786 1.786 0 1 0-1.779-1.78 1.792 1.792 0 0 0 1.779 1.78z" class="cls-4" data-name="Path 709" transform="translate(-11757.519 -815.934)"/>
            <path id="Path_710" d="M12781.78 5360.586a1.793 1.793 0 1 0-1.779-1.792 1.8 1.8 0 0 0 1.779 1.792z" class="cls-4" data-name="Path 710" transform="translate(-12615.964 -5289.719)"/>
            <path id="Path_711" d="M6871.793 3158.586a1.793 1.793 0 1 0-1.793-1.793 1.791 1.791 0 0 0 1.793 1.793z" class="cls-15" data-name="Path 711" transform="translate(-6784.456 -3116.964)"/>
            <path id="Path_712" d="M9115.794 2405.572a1.786 1.786 0 1 0-1.793-1.779 1.78 1.78 0 0 0 1.793 1.779z" class="cls-4" data-name="Path 712" transform="translate(-8998.654 -2373.964)"/>
            <path id="Path_713" d="M11514.793 2674.573a1.786 1.786 0 1 0-1.793-1.793 1.792 1.792 0 0 0 1.793 1.793z" class="cls-4" data-name="Path 713" transform="translate(-11365.792 -2639.392)"/>
            <path id="Path_714" d="M6778.792 7156.572a1.786 1.786 0 1 0-1.792-1.792 1.783 1.783 0 0 0 1.792 1.792z" class="cls-15" data-name="Path 714" transform="translate(-6692.691 -7061.867)"/>
            <path id="Path_715" d="M8424.793 7299.573a1.787 1.787 0 1 0-1.793-1.794 1.8 1.8 0 0 0 1.793 1.794z" class="cls-4" data-name="Path 715" transform="translate(-8316.829 -7202.967)"/>
            <path id="Path_716" d="M9294.793 2470.572a1.786 1.786 0 1 0-1.793-1.78 1.791 1.791 0 0 0 1.793 1.78z" class="cls-16" data-name="Path 716" transform="translate(-9175.276 -2438.1)"/>
            <path id="Path_717" d="M3747.793 1566.573a1.786 1.786 0 1 0-1.793-1.793 1.791 1.791 0 0 0 1.793 1.793z" class="cls-16" data-name="Path 717" transform="translate(-3701.946 -1546.107)"/>
            <path id="Path_718" d="M1863.78 5575.585a1.793 1.793 0 1 0-1.78-1.792 1.793 1.793 0 0 0 1.78 1.792z" class="cls-16" data-name="Path 718" transform="translate(-1842.968 -5501.863)"/>
            <path id="Path_719" d="M12119.781 3197.573a1.786 1.786 0 1 0-1.781-1.779 1.782 1.782 0 0 0 1.781 1.779z" class="cls-16" data-name="Path 719" transform="translate(-11962.757 -3155.446)"/>
            <path id="Path_720" d="M10335.783 3043.573a1.787 1.787 0 1 0-1.782-1.78 1.791 1.791 0 0 0 1.782 1.78z" class="cls-16" data-name="Path 720" transform="translate(-10202.45 -3003.49)"/>
            <path id="Path_721" d="M5933.793 6208.586a1.793 1.793 0 1 0-1.793-1.792 1.791 1.791 0 0 0 1.793 1.792z" class="cls-16" data-name="Path 721" transform="translate(-5858.914 -6126.458)"/>
            <path id="Path_722" d="M9298.779 5232.572a1.786 1.786 0 1 0-1.779-1.793 1.794 1.794 0 0 0 1.779 1.793z" class="cls-16" data-name="Path 722" transform="translate(-9179.222 -5163.418)"/>
            <path id="Path_723" d="M6185.781 4755.585a1.793 1.793 0 1 0-1.78-1.792 1.8 1.8 0 0 0 1.78 1.792z" class="cls-16" data-name="Path 723" transform="translate(-6107.567 -4692.753)"/>
            <path id="Path_724" d="M3832.793 2078.573a1.787 1.787 0 1 0-1.793-1.78 1.791 1.791 0 0 0 1.793 1.78z" class="cls-3" data-name="Path 724" transform="translate(-3785.817 -2051.307)"/>
            <path id="Path_725" d="M3229.793 4550.586a1.793 1.793 0 1 0-1.793-1.793 1.8 1.8 0 0 0 1.793 1.793z" class="cls-3" data-name="Path 725" transform="translate(-3190.826 -4490.476)"/>
            <path id="Path_726" d="M6618.793 4996.586a1.793 1.793 0 1 0-1.793-1.793 1.8 1.8 0 0 0 1.793 1.793z" class="cls-3" data-name="Path 726" transform="translate(-6534.815 -4930.554)"/>
            <path id="Path_727" d="M10616.781 6962.586a1.793 1.793 0 1 0-1.781-1.793 1.792 1.792 0 0 0 1.781 1.793z" class="cls-3" data-name="Path 727" transform="translate(-10479.718 -6870.443)"/>
            <path id="Path_728" d="M10646.793 4716.573a1.786 1.786 0 1 0-1.793-1.78 1.781 1.781 0 0 0 1.793 1.78z" class="cls-3" data-name="Path 728" transform="translate(-10509.318 -4654.273)"/>
            <path id="Path_729" d="M12304.793 1656.572a1.786 1.786 0 0 0 0-3.573 1.786 1.786 0 1 0 0 3.573z" class="cls-3" data-name="Path 729" transform="translate(-12145.3 -1634.911)"/>
            <path id="Path_730" d="M6139.779 2108.586a1.793 1.793 0 1 0-1.779-1.793 1.794 1.794 0 0 0 1.779 1.793z" class="cls-3" data-name="Path 730" transform="translate(-6062.178 -2080.909)"/>
            <path id="Path_731" d="M6167.779 3961.586a1.793 1.793 0 1 0-1.779-1.793 1.8 1.8 0 0 0 1.779 1.793z" class="cls-6" data-name="Path 731" transform="translate(-6089.806 -3909.3)"/>
            <path id="Path_732" d="M6681.657 3769.3a5.651 5.651 0 1 0-5.657-5.645 5.657 5.657 0 0 0 5.657 5.645z" class="cls-3" data-name="Path 732" transform="translate(-6593.032 -3711.956)"/>
            <path id="Path_733" d="M7813.728 3935.456a4.728 4.728 0 1 0-4.729-4.728 4.741 4.741 0 0 0 4.729 4.728z" class="cls-1" data-name="Path 733" transform="translate(-7710.984 -3877.724)"/>
            <path id="Path_734" d="M7381.792 3857.585a1.793 1.793 0 1 0-1.792-1.792 1.791 1.791 0 0 0 1.792 1.792z" class="cls-8" data-name="Path 734" transform="translate(-7287.683 -3806.68)"/>
            <path id="Path_735" d="M10255.862 1881.713a.857.857 0 1 0-.861-.85.859.859 0 0 0 .861.85z" class="cls-4" data-name="Path 735" transform="translate(-10124.499 -1858.897)"/>
            <path id="Path_736" d="M6187.863 339.727a.863.863 0 1 0-.863-.863.861.861 0 0 0 .863.863z" class="cls-4" data-name="Path 736" transform="translate(-6110.527 -337.376)"/>
            <path id="Path_737" d="M1862.863 2166.727a.863.863 0 1 0-.863-.864.862.862 0 0 0 .863.864z" class="cls-4" data-name="Path 737" transform="translate(-1842.968 -2140.112)"/>
            <path id="Path_738" d="M506.863 5378.713a.857.857 0 1 0-.863-.851.859.859 0 0 0 .863.851z" class="cls-4" data-name="Path 738" transform="translate(-504.977 -5309.452)"/>
            <path id="Path_739" d="M1662.863 7390.728a.864.864 0 1 0-.863-.864.862.862 0 0 0 .863.864z" class="cls-4" data-name="Path 739" transform="translate(-1645.624 -7294.732)"/>
            <path id="Path_740" d="M13581.863 6263.714a.857.857 0 1 0-.863-.851.856.856 0 0 0 .863.851z" class="cls-4" data-name="Path 740" transform="translate(-13406.324 -6182.7)"/>
            <path id="Path_741" d="M13909.862 1681.713a.857.857 0 1 0-.863-.85.86.86 0 0 0 .863.85z" class="cls-4" data-name="Path 741" transform="translate(-13729.968 -1661.553)"/>
            <path id="Path_742" d="M4688.863 4236.727a.863.863 0 1 0-.863-.864.87.87 0 0 0 .863.864z" class="cls-4" data-name="Path 742" transform="translate(-4631.435 -4182.62)"/>
            <path id="Path_743" d="M3289.863 6506.713a.857.857 0 1 0-.863-.864.871.871 0 0 0 .863.864z" class="cls-4" data-name="Path 743" transform="translate(-3251.015 -6422.473)"/>
            <path id="Path_744" d="M8057.864 6648.727a.863.863 0 1 0-.863-.863.858.858 0 0 0 .863.863z" class="cls-4" data-name="Path 744" transform="translate(-7955.691 -6562.586)"/>
            <path id="Path_745" d="M9627.863 3037.726a.863.863 0 0 0 0-1.727.863.863 0 0 0 0 1.727z" class="cls-4" data-name="Path 745" transform="translate(-9504.838 -2999.544)"/>
            <path id="Path_746" d="M6230.863 1738.727a.863.863 0 1 0-.864-.863.859.859 0 0 0 .864.863z" class="cls-4" data-name="Path 746" transform="translate(-6152.955 -1717.796)"/>
            <path id="Path_747" d="M9441.863 2095.713a.857.857 0 1 0 0-1.713.857.857 0 1 0 0 1.713z" class="cls-4" data-name="Path 747" transform="translate(-9321.309 -2070.054)"/>
            <path id="Path_748" d="M4136.863 292.727a.863.863 0 1 0-.863-.863.859.859 0 0 0 .863.863z" class="cls-1" data-name="Path 748" transform="translate(-4086.766 -291)"/>
            <path id="Path_749" d="M796.863 2719.713a.856.856 0 1 0-.863-.85.855.855 0 0 0 .863.85z" class="cls-1" data-name="Path 749" transform="translate(-791.126 -2685.767)"/>
            <path id="Path_750" d="M1781.85 4960.713a.856.856 0 1 0-.85-.85.859.859 0 0 0 .85.85z" class="cls-1" data-name="Path 750" transform="translate(-1763.044 -4897.004)"/>
            <path id="Path_751" d="M7933.85 6216.727a.869.869 0 0 0 .862-.863.856.856 0 1 0-.862.863z" class="cls-1" data-name="Path 751" transform="translate(-7833.338 -6136.325)"/>
            <path id="Path_752" d="M13985.862 5274.713a.856.856 0 1 0-.863-.85.855.855 0 0 0 .863.85z" class="cls-1" data-name="Path 752" transform="translate(-13804.959 -5206.834)"/>
            <path id="Path_753" d="M11929.861 5317.714a.857.857 0 1 0-.862-.85.859.859 0 0 0 .862.85z" class="cls-1" data-name="Path 753" transform="translate(-11776.266 -5249.264)"/>
            <path id="Path_754" d="M13086.85 706.727a.863.863 0 1 0-.85-.863.862.862 0 0 0 .85.863z" class="cls-1" data-name="Path 754" transform="translate(-12917.899 -699.502)"/>
            <path id="Path_755" d="M7504.863 906.727a.863.863 0 0 0 0-1.727.863.863 0 0 0 0 1.727z" class="cls-1" data-name="Path 755" transform="translate(-7410.036 -896.846)"/>
            <path id="Path_756" d="M10716.863 349.727a.863.863 0 0 0 0-1.727.863.863 0 1 0 0 1.727z" class="cls-1" data-name="Path 756" transform="translate(-10579.374 -347.243)"/>
            <path id="Path_757" d="M7972.864 511.713a.857.857 0 1 0-.864-.863.86.86 0 0 0 .864.863z" class="cls-8" data-name="Path 757" transform="translate(-7871.819 -507.091)"/>
            <path id="Path_758" d="M6125.863 7821.713a.857.857 0 1 0-.863-.864.859.859 0 0 0 .863.864z" class="cls-8" data-name="Path 758" transform="translate(-6049.35 -7720.007)"/>
            <path id="Path_759" d="M1028.863 4763.714a.857.857 0 1 0-.863-.851.859.859 0 0 0 .863.851z" class="cls-8" data-name="Path 759" transform="translate(-1020.045 -4702.621)"/>
            <path id="Path_760" d="M1618.85 877.713a.857.857 0 1 0-.85-.85.859.859 0 0 0 .85.85z" class="cls-8" data-name="Path 760" transform="translate(-1602.209 -868.231)"/>
            <path id="Path_761" d="M2924.85 2486.713a.856.856 0 1 0-.85-.863.861.861 0 0 0 .85.863z" class="cls-8" data-name="Path 761" transform="translate(-2890.864 -2455.862)"/>
            <path id="Path_762" d="M5153.862 941.713a.857.857 0 1 0-.863-.863.862.862 0 0 0 .863.863z" class="cls-8" data-name="Path 762" transform="translate(-5090.258 -931.381)"/>
            <path id="Path_763" d="M7670.849 1562.714a.857.857 0 1 0-.85-.85.859.859 0 0 0 .85.85z" class="cls-8" data-name="Path 763" transform="translate(-7573.83 -1544.133)"/>
            <path id="Path_764" d="M3688.863 4476.726a.863.863 0 1 0-.863-.864.87.87 0 0 0 .863.864z" class="cls-8" data-name="Path 764" transform="translate(-3644.717 -4419.432)"/>
            <path id="Path_765" d="M5074.849 6754.714a.857.857 0 1 0-.85-.864.862.862 0 0 0 .85.864z" class="cls-8" data-name="Path 765" transform="translate(-5012.308 -6667.179)"/>
            <path id="Path_766" d="M7526.862 7805.714a.857.857 0 1 0-.863-.851.859.859 0 0 0 .863.851z" class="cls-8" data-name="Path 766" transform="translate(-7431.742 -7704.22)"/>
            <path id="Path_767" d="M8800.861 3744.713a.856.856 0 1 0-.863-.863.863.863 0 0 0 .863.863z" class="cls-8" data-name="Path 767" transform="translate(-8688.821 -3697.155)"/>
            <path id="Path_768" d="M6300.863 2788.726a.863.863 0 1 0-.863-.864.858.858 0 0 0 .863.864z" class="cls-8" data-name="Path 768" transform="translate(-6222.026 -2753.851)"/>
            <path id="Path_769" d="M5535.863 4014.726a.863.863 0 1 0 0-1.726.863.863 0 1 0 0 1.726z" class="cls-8" data-name="Path 769" transform="translate(-5467.186 -3963.569)"/>
            <path id="Path_770" d="M9103.865 3075.714a.857.857 0 1 0-.864-.85.857.857 0 0 0 .864.85z" class="cls-8" data-name="Path 770" transform="translate(-8987.798 -3037.039)"/>
            <path id="Path_771" d="M10536.863 3983.714a.857.857 0 1 0-.863-.864.862.862 0 0 0 .863.864z" class="cls-8" data-name="Path 771" transform="translate(-10401.767 -3932.981)"/>
            <path id="Path_772" d="M8291.85 6403.727a.863.863 0 1 0-.85-.864.861.861 0 0 0 .85.864z" class="cls-8" data-name="Path 772" transform="translate(-8186.582 -6320.84)"/>
            <path id="Path_773" d="M10887.85 5926.713a.857.857 0 1 0-.85-.864.861.861 0 0 0 .85.864z" class="cls-8" data-name="Path 773" transform="translate(-10748.104 -5850.174)"/>
            <path id="Path_774" d="M10934.863 2868.713a.857.857 0 1 0-.863-.863.861.861 0 0 0 .863.863z" class="cls-8" data-name="Path 774" transform="translate(-10794.48 -2832.788)"/>
            <path id="Path_775" d="M11022.85 1084.726a.863.863 0 1 0 0-1.726.858.858 0 0 0-.85.863.867.867 0 0 0 .85.863z" class="cls-3" data-name="Path 775" transform="translate(-10881.312 -1072.481)"/>
            <path id="Path_776" d="M13267.863 4620.714a.857.857 0 1 0-.863-.864.863.863 0 0 0 .863.864z" class="cls-3" data-name="Path 776" transform="translate(-13096.497 -4561.521)"/>
            <path id="Path_777" d="M1339.85 2024.713a.857.857 0 1 0-.85-.863.862.862 0 0 0 .85.863z" class="cls-3" data-name="Path 777" transform="translate(-1326.914 -1999.998)"/>
            <path id="Path_778" d="M4444.863 973.713a.857.857 0 1 0-.864-.863.862.862 0 0 0 .864.863z" class="cls-3" data-name="Path 778" transform="translate(-4390.675 -962.956)"/>
            <path id="Path_779" d="M8155.863 1275.727a.863.863 0 1 0-.863-.863.859.859 0 0 0 .863.863z" class="cls-3" data-name="Path 779" transform="translate(-8052.39 -1260.945)"/>
            <path id="Path_780" d="M1291.863 5703.714a.857.857 0 1 0-.863-.863.859.859 0 0 0 .863.863z" class="cls-3" data-name="Path 780" transform="translate(-1279.552 -5630.136)"/>
            <path id="Path_781" d="M2501.863 7200.714a.857.857 0 1 0-.864-.863.862.862 0 0 0 .864.863z" class="cls-3" data-name="Path 781" transform="translate(-2473.481 -7107.255)"/>
            <path id="Path_782" d="M4062.863 4428.727a.859.859 0 0 0 .851-.863.857.857 0 1 0-.851.863z" class="cls-3" data-name="Path 782" transform="translate(-4013.75 -4372.07)"/>
            <path id="Path_783" d="M3393.863 5066.714a.857.857 0 1 0 0-1.714.857.857 0 1 0 0 1.714z" class="cls-3" data-name="Path 783" transform="translate(-3353.635 -5001.597)"/>
            <path id="Path_784" d="M5957.863 4636.713a.857.857 0 1 0-.863-.863.862.862 0 0 0 .863.863z" class="cls-3" data-name="Path 784" transform="translate(-5883.582 -4577.307)"/>
            <path id="Path_785" d="M5161.863 2900.713a.857.857 0 1 0-.863-.863.858.858 0 0 0 .863.863z" class="cls-3" data-name="Path 785" transform="translate(-5098.154 -2864.363)"/>
            <path id="Path_786" d="M9302.85 4954.727a.869.869 0 0 0 .862-.863.856.856 0 1 0-.862.863z" class="cls-3" data-name="Path 786" transform="translate(-9184.154 -4891.085)"/>
            <path id="Path_787" d="M11245.848 4206.714a.857.857 0 1 0-.85-.863.863.863 0 0 0 .85.863z" class="cls-3" data-name="Path 787" transform="translate(-11101.348 -4153.019)"/>
            <path id="Path_788" d="M7199.863 8060.713a.856.856 0 1 0-.863-.863.861.861 0 0 0 .863.863z" class="cls-3" data-name="Path 788" transform="translate(-7109.085 -7955.833)"/>
            <path id="Path_789" d="M12853.864 6563.714a.857.857 0 1 0 0-1.714.857.857 0 1 0 0 1.714z" class="cls-3" data-name="Path 789" transform="translate(-12687.995 -6478.716)"/>
            <path id="Path_790" d="M14301.862 2470.713a.857.857 0 1 0-.863-.863.858.858 0 0 0 .863.863z" class="cls-16" data-name="Path 790" transform="translate(-14116.763 -2440.074)"/>
            <path id="Path_791" d="M12995.863 3998.727a.869.869 0 0 0 .862-.863.863.863 0 1 0-1.726 0 .861.861 0 0 0 .864.863z" class="cls-16" data-name="Path 791" transform="translate(-12828.107 -3947.781)"/>
            <path id="Path_792" d="M1767.863 2852.713a.857.857 0 1 0-.863-.85.859.859 0 0 0 .863.85z" class="cls-16" data-name="Path 792" transform="translate(-1749.23 -2817.001)"/>
            <path id="Path_793" d="M429.863 4301.727a.863.863 0 1 0-.863-.864.87.87 0 0 0 .863.864z" class="cls-16" data-name="Path 793" transform="translate(-429 -4246.757)"/>
            <path id="Path_794" d="M13409.865 7152.714a.857.857 0 1 0-.865-.851.868.868 0 0 0 .865.851z" class="cls-16" data-name="Path 794" transform="translate(-13236.609 -7059.894)"/>
            <path id="Path_795" d="M12629.852 4731.726a.863.863 0 1 0 0-1.727.863.863 0 0 0 0 1.727z" class="cls-16" data-name="Path 795" transform="translate(-12466.968 -4671.045)"/>
            <path id="Path_796" d="M11705.865 1705.726a.863.863 0 1 0-.864-.863.859.859 0 0 0 .864.863z" class="cls-16" data-name="Path 796" transform="translate(-11555.241 -1685.234)"/>
            <path id="Path_797" d="M4889.85 3935.713a.856.856 0 1 0-.85-.85.858.858 0 0 0 .85.85z" class="cls-16" data-name="Path 797" transform="translate(-4829.766 -3885.618)"/>
            <path id="Path_798" d="M3360.863 3983.714a.857.857 0 1 0-.864-.864.859.859 0 0 0 .864.864z" class="cls-16" data-name="Path 798" transform="translate(-3321.073 -3932.981)"/>
            <path id="Path_799" d="M2197.863 4413.714a.857.857 0 1 0-.864-.863.862.862 0 0 0 .864.863z" class="cls-16" data-name="Path 799" transform="translate(-2173.519 -4357.27)"/>
            <path id="Path_800" d="M4506.863 6451.727a.863.863 0 1 0-.864-.863.879.879 0 0 0 .864.863z" class="cls-16" data-name="Path 800" transform="translate(-4451.852 -6368.204)"/>
            <path id="Path_801" d="M6991.863 7805.714a.857.857 0 1 0-.863-.851.857.857 0 0 0 .863.851z" class="cls-16" data-name="Path 801" transform="translate(-6903.849 -7704.22)"/>
            <path id="Path_802" d="M10319.865 3983.714a.857.857 0 1 0-.864-.864.871.871 0 0 0 .864.864z" class="cls-16" data-name="Path 802" transform="translate(-10187.649 -3932.981)"/>
            <path id="Path_803" d="M7962.864 3648.727a.863.863 0 1 0-.863-.863.861.861 0 0 0 .863.863z" class="cls-16" data-name="Path 803" transform="translate(-7861.953 -3602.429)"/>
            <path id="Path_804" d="M6258.864 3298.713a.857.857 0 1 0-.863-.863.862.862 0 0 0 .863.863z" class="cls-16" data-name="Path 804" transform="translate(-6180.584 -3257.077)"/>
            <path id="Path_805" d="M5462.863 5034.713a.857.857 0 1 0-.863-.864.859.859 0 0 0 .863.864z" class="cls-16" data-name="Path 805" transform="translate(-5395.155 -4970.022)"/>
            <path id="Path_806" d="M8775.849 4874.727a.863.863 0 1 0-.85-.863.861.861 0 0 0 .85.863z" class="cls-16" data-name="Path 806" transform="translate(-8664.154 -4812.147)"/>
            <path id="Path_807" d="M9937.863 3361.726a.863.863 0 1 0-.863-.863.861.861 0 0 0 .863.863z" class="cls-16" data-name="Path 807" transform="translate(-9810.722 -3319.241)"/>
            <path id="Path_808" d="M9969.81 8063.833c.214-.823.186-.97-.811-1.833 1.356.239 1.781 1.076.811 1.833z" class="cls-14" data-name="Path 808" transform="translate(-9842.296 -7958.794)"/>
        </g>
    </g>
</svg>
