<svg xmlns="http://www.w3.org/2000/svg" id="clock" viewBox="0 0 24 24">
    <defs>
        <style>
            .cls-1{fill:#fff}
        </style>
    </defs>
    <g id="Group_6" data-name="Group 6">
        <g id="Group_5" data-name="Group 5">
            <path id="Path_11" d="M20.485 3.515a12 12 0 0 0-16.97 16.97 12 12 0 0 0 16.97-16.97zM12 22.585A10.585 10.585 0 1 1 22.585 12 10.6 10.6 0 0 1 12 22.585z" class="cls-1" data-name="Path 11"/>
        </g>
    </g>
    <g id="Group_8" data-name="Group 8" transform="translate(2.799 2.799)">
        <g id="Group_7" data-name="Group 7">
            <path id="Path_12" d="M68.922 59.721a9.2 9.2 0 1 0 9.2 9.2 9.211 9.211 0 0 0-9.2-9.2zm5.973 14.173l-.71-.71a.708.708 0 0 0-1 1l.71.71a7.741 7.741 0 0 1-4.265 1.77v-1.006a.708.708 0 0 0-1.415 0v1.007a7.741 7.741 0 0 1-4.265-1.77l.71-.71a.708.708 0 0 0-1-1l-.71.71a7.741 7.741 0 0 1-1.77-4.265h1.007a.708.708 0 1 0 0-1.415h-1.009a7.741 7.741 0 0 1 1.77-4.265l.71.71a.708.708 0 1 0 1-1l-.71-.71a7.741 7.741 0 0 1 4.265-1.77v1.007a.708.708 0 1 0 1.415 0v-1.009a7.741 7.741 0 0 1 4.265 1.77l-.71.71a.708.708 0 1 0 1 1l.71-.71a7.741 7.741 0 0 1 1.77 4.265h-1.005a.708.708 0 0 0 0 1.415h1.007a7.74 7.74 0 0 1-1.77 4.266z" class="cls-1" data-name="Path 12" transform="translate(-59.721 -59.721)"/>
        </g>
    </g>
    <g id="Group_10" data-name="Group 10" transform="translate(8.551 11.292)">
        <g id="Group_9" data-name="Group 9">
            <path id="Path_13" d="M189.742 240.9h-3.877a.708.708 0 0 0-.5.207l-2.742 2.742a.708.708 0 1 0 1 1l2.534-2.534h3.584a.708.708 0 0 0 0-1.415z" class="cls-1" data-name="Path 13" transform="translate(-182.415 -240.9)"/>
        </g>
    </g>
</svg>
