<svg xmlns="http://www.w3.org/2000/svg" id="winners-cup-icon" viewBox="0 0 29.234 25.985">
    <defs>
        <style>
            .cls-1{fill:#fff}
        </style>
    </defs>
    <g id="Group_4" data-name="Group 4">
        <g id="Trophy">
            <g id="Group_3" data-name="Group 3">
                <path id="Path_10" d="M6.46 48.653a.226.226 0 0 0 .037 0v-.032c-.065.023-.062.032-.037.032zm6.533 8.085h-1.624a3.248 3.248 0 0 0-3.249 3.247h12.993a3.248 3.248 0 0 0-3.248-3.248h-1.624v-3.248h-3.248zm9.781-8.085c.024 0 .027-.009-.037-.036v.032a.227.227 0 0 0 .037.004zm4.836-11.4h-4.873v-1.629A1.624 1.624 0 0 0 21.113 34H8.12a1.624 1.624 0 0 0-1.62 1.624v1.624H1.624A1.624 1.624 0 0 0 0 38.872v3.248a6.314 6.314 0 0 0 6.5 6.5h.68a8.117 8.117 0 0 0 14.88 0h.68a6.314 6.314 0 0 0 6.5-6.5v-3.248a1.624 1.624 0 0 0-1.63-1.624zM6.5 45.369a3.058 3.058 0 0 1-3.252-3.249V40.5H6.5zm12.993 1.013l-.408.934a4.869 4.869 0 0 1-8.928 0l-.408-.934v-9.134h9.745zm6.5-4.262a3.058 3.058 0 0 1-3.248 3.248V40.5h3.248z" class="cls-1" data-name="Path 10" transform="translate(0 -34)"/>
            </g>
        </g>
    </g>
</svg>
