<svg xmlns="http://www.w3.org/2000/svg" viewBox="0 0 73.116 100">
    <defs>
        <style>
            .cls-1{fill:#be7332}.cls-2{fill:#ffd432}.cls-3{fill:#f9b32a}.cls-4{fill:#856758}.cls-5{fill:#ca8a51}.cls-6{fill:#fdda4f}.cls-7{fill:#fbbe44}
        </style>
    </defs>
    <g id="cup" transform="translate(-1.473)">
        <g id="_2473825645040" transform="translate(1.472)">
            <path id="Path_895" d="M994 4447.938h36.54V4432H994z" class="cls-1" data-name="Path 895" transform="translate(-975.711 -4350.334)"/>
            <path id="Path_896" d="M1194.053 3310h-8.237s.755 9.8-10.816 17.781h29.869c-11.569-7.981-10.816-17.781-10.816-17.781z" class="cls-2" data-name="Path 896" transform="translate(-1153.376 -3249.009)"/>
            <path id="Path_897" d="M1617.1 2748.057a7.048 7.048 0 1 1-7.057-7.057 7.042 7.042 0 0 1 7.057 7.057z" class="cls-3" data-name="Path 897" transform="translate(-1573.49 -2690.493)"/>
            <path id="Path_898" d="M17.308 536H1.572s-2.4 28.708 27.547 42.639v-3.151S8.187 564.34 6.179 543.629h12.862z" class="cls-3" data-name="Path 898" transform="translate(-1.526 -526.123)"/>
            <path id="Path_899" d="M2483.811 536h15.736s2.4 28.708-27.547 42.639v-3.151s20.932-11.148 22.941-31.859h-12.862z" class="cls-3" data-name="Path 899" transform="translate(-2426.477 -526.123)"/>
            <path id="Path_900" d="M543.068 170H516c0 20.343 10.89 54.432 27.068 54.432 16.2 0 27.087-34.089 27.087-54.432z" class="cls-2" data-name="Path 900" transform="translate(-506.519 -166.868)"/>
            <path id="Path_901" d="M298.548 2.506a2.493 2.493 0 0 1-2.506 2.488h-59.554a2.5 2.5 0 0 1 0-4.994h59.554a2.509 2.509 0 0 1 2.506 2.506z" class="cls-3" data-name="Path 901" transform="translate(-229.715)"/>
            <path id="Path_902" d="M630.419 1135.731h47.153c.534-1.9 1-3.814 1.419-5.731H629c.424 1.916.884 3.833 1.419 5.731z" class="cls-3" data-name="Path 902" transform="translate(-617.437 -1109.178)"/>
            <path id="Path_903" d="M877.4 4276.456a1.447 1.447 0 0 1-1.456 1.455h-39.488a1.456 1.456 0 1 1 0-2.911h39.488a1.459 1.459 0 0 1 1.456 1.456z" class="cls-3" data-name="Path 903" transform="translate(-819.641 -4196.228)"/>
            <path id="Path_904" d="M877.4 5270.456a1.458 1.458 0 0 1-1.456 1.455h-39.488a1.456 1.456 0 1 1 0-2.911h39.488a1.447 1.447 0 0 1 1.456 1.456z" class="cls-3" data-name="Path 904" transform="translate(-819.641 -5171.911)"/>
            <path id="Path_905" d="M1388.812 4567.384a2.312 2.312 0 0 1-2.322 2.322h-18.15a2.328 2.328 0 0 1-2.34-2.322v-6.062a2.328 2.328 0 0 1 2.34-2.322h18.15a2.312 2.312 0 0 1 2.322 2.322z" class="cls-2" data-name="Path 905" transform="translate(-1340.857 -4474.994)"/>
            <path id="Path_906" d="M856.19 4373.771h-19.734a1.459 1.459 0 0 1-1.456-1.456 1.459 1.459 0 0 0 1.456 1.456zM835 4372.3a1.455 1.455 0 0 1 1.456-1.437A1.455 1.455 0 0 0 835 4372.3zm2.93-16.842h-1.474A1.447 1.447 0 0 1 835 4354a1.447 1.447 0 0 0 1.456 1.456z" class="cls-4" data-name="Path 906" transform="translate(-819.641 -4273.771)"/>
            <path id="Path_907" d="M1012.261 4448.4H994V4433h18.261v2.322h-9.066a2.328 2.328 0 0 0-2.34 2.322v6.063a2.328 2.328 0 0 0 2.34 2.321h9.066z" class="cls-5" data-name="Path 907" transform="translate(-975.711 -4351.316)"/>
            <path id="Path_908" d="M835 3446.044a1.471 1.471 0 0 1 1.456-1.456 1.471 1.471 0 0 0-1.456 1.456zm6.283-1.474zm.037-.019zm.037-.018zm.037-.018zm.037-.037zm.018-.018zm.037-.018zm.037-.037zm.037-.018zm.037-.018zm.018-.019l.018-.018zm.037-.037zm.037-.019zm.037-.019zm.037-.037zm.018-.019zm.037-.019zm.037-.018zm.037-.037zm.037-.019zm.018-.018zm.11-.074zm.055-.055zm.074-.037zm7.9-9.1zm0-.019a19.108 19.108 0 0 0 1.861-5.823 19.108 19.108 0 0 1-1.856 5.823z" class="cls-4" data-name="Path 908" transform="translate(-819.641 -3365.816)"/>
            <path id="Path_909" d="M1189.925 3444.589H1175a.018.018 0 0 0 .018-.019h.018l.018-.019c.018-.018.018-.018.037-.018v-.018h.037v-.019c.019 0 .019-.019.037-.019l.019-.018h.018a.018.018 0 0 1 .019-.018v-.019c.018 0 .018 0 .037-.019h.018a.018.018 0 0 1 .018-.018c.018-.018.018-.018.037-.018a.018.018 0 0 1 .018-.019l.018-.018a.018.018 0 0 0 .018-.018c.018 0 .018-.019.037-.019h.018c0-.019 0-.019.018-.019v-.018c.018 0 .018 0 .037-.018a.018.018 0 0 0 .018-.019h.019a.018.018 0 0 1 .018-.019c.019-.018.019-.018.037-.018v-.018c.019 0 .019 0 .037-.019.018 0 .018-.019.037-.019a.018.018 0 0 1 .018-.018h.018a.183.183 0 0 1 .092-.074l.055-.055a.1.1 0 0 1 .074-.037 25.715 25.715 0 0 0 7.9-9.1v-.019a19.108 19.108 0 0 0 1.861-5.823 7.062 7.062 0 0 0 4.238 1.419z" class="cls-6" data-name="Path 909" transform="translate(-1153.376 -3365.816)"/>
            <path id="Path_910" d="M1610.039 3022.084a7.063 7.063 0 0 1-4.238-1.419v-.019a7.033 7.033 0 0 1-2.8-5.6 7.412 7.412 0 0 1 .295-2.045 12.821 12.821 0 0 0 6.744 2.045z" class="cls-7" data-name="Path 910" transform="translate(-1573.49 -2957.481)"/>
            <path id="Path_911" d="M23.79 570.015c-5.454-4.607-12.161-12.088-14.5-22.185 2.34 10.1 9.047 17.56 14.483 22.185zM9.288 547.83a3.212 3.212 0 0 0-.092-.405 3.212 3.212 0 0 1 .092.405zm-.092-.405a36.955 36.955 0 0 1-.571-3.575c.129 1.216.332 2.413.575 3.574zm-.571-3.575a.567.567 0 0 0-.018-.184.567.567 0 0 1 .018.184zm-.018-.184v-.037zM4 536.018zM4 536zm0 0zm0 0zm0 0zm0 0z" class="cls-4" data-name="Path 911" transform="translate(-3.953 -526.123)"/>
            <path id="Path_912" d="M26.247 577.22C-.4 563.05 1.464 536.645 1.519 536.018V536H11.3c.24 2.451.59 5.03 1.069 7.629H6.126v.037a.567.567 0 0 1 .018.184c.129 1.216.332 2.414.571 3.575a3.212 3.212 0 0 1 .092.405c2.34 10.1 9.047 17.579 14.5 22.185a39.871 39.871 0 0 0 4.94 7.205z" class="cls-7" data-name="Path 912" transform="translate(-1.472 -526.123)"/>
            <path id="Path_913" d="M544.05 323.57a12.821 12.821 0 0 1-6.744-2.045 23.078 23.078 0 0 1-5.03-4.4v-.025a39.865 39.865 0 0 1-4.938-7.2h-.018a81.548 81.548 0 0 1-6.836-17.339h23.566zm-24.286-33.757c-.258-1-.479-1.99-.7-2.985q-.359-1.658-.663-3.317a91.588 91.588 0 0 1-1.069-7.629 65.611 65.611 0 0 1-.313-4.883h27.031v15.828h-24.986c.221.996.442 1.991.7 2.986z" class="cls-6" data-name="Path 913" transform="translate(-507.501 -266.006)"/>
            <path id="Path_914" d="M266.265 4.994h-29.777A2.478 2.478 0 0 1 234 2.561v-.055A2.5 2.5 0 0 1 236.488 0h29.777z" class="cls-7" data-name="Path 914" transform="translate(-229.715)"/>
            <path id="Path_915" d="M653.986 1135.731h-23.567a81.55 81.55 0 0 1-.719-2.745c-.258-1-.479-1.99-.7-2.985h24.986z" class="cls-7" data-name="Path 915" transform="translate(-617.437 -1109.178)"/>
            <path id="Path_916" d="M856.19 4277.911h-19.734a1.447 1.447 0 0 1-1.456-1.455 1.471 1.471 0 0 1 1.456-1.456h19.734z" class="cls-7" data-name="Path 916" transform="translate(-819.641 -4196.228)"/>
            <path id="Path_917" d="M856.19 5271.911h-19.734a1.458 1.458 0 0 1-1.456-1.455v-.019a1.455 1.455 0 0 1 1.456-1.437h19.734z" class="cls-7" data-name="Path 917" transform="translate(-819.641 -5171.911)"/>
            <path id="Path_918" d="M1377.406 4569.706h-9.066a2.328 2.328 0 0 1-2.34-2.322v-6.062a2.328 2.328 0 0 1 2.34-2.322h9.066z" class="cls-6" data-name="Path 918" transform="translate(-1340.857 -4474.994)"/>
        </g>
    </g>
</svg>
