<svg xmlns="http://www.w3.org/2000/svg" viewBox="0 0 303 61">
    <defs>
        <style>
            .cls-1,.cls-2{fill:#00988d;fill-rule:evenodd}.cls-2{fill:#fff}
        </style>
    </defs>
    <g id="Логотип" transform="translate(0 -.089)">
        <g id="_1921829087808" transform="translate(0 .089)">
            <path id="Path_1" d="M4084.229 1933.115c3.744-.295 9.743 3.813 10.5 13.909.817 10.1-4.267 15.071-8.239 15.414-3.923.344-5.951-2.144-7.8-6.005 1.8 3.175 4.4 5.138 7.16 4.958 4.561-.393 7.847-6.807 7.209-14.367-.572-7.445-4.79-13.221-9.4-12.878-2.37.229-4.332 1.964-5.656 4.68 1.387-3.289 2.482-5.368 6.226-5.711z" class="cls-1" data-name="Path 1" transform="translate(-4011.335 -1901.47)"/>
            <path id="Path_2" d="M2763.584 1673.005s-4.316-4.565-2.534-5.024c5.362-.916 14.647-2.193 16.609-2.127 3.286 0-1.1 3.976-.866 3.682.981-1.489 1.275-2.88-.458-2.814-1.847.114-9.858.965-12.915 1.6-2.141.478-.752 2.9.164 4.683z" class="cls-1" data-name="Path 2" transform="translate(-2715.489 -1638.595)"/>
            <path id="Path_3" d="M5067.708 790.081c.916-4.156 8.876-1.964 10.43.049a5.536 5.536 0 0 0-2.812.753 31.63 31.63 0 0 0-4.789.295c-.981.278-.867.524-.867.524s6.687.736 9.057 0c.229 1.718-3.695 1.44-5.885 1.489-2.829-.001-5.772-.344-5.134-3.11z" class="cls-1" data-name="Path 3" transform="translate(-4984.777 -774.832)"/>
            <path id="Path_4" d="M873.362 1751.425a4.719 4.719 0 0 1 3.057 5.842 4.49 4.49 0 0 1-5.247 3.747 4.443 4.443 0 0 1-3.171-4.565 3.854 3.854 0 0 0 7.258 2.078l-3.449-1.554-3.286 1.669-.065-.229 2.877-2.716.932-4.042a4.332 4.332 0 0 0-3.923 2.782 4.51 4.51 0 0 1 5.017-3.012zm0 0zm2.076 6.824a4.4 4.4 0 0 0 .409-1.211 4.271 4.271 0 0 0-2.828-5.269c-.18-.049-.343-.049-.523-.115v4.042z" class="cls-1" data-name="Path 4" transform="translate(-853.81 -1722.676)"/>
            <path id="Path_5" d="M1415 2071.295v.229a.326.326 0 0 0 .343.344c2.24.065 15.514-.164 17.247-.638-8.37-.049-15.628-.164-17.247-.229-.065 0-.18 0-.229.065a.345.345 0 0 0-.114.229z" class="cls-1" data-name="Path 5" transform="translate(-1391.868 -2037.113)"/>
            <path id="Path_6" d="M12.98 2050.344v.229c0 .246-.114.36-.229.36-1.684 0-11.476-.474-12.751-.933 6.163.114 11.541.065 12.751 0 .049 0 .114.065.163.114a.332.332 0 0 1 .066.23z" class="cls-1" data-name="Path 6" transform="translate(0 -2016.457)"/>
            <path id="Path_7" d="M207.237 37.445c2.665-1.505.866-4.271-.638-6.234a5.064 5.064 0 0 0-3.335-2.307c-7.16-1.44-26.875-1.162-34.035-.933 8.3-1.145 32.074-2.945 36.8-.115l3.122-1.26c7.716-3.354 22.363-5.956 26.761-6.758-3.122-1.735-28.951-3.518-30.521-3.469-.572 0 18.178 0 32.417.638 1.03 0 1.847.065 2.305-.638 1.618-2.193 3.809-9.229 3.858-12.289.065-4.909-38.22-.295-41.457.164C217.16 1.135 234.749-.649 249.74.382c8.076.573 13.029 2.651 20.483 5.482-3.466-.982-11.607-3.518-14.942-3.813C252 1.773 249.054 2 248.3 4.244c-.915 2.6-2.419 9.016-2.3 12.125.163 3.011 6 3.354 11.59 3.125 3.972-.18 17.132-1.735 18.734-1.8-3.564.589-20.581 2.782-25.42 4.4-4.447 1.44-4.97 3.174-4.218 8.018-12.048-6.349-15.743 5.367-16.723 15.12-.049-3.976.523-10.391 2.943-14.432a37.424 37.424 0 0 1-10.544 2.667c2.583-.589 9.743-2.945 11.819-4.336.163-.229-2.076-2.144-3.122-2.536-1.782-.7-17.3 1.44-22.837 2.651a26.235 26.235 0 0 1 4.855 6.054c6.915-.458 11.7.065 14.533 8.427a75.116 75.116 0 0 1 2.583 9.7c-10.773-.344-24.848-.344-35.932-.573l32.711-1.391c-.229-1.031-.589-2.765-.817-3.747l-9.792.344 9.629-1.031a5.21 5.21 0 0 0-.229-.867 11.7 11.7 0 0 0-.7-1.8l-10.315.409 9.972-1.047a7.266 7.266 0 0 0-6.637-3.682c-18.44.8-28.363 3.109-49.075-1.1 8.141.507 28.608 1.964 35.883-.344a11.564 11.564 0 0 0 2.346-1.153z" class="cls-1" data-name="Path 7" transform="translate(-166.237 -.089)"/>
            <path id="Path_8" d="M5855.763 1509.758h4.446v-4.385a1.979 1.979 0 0 0-.245-1.047 2.315 2.315 0 0 0-1.03-.278v-.524a13.262 13.262 0 0 0 2.01.115 13.907 13.907 0 0 0 2.027-.115v.524a2.463 2.463 0 0 0-1.1.278 2.126 2.126 0 0 0-.18 1.047v9.982a2.127 2.127 0 0 0 .18 1.047 1.606 1.606 0 0 0 1.1.278v.524a14.217 14.217 0 0 0-2.027-.115 13.673 13.673 0 0 0-2.01.115v-.524a1.489 1.489 0 0 0 1.03-.278 1.508 1.508 0 0 0 .245-1.047v-4.955h-4.446v4.958a1.521 1.521 0 0 0 .229 1.047c.114.164.458.278 1.046.278v.524a14.221 14.221 0 0 0-2.027-.115 13.557 13.557 0 0 0-2.011.115v-.524c.572 0 .916-.115 1.03-.278a1.524 1.524 0 0 0 .229-1.047v-9.982a1.523 1.523 0 0 0-.229-1.047 1.934 1.934 0 0 0-1.03-.278v-.524a13.261 13.261 0 0 0 2.011.115 13.907 13.907 0 0 0 2.027-.115v.524a1.952 1.952 0 0 0-1.046.278 1.52 1.52 0 0 0-.229 1.047zm0 0zm15.17 6.873v.524a3.888 3.888 0 0 1-.981.163c-.752 0-1.21-.573-1.275-1.669a2.265 2.265 0 0 1-2.125 1.669 2.089 2.089 0 0 1-1.618-.687 2.785 2.785 0 0 1-.638-1.915 2.844 2.844 0 0 1 1.21-2.422 7.439 7.439 0 0 1 2.942-1.146v-1.44a2.215 2.215 0 0 0-.294-1.342.915.915 0 0 0-.916-.458 1.383 1.383 0 0 0-.866.295 1.041 1.041 0 0 0-.343.8v.638c0 .573-.229.867-.7.867-.393 0-.572-.295-.572-.753a2.21 2.21 0 0 1 .817-1.734 2.6 2.6 0 0 1 1.831-.687 2.481 2.481 0 0 1 1.275.344 2.448 2.448 0 0 1 .867.867 4.879 4.879 0 0 1 .343 2.078v4.271a8.127 8.127 0 0 0 .115 1.391.541.541 0 0 0 .523.393 1.544 1.544 0 0 0 .405-.047zm0 0zm-2.485-4.909a4.637 4.637 0 0 0-1.438.524 2.481 2.481 0 0 0-1.21 2.356 2.834 2.834 0 0 0 .278 1.342 1.04 1.04 0 0 0 .932.507c.981 0 1.438-.982 1.438-2.994zm0 0zm7.029-3.812a1.222 1.222 0 0 0-.8.229 1.246 1.246 0 0 0-.229.818v6.578c0 .458.115.753.294.867.163.164.572.229 1.259.229.409 0 .687-.066.817-.066a.9.9 0 0 0 .393-.115 1.2 1.2 0 0 0 .294-.916v-6.578c0-.409-.065-.7-.229-.818-.115-.164-.409-.229-.817-.229v-.409c.7.065 1.274.065 1.8.065.458 0 1.03 0 1.732-.065v.409a1.411 1.411 0 0 0-.866.229 1.306 1.306 0 0 0-.229.867v6.644a1.451 1.451 0 0 0 .229.867 2.088 2.088 0 0 0 .866.229v2.651h-.408a3.8 3.8 0 0 0-.458-1.849 2.313 2.313 0 0 0-1.456-.393h-5.705v-.409a1.862 1.862 0 0 0 .866-.229c.18-.18.229-.409.229-.867v-6.644c0-.458-.049-.753-.229-.867a1.3 1.3 0 0 0-.866-.229v-.409c.7.065 1.275.065 1.733.065a17.8 17.8 0 0 0 1.781-.065zm0 0zm11.247 2.307l-2.991 5.318v.229a1.365 1.365 0 0 0 .163.8 1.244 1.244 0 0 0 .817.229v.409c-.7-.049-1.275-.115-1.732-.115-.523 0-1.1.066-1.782.115v-.409a1.739 1.739 0 0 0 .866-.229c.164-.115.229-.393.229-.867v-6.693c0-.458-.065-.753-.229-.867a1.338 1.338 0 0 0-.866-.229v-.409a17.806 17.806 0 0 0 1.782.065c.457 0 1.03 0 1.732-.065v.409a1.244 1.244 0 0 0-.817.229 1.325 1.325 0 0 0-.163.818v5.417l2.991-5.367v-.049a1.325 1.325 0 0 0-.163-.818 1.174 1.174 0 0 0-.867-.229v-.409c.687.065 1.324.065 1.782.065s1.047 0 1.8-.065v.409a1.5 1.5 0 0 0-.932.229 1.373 1.373 0 0 0-.18.867v6.693a1.478 1.478 0 0 0 .18.867 1.947 1.947 0 0 0 .932.229v.409c-.751-.049-1.34-.115-1.8-.115s-1.1.066-1.782.115v-.409a1.453 1.453 0 0 0 .867-.229 1.266 1.266 0 0 0 .163-.8zm0 0zm7.095-2.945a2.433 2.433 0 0 1 1.913.933 5.182 5.182 0 0 1 .866 1.734 11.58 11.58 0 0 1 .278 2.356 7.446 7.446 0 0 1-.8 3.584 2.7 2.7 0 0 1-2.371 1.505 2.468 2.468 0 0 1-1.667-.7 4.8 4.8 0 0 1-1.1-1.784 8.824 8.824 0 0 1-.343-2.536 6.64 6.64 0 0 1 .8-3.518 2.792 2.792 0 0 1 2.424-1.575zm0 0zm-.049.523c-.409 0-.752.295-1.1.818a8.517 8.517 0 0 0-.588 3.8c0 2.945.523 4.451 1.618 4.451a1.314 1.314 0 0 0 1.1-.753 8.266 8.266 0 0 0 .572-3.7c.001-3.062-.506-4.617-1.601-4.617zm0 0zm10.037 4.615h-3.057v3.354a1.3 1.3 0 0 0 .229.8 1.191 1.191 0 0 0 .8.229v.409c-.687-.049-1.324-.115-1.782-.115-.474 0-1.047.066-1.733.115v-.409a1.681 1.681 0 0 0 .866-.229c.164-.115.229-.393.229-.867v-6.693c0-.458-.065-.753-.229-.867a1.3 1.3 0 0 0-.866-.229v-.409c.686.065 1.259.065 1.733.065.458 0 1.1 0 1.782-.065v.409a1.191 1.191 0 0 0-.8.229 1.246 1.246 0 0 0-.229.818v2.946h3.057v-2.946a1.3 1.3 0 0 0-.18-.818 1.25 1.25 0 0 0-.866-.229v-.409c.687.065 1.275.065 1.782.065.474 0 1.046 0 1.8-.065v.409a1.538 1.538 0 0 0-.932.229 1.407 1.407 0 0 0-.164.867v6.693a1.51 1.51 0 0 0 .164.867 2.01 2.01 0 0 0 .932.229v.409c-.752-.049-1.324-.115-1.8-.115-.507 0-1.1.066-1.782.115v-.409a1.575 1.575 0 0 0 .866-.229 1.24 1.24 0 0 0 .18-.8zm0 0zm10.43 4.222v.524a3.486 3.486 0 0 1-.98.163c-.752 0-1.145-.573-1.275-1.669a2.21 2.21 0 0 1-2.125 1.669 2.111 2.111 0 0 1-1.618-.687 2.783 2.783 0 0 1-.638-1.915 2.75 2.75 0 0 1 1.275-2.422 6.892 6.892 0 0 1 2.943-1.146v-1.44a2.189 2.189 0 0 0-.344-1.342.911.911 0 0 0-.932-.458 1.381 1.381 0 0 0-.866.295 1.041 1.041 0 0 0-.343.8v.638c0 .573-.229.867-.687.867-.408 0-.572-.295-.572-.753a2.246 2.246 0 0 1 .8-1.734 2.752 2.752 0 0 1 1.847-.687 2.425 2.425 0 0 1 1.259.344 2.013 2.013 0 0 1 .867.867 4.834 4.834 0 0 1 .36 2.078v4.271a6.746 6.746 0 0 0 .114 1.391.523.523 0 0 0 .507.393 1.365 1.365 0 0 0 .408-.048zm0 0zm-2.419-4.909a4.609 4.609 0 0 0-1.5.524 2.511 2.511 0 0 0-1.21 2.356 2.635 2.635 0 0 0 .294 1.342 1.091 1.091 0 0 0 .916.507c.98 0 1.5-.982 1.5-2.994zm0 0zm4.675-3.812v-.409h7.095v.409a1.592 1.592 0 0 0-.932.295 1.3 1.3 0 0 0-.163.8v6.693a1.511 1.511 0 0 0 .163.867 2.223 2.223 0 0 0 .932.229v.409c-.7-.049-1.275-.115-1.8-.115-.458 0-1.03.066-1.732.115v-.409a1.389 1.389 0 0 0 .817-.229 1.262 1.262 0 0 0 .164-.8v-6.643a1.294 1.294 0 0 0-.164-.8 2.093 2.093 0 0 0-1.275-.229 2.269 2.269 0 0 0-1.1.164 1.617 1.617 0 0 0-.229 1.047l-.065 1.031a22.12 22.12 0 0 1-.621 4.794c-.409 1.44-1.046 2.193-1.848 2.193a1.11 1.11 0 0 1-.751-.278.96.96 0 0 1-.294-.7.933.933 0 0 1 .229-.638.748.748 0 0 1 .523-.229c.294 0 .458.18.638.523.049.115.114.115.114.115.294 0 .523-.295.752-.916a10.129 10.129 0 0 0 .458-2.144 22.321 22.321 0 0 0 .18-2.716l.049-.867v-.393c0-.458-.049-.753-.229-.867-.109-.189-.404-.238-.91-.304zm0 0zm10.773 3.583h.932a3.479 3.479 0 0 1 1.848.409 2.469 2.469 0 0 1 1.259 2.422 2.507 2.507 0 0 1-1.733 2.651 5.789 5.789 0 0 1-1.667.18h-3.172v-.409a2.319 2.319 0 0 0 .932-.229 1.4 1.4 0 0 0 .164-.867v-6.644a1.4 1.4 0 0 0-.164-.867 1.575 1.575 0 0 0-.932-.229v-.409c.752.065 1.324.065 1.782.065.474 0 1.046 0 1.733-.065v.409a1.334 1.334 0 0 0-.8.229 1.3 1.3 0 0 0-.18.818zm0 0zm0 .573v3.518a1.482 1.482 0 0 0 .18.867c.049.115.294.18.638.18 1.145 0 1.732-.753 1.732-2.258 0-1.555-.523-2.307-1.618-2.307zm0 0zm10.332.344h-3.057v3.354a1.3 1.3 0 0 0 .229.8 1.167 1.167 0 0 0 .752.229v.409c-.638-.049-1.275-.115-1.733-.115s-1.046.066-1.782.115v-.409a1.748 1.748 0 0 0 .916-.229 1.345 1.345 0 0 0 .18-.867v-6.693a.86.86 0 0 0-1.1-1.1v-.409c.735.065 1.324.065 1.782.065a17.042 17.042 0 0 0 1.733-.065v.409a1.167 1.167 0 0 0-.752.229 1.243 1.243 0 0 0-.229.818v2.946h3.057v-2.946a1.246 1.246 0 0 0-.229-.818c-.114-.164-.409-.229-.817-.229v-.409c.7.065 1.275.065 1.8.065.458 0 1.1 0 1.782-.065v.409a1.475 1.475 0 0 0-.915.229 1.374 1.374 0 0 0-.18.867v6.693a1.478 1.478 0 0 0 .18.867 1.921 1.921 0 0 0 .915.229v.409c-.687-.049-1.324-.115-1.782-.115-.523 0-1.1.066-1.8.115v-.409a1.243 1.243 0 0 0 .817-.229 1.193 1.193 0 0 0 .229-.8zm0 0zm6.228-.916h.752a3.368 3.368 0 0 1 1.848.409 2.923 2.923 0 0 1-.475 5.073 5.789 5.789 0 0 1-1.667.18h-2.991v-.409a2.488 2.488 0 0 0 .915-.229 1.377 1.377 0 0 0 .18-.867v-6.644a1.378 1.378 0 0 0-.18-.867 1.636 1.636 0 0 0-.915-.229v-.409a17.8 17.8 0 0 0 1.781.065c.458 0 1.03 0 1.733-.065v.409a1.393 1.393 0 0 0-.818.229 1.324 1.324 0 0 0-.164.818zm0 0zm0 .573v3.518c0 .409 0 .7.115.818a.611.611 0 0 0 .572.229 1.384 1.384 0 0 0 1.209-.573 2.919 2.919 0 0 0 .458-1.735 2.8 2.8 0 0 0-.393-1.734 1.523 1.523 0 0 0-1.324-.524zm0 0zm3.744-4.156v-.409c.687.065 1.275.065 1.782.065.474 0 1.046 0 1.8-.065v.409a.852.852 0 0 0-1.1 1.1v6.693a1.51 1.51 0 0 0 .164.867 1.774 1.774 0 0 0 .932.229v.409c-.752-.049-1.324-.115-1.8-.115-.507 0-1.1.066-1.782.115v-.409a1.189 1.189 0 0 0 .8-.229 1.1 1.1 0 0 0 .245-.8v-6.807a1.148 1.148 0 0 0-.245-.818c-.109-.172-.387-.238-.796-.238zm0 0zm10.266 2.307l-2.991 5.318v.229a1.36 1.36 0 0 0 .164.8 1.242 1.242 0 0 0 .817.229v.409c-.7-.049-1.274-.115-1.8-.115-.458 0-1.03.066-1.733.115v-.409a2.22 2.22 0 0 0 .932-.229c.114-.115.163-.393.163-.867v-6.693a1.408 1.408 0 0 0-.163-.867 1.66 1.66 0 0 0-.932-.229v-.409c.7.065 1.275.065 1.733.065.523 0 1.1 0 1.8-.065v.409a1.242 1.242 0 0 0-.817.229 1.32 1.32 0 0 0-.164.818v5.417l2.991-5.367v-.049a1.2 1.2 0 0 0-.18-.818 1.1 1.1 0 0 0-.85-.229v-.409c.687.065 1.324.065 1.782.065s1.1 0 1.782-.065v.409a1.475 1.475 0 0 0-.915.229 1.373 1.373 0 0 0-.18.867v6.693a1.478 1.478 0 0 0 .18.867 1.921 1.921 0 0 0 .915.229v.409c-.687-.049-1.324-.115-1.782-.115s-1.1.066-1.782.115v-.409a1.352 1.352 0 0 0 .85-.229c.131-.115.18-.393.18-.8zm0 0zm.229-7.216h.572a5.179 5.179 0 0 1-.507 1.964 1.841 1.841 0 0 1-1.684.933 1.867 1.867 0 0 1-1.553-.752 4.615 4.615 0 0 1-.637-2.144h.588c.278 1.1.8 1.62 1.6 1.62.82-.004 1.343-.524 1.621-1.624zm0 0zm11.2 5.089v7.609c0 .474.049.753.164.867a2.218 2.218 0 0 0 .932.229v.409c-.752-.049-1.39-.115-1.847-.115-.409 0-1.046.066-1.8.115v-.409a1.943 1.943 0 0 0 .932-.229c.115-.115.164-.393.164-.867v-7.609h-.278a1.467 1.467 0 0 0-1.1.344 6.273 6.273 0 0 0-.752 1.734h-.408l.343-2.667h5.836l.343 2.667h-.409a7.167 7.167 0 0 0-.523-1.391 1.623 1.623 0 0 0-.507-.573 2.558 2.558 0 0 0-.817-.115zm0 0zm3.057-.065v-.344a11.828 11.828 0 0 0 2.19-.344c.049.409.163.982.229 1.735.458-1.162 1.145-1.735 2.011-1.735a2.551 2.551 0 0 1 2.19 1.44 7.035 7.035 0 0 1 .818 3.583 6.669 6.669 0 0 1-.818 3.518 2.362 2.362 0 0 1-2.125 1.44 2.074 2.074 0 0 1-1.095-.278 4.139 4.139 0 0 1-.867-1.047v3.747a1.152 1.152 0 0 0 .229.867 1.681 1.681 0 0 0 .866.229v.409a11.331 11.331 0 0 0-1.847-.114 10.593 10.593 0 0 0-1.782.114v-.409a1.476 1.476 0 0 0 .915-.229 1.59 1.59 0 0 0 .18-.867V1509.3a1.676 1.676 0 0 0-.18-.982c-.115-.18-.409-.229-.916-.294zm0 0zm4.267-.115a1.358 1.358 0 0 0-1.161.818 7.526 7.526 0 0 0-.572 3.518c0 2.995.572 4.549 1.733 4.549 1.144 0 1.667-1.489 1.667-4.385-.002-2.997-.525-4.503-1.669-4.503zm0 0zm10.2 6.12h.637a4.837 4.837 0 0 1-.752 2.193 2.394 2.394 0 0 1-2.141 1.162 2.716 2.716 0 0 1-2.468-1.505 7.354 7.354 0 0 1-.817-3.518 6.8 6.8 0 0 1 .817-3.469 3.213 3.213 0 0 1 1.03-1.145 2.217 2.217 0 0 1 1.324-.409 2.282 2.282 0 0 1 2.142 1.276 6.957 6.957 0 0 1 .866 3.518h-4.727c.049.917.114 1.555.163 2.013a8.069 8.069 0 0 0 .294 1.326 1.661 1.661 0 0 0 1.553 1.211 1.681 1.681 0 0 0 1.39-.687 4.127 4.127 0 0 0 .688-1.969zm0 0zm-.8-2.6c-.066-2.356-.589-3.518-1.57-3.518a1.311 1.311 0 0 0-1.144.867 7.726 7.726 0 0 0-.523 2.651zm0 0zm8.3.982h-3.008v3.354a1.344 1.344 0 0 0 .18.8 1.189 1.189 0 0 0 .8.229v.409c-.687-.049-1.259-.115-1.782-.115-.458 0-1.046.066-1.733.115v-.409a2.13 2.13 0 0 0 .916-.229 1.345 1.345 0 0 0 .18-.867v-6.693a1.378 1.378 0 0 0-.18-.867 1.6 1.6 0 0 0-.916-.229v-.409c.687.065 1.275.065 1.733.065a17.811 17.811 0 0 0 1.782-.065v.409a1.189 1.189 0 0 0-.8.229 1.3 1.3 0 0 0-.18.818v2.946h3.008v-2.946a1.3 1.3 0 0 0-.18-.818 1.093 1.093 0 0 0-.8-.229v-.409c.687.065 1.259.065 1.716.065.475 0 1.1 0 1.8-.065v.409a1.7 1.7 0 0 0-.932.229 1.407 1.407 0 0 0-.164.867v6.693a1.51 1.51 0 0 0 .164.867 2.3 2.3 0 0 0 .932.229v.409c-.7-.049-1.324-.115-1.8-.115-.457 0-1.029.066-1.716.115v-.409a1.374 1.374 0 0 0 .8-.229 1.243 1.243 0 0 0 .18-.8zm0 0zm9.22-2.193l-2.992 5.318v.229a1.365 1.365 0 0 0 .163.8 1.394 1.394 0 0 0 .818.229v.409c-.7-.049-1.275-.115-1.733-.115s-1.1.066-1.8.115v-.409a2.223 2.223 0 0 0 .932-.229c.114-.115.163-.393.163-.867v-6.693a1.408 1.408 0 0 0-.163-.867 1.662 1.662 0 0 0-.932-.229v-.409c.7.065 1.34.065 1.8.065s1.03 0 1.733-.065v.409a1.394 1.394 0 0 0-.818.229 1.325 1.325 0 0 0-.163.818v5.417l2.992-5.367v-.049a1.2 1.2 0 0 0-.18-.818 1.043 1.043 0 0 0-.8-.229v-.409c.687.065 1.275.065 1.733.065a17.8 17.8 0 0 0 1.782-.065v.409a1.6 1.6 0 0 0-.916.229 1.378 1.378 0 0 0-.18.867v6.693a1.482 1.482 0 0 0 .18.867 2.127 2.127 0 0 0 .916.229v.409c-.687-.049-1.259-.115-1.782-.115-.458 0-1.046.066-1.733.115v-.409a1.294 1.294 0 0 0 .8-.229c.131-.115.18-.393.18-.8zm0 0zm9.286 2.193h-3.058v3.354a1.344 1.344 0 0 0 .18.8 1.3 1.3 0 0 0 .8.229v.409c-.687-.049-1.275-.115-1.733-.115s-1.03.066-1.782.115v-.409a2.129 2.129 0 0 0 .916-.229 1.345 1.345 0 0 0 .18-.867v-6.693a1.378 1.378 0 0 0-.18-.867 1.6 1.6 0 0 0-.916-.229v-.409c.752.065 1.325.065 1.782.065s1.046 0 1.733-.065v.409a.815.815 0 0 0-.981 1.047v2.946h3.058v-2.946a1.246 1.246 0 0 0-.229-.818c-.114-.164-.408-.229-.8-.229v-.409a17.806 17.806 0 0 0 1.782.065c.458 0 1.029 0 1.732-.065v.409a1.271 1.271 0 0 0-.866.229c-.18.115-.229.409-.229.867v6.693c0 .409.05.753.229.867a1.627 1.627 0 0 0 .866.229v.409c-.7-.049-1.275-.115-1.732-.115-.523 0-1.1.066-1.782.115v-.409a1.221 1.221 0 0 0 .8-.229 1.192 1.192 0 0 0 .229-.8zm0 0zm7.144 4.385v.409c-.687-.049-1.259-.115-1.717-.115-.474 0-1.1.066-1.8.115v-.409a1.775 1.775 0 0 0 .932-.229 1.275 1.275 0 0 0 .229-.867v-6.693a1.226 1.226 0 0 0-.229-.8 1.756 1.756 0 0 0-.932-.295v-.409h5.656l.229 2.716h-.409a5.693 5.693 0 0 0-.572-1.555 1.248 1.248 0 0 0-1.21-.573h-1.161v7.674a.985.985 0 0 0 .245.8 1.019 1.019 0 0 0 .74.226zm0 0zm-165.91 9.065v6.234h-.8v-6.856H5858v6.856h-.735v-6.234zm0 0zm5.656 8.313v-5.482a7.13 7.13 0 0 0-.115-1.44h.687a2.89 2.89 0 0 1 .114.687 1.531 1.531 0 0 1 1.39-.867 1.562 1.562 0 0 1 1.144.475 2.8 2.8 0 0 1 .752 2.127 3.033 3.033 0 0 1-.687 2.078 1.457 1.457 0 0 1-1.209.458 1.518 1.518 0 0 1-1.39-.8v2.765zm0 0zm2.01-6.464a1.062 1.062 0 0 0-.915.409 2.568 2.568 0 0 0-.409 1.555 2.414 2.414 0 0 0 .409 1.506 1.1 1.1 0 0 0 .915.458 1.006 1.006 0 0 0 .818-.409 2.647 2.647 0 0 0 .392-1.555 2.392 2.392 0 0 0-.457-1.62.918.918 0 0 0-.748-.348zm0 0zm6.18-.524h.751v4.909h-.751v-3.518l-2.256 3.24v.278h-.752v-4.909h.752v3.584l2.256-3.223zm0 0zm2.942 2.716v1.62h.8a2.128 2.128 0 0 0 .752-.115.837.837 0 0 0 .343-.687.7.7 0 0 0-.572-.753 1.212 1.212 0 0 0-.588-.066zm0 0zm0-2.078v1.505h.687c.752 0 1.1-.294 1.1-.8a.619.619 0 0 0-.409-.638 1.245 1.245 0 0 0-.572-.065zm0 0zm1.782 1.8a1.047 1.047 0 0 1 .866 1.1 1.377 1.377 0 0 1-.687 1.211 2.649 2.649 0 0 1-1.095.164h-1.57v-4.909h1.57a2.462 2.462 0 0 1 1.095.245 1.151 1.151 0 0 1 .507 1.031 1.172 1.172 0 0 1-.685 1.154zm0 0zm5.771.164h-3.286a2.41 2.41 0 0 0 .278 1.211 1.178 1.178 0 0 0 1.1.638 1.281 1.281 0 0 0 .7-.164 1.888 1.888 0 0 0 .458-.589l.638.066a1.7 1.7 0 0 1-1.8 1.26 1.912 1.912 0 0 1-1.488-.573 2.686 2.686 0 0 1-.638-1.9 2.841 2.841 0 0 1 .752-2.144 1.823 1.823 0 0 1 1.324-.524 1.706 1.706 0 0 1 1.553.867 2.781 2.781 0 0 1 .408 1.62zm0 0zm-.752-.573a1.464 1.464 0 0 0-.229-.867.953.953 0 0 0-.981-.638 1.184 1.184 0 0 0-.867.344 2.1 2.1 0 0 0-.458 1.162zm0 0zm5.019-2.029v.638h-1.5v4.271h-.752v-4.271h-1.487v-.638zm0 0zm1.03 6.415h-.687a2.662 2.662 0 0 0 .866-1.505h-.114a.419.419 0 0 1-.343-.115.612.612 0 0 1-.18-.393.683.683 0 0 1 .18-.475.63.63 0 0 1 .458-.163.727.727 0 0 1 .458.229.956.956 0 0 1 .18.573 3.33 3.33 0 0 1-.817 1.845zm0 0zm4.9-8.362h1.16l1.962 6.054 1.9-6.054h1.21v6.856h-.752v-6.12l-1.962 6.12h-.8l-1.961-6.12v6.12h-.752z" class="cls-2" data-name="Path 8" transform="translate(-5757.318 -1478.407)"/>
            <path id="Path_9" d="M16551.229 1529.469l-.162 1.456H16545v-1.162c1.16-1.735 2.027-2.995 2.484-3.813a21.56 21.56 0 0 0 1.391-2.471 7.219 7.219 0 0 0 .736-2.782 2.318 2.318 0 0 0-.506-1.554 1.564 1.564 0 0 0-1.211-.573 1.848 1.848 0 0 0-1.277.573 3.4 3.4 0 0 0-.8 2.307h-.586c.113-2.651 1.16-3.976 3.055-3.976a2.6 2.6 0 0 1 2.078.867 3.184 3.184 0 0 1 .816 2.193 6.491 6.491 0 0 1-.98 3.06c-.637 1.031-1.914 2.994-3.924 5.875zm0 0zm5.705-11.994a2.5 2.5 0 0 1 1.961.916 5.266 5.266 0 0 1 1.1 2.6 14.136 14.136 0 0 1 .359 3.289 24.133 24.133 0 0 1-.23 2.831 10.984 10.984 0 0 1-.637 2.193 2.778 2.778 0 0 1-2.551 1.783 2.469 2.469 0 0 1-2.354-1.505 12.216 12.216 0 0 1-1.047-5.645 10.882 10.882 0 0 1 1.047-4.974 2.393 2.393 0 0 1 1.029-1.1 2.323 2.323 0 0 1 1.323-.388zm0 0zm0 .573a1.257 1.257 0 0 0-1.094.8 2.532 2.532 0 0 0-.344.753 20.445 20.445 0 0 0-.459 4.385c0 4.385.639 6.529 1.9 6.529a1.08 1.08 0 0 0 1.047-.753c.574-.982.867-2.716.867-5.367a13.788 13.788 0 0 0-.687-5.253c-.297-.751-.756-1.095-1.23-1.095zm0 0zm9.531-1.047v12.125a2 2 0 0 0 .23 1.047 1.837 1.837 0 0 0 1.027.344v.458c-.637-.049-1.324-.115-1.961-.115-.687 0-1.375.066-2.012.115v-.458a1.705 1.705 0 0 0 1.031-.344 1.523 1.523 0 0 0 .229-1.047v-9.343h-1.781v-.524a2.878 2.878 0 0 0 2.762-2.258zm0 0zm9.219 6.987a3.106 3.106 0 0 1 1.848 3.24 4.656 4.656 0 0 1-.293 1.783 3.594 3.594 0 0 1-.867 1.326 2.7 2.7 0 0 1-2.012.752 2.939 2.939 0 0 1-2.3-.982 4.4 4.4 0 0 1-.932-2.831 3.38 3.38 0 0 1 1.912-3.289 2.931 2.931 0 0 1-.93-.753 3.565 3.565 0 0 1-.687-2.307 4.483 4.483 0 0 1 .295-1.555 2.588 2.588 0 0 1 .8-1.211 2.794 2.794 0 0 1 1.9-.687 2.432 2.432 0 0 1 2.027.867 2.749 2.749 0 0 1 .637 1.1 6.355 6.355 0 0 1 .23 1.44 3.392 3.392 0 0 1-1.628 3.106zm0 0zm-1.273.295a1.476 1.476 0 0 0-1.26.867 4.032 4.032 0 0 0-.457 2.193 4.68 4.68 0 0 0 .572 2.6 1.277 1.277 0 0 0 1.094.573 1.479 1.479 0 0 0 .982-.458 2.45 2.45 0 0 0 .459-1.162 4.482 4.482 0 0 0 .227-1.554 4.862 4.862 0 0 0-.227-1.62 2.186 2.186 0 0 0-.523-1.1 1.359 1.359 0 0 0-.868-.34zm0 0zm0-6.234a1.162 1.162 0 0 0-1.094.753 4.32 4.32 0 0 0-.395 2.127 5.475 5.475 0 0 0 .229 1.505 1.5 1.5 0 0 0 .459.917.968.968 0 0 0 .75.36 1.286 1.286 0 0 0 1.031-.753 4.928 4.928 0 0 0 .359-2.078c0-1.276-.18-2.144-.637-2.536a.872.872 0 0 0-.703-.297z" class="cls-1" data-name="Path 9" transform="translate(-16274.531 -1492.178)"/>
            <path id="Path_10" d="M8495.1 2873.435h-3.352a2.239 2.239 0 0 0 .295 1.211 1.217 1.217 0 0 0 1.781.409 1.315 1.315 0 0 0 .458-.524l.7.065a1.813 1.813 0 0 1-1.847 1.325 1.857 1.857 0 0 1-1.438-.638 2.521 2.521 0 0 1-.7-1.9 3.008 3.008 0 0 1 .752-2.144 1.9 1.9 0 0 1 1.39-.524 1.7 1.7 0 0 1 1.5.867 2.919 2.919 0 0 1 .457 1.62zm0 0zm-.752-.573a3.5 3.5 0 0 0-.229-.867 1.106 1.106 0 0 0-1.047-.687 1.253 1.253 0 0 0-.865.393 2.214 2.214 0 0 0-.459 1.162zm0 0zm1.962 4.958v-5.482a4.894 4.894 0 0 0-.114-1.506h.752c0 .18.049.409.049.753a1.583 1.583 0 0 1 1.389-.867 1.781 1.781 0 0 1 1.211.409 3.385 3.385 0 0 1 .752 2.193 2.963 2.963 0 0 1-.7 2.078 1.648 1.648 0 0 1-1.209.523 1.56 1.56 0 0 1-1.374-.867v2.765zm0 0zm2.011-6.463a1.051 1.051 0 0 0-.867.409 2.7 2.7 0 0 0-.457 1.554 2.333 2.333 0 0 0 .457 1.44.963.963 0 0 0 .867.475.946.946 0 0 0 .816-.36 2.26 2.26 0 0 0 .459-1.554 2.788 2.788 0 0 0-.459-1.62 1.046 1.046 0 0 0-.813-.344zm0 0zm6.752 1.1h-.687a1.423 1.423 0 0 0-.229-.687.922.922 0 0 0-.866-.409 1.029 1.029 0 0 0-.866.409 2.561 2.561 0 0 0-.409 1.554 2.326 2.326 0 0 0 .522 1.669 1.208 1.208 0 0 0 .8.294c.638 0 .981-.409 1.046-1.21h.752a2.4 2.4 0 0 1-.408 1.21 1.88 1.88 0 0 1-2.763.066 2.758 2.758 0 0 1-.7-2.029 2.617 2.617 0 0 1 .752-2.078 1.539 1.539 0 0 1 1.324-.524 1.579 1.579 0 0 1 1.21.409 2.225 2.225 0 0 1 .525 1.322zm0 0zm5.084.982h-3.352a2.231 2.231 0 0 0 .294 1.211 1.212 1.212 0 0 0 1.095.638 1.273 1.273 0 0 0 .688-.229 1.306 1.306 0 0 0 .457-.524l.688.065a1.785 1.785 0 0 1-1.832 1.325 1.892 1.892 0 0 1-1.455-.638 2.576 2.576 0 0 1-.686-1.9 2.744 2.744 0 0 1 .752-2.144 1.824 1.824 0 0 1 1.324-.524 1.886 1.886 0 0 1 1.618.867 2.9 2.9 0 0 1 .409 1.62zm0 0zm-.752-.573a1.951 1.951 0 0 0-.229-.867 1.14 1.14 0 0 0-1.047-.687 1.228 1.228 0 0 0-.867.393 2.725 2.725 0 0 0-.457 1.162zm0 0zm2.419-2.029h2.991v4.336h.7v1.62h-.752v-1.047h-3.4v1.047h-.7v-1.62h.066a.6.6 0 0 0 .457-.18.555.555 0 0 0 .344-.393 6.933 6.933 0 0 0 .113-1.162zm0 0zm.229 4.336h2.076v-3.747h-1.553l-.181 2.013a4.148 4.148 0 0 1-.113 1.1 1.971 1.971 0 0 1-.226.63zm0 0zm8.075-1.734h-3.351a3.046 3.046 0 0 0 .294 1.211 1.33 1.33 0 0 0 1.145.638 1.618 1.618 0 0 0 .7-.229 6.08 6.08 0 0 0 .457-.524l.639.065a1.748 1.748 0 0 1-1.8 1.325 1.958 1.958 0 0 1-1.487-.638 3.291 3.291 0 0 1 .114-4.042 1.747 1.747 0 0 1 1.324-.524 1.705 1.705 0 0 1 1.553.867 2.773 2.773 0 0 1 .408 1.62zm0 0zm-.752-.573a1.925 1.925 0 0 0-.229-.867 1.084 1.084 0 0 0-.98-.687 1.042 1.042 0 0 0-.866.393 2.093 2.093 0 0 0-.458 1.162zm0 0zm5.543-.409h-.752a.974.974 0 0 0-.229-.687.83.83 0 0 0-.818-.409 1.063 1.063 0 0 0-.916.409 3.12 3.12 0 0 0-.408 1.554 2.131 2.131 0 0 0 .572 1.669 1.109 1.109 0 0 0 .752.294c.638 0 1.047-.409 1.1-1.21h.7a1.913 1.913 0 0 1-.409 1.21 1.6 1.6 0 0 1-1.39.638 1.713 1.713 0 0 1-1.324-.573 3.414 3.414 0 0 1 0-4.107 1.618 1.618 0 0 1 1.324-.524 1.841 1.841 0 0 1 1.275.409 2.327 2.327 0 0 1 .526 1.323zm0 0zm1.373-3.453h.816l-.113 4.779h-.639zm0 0zm.408 5.646a.529.529 0 0 1 .408.18.655.655 0 0 1 .164.458.621.621 0 0 1-.164.409.516.516 0 0 1-.408.164.626.626 0 0 1-.457-.164.647.647 0 0 1-.181-.409.67.67 0 0 1 .181-.458.64.64 0 0 1 .457-.184z" class="cls-2" data-name="Path 10" transform="translate(-8352.193 -2822.055)"/>
        </g>
    </g>
</svg>
