<svg xmlns="http://www.w3.org/2000/svg" viewBox="0 0 24 24">
    <defs>
        <style>
            .cls-1{fill:#fff}
        </style>
    </defs>
    <g id="settings" transform="translate(-.002)">
        <g id="Group_12" data-name="Group 12" transform="translate(5.355 5.39)">
            <g id="Group_11" data-name="Group 11">
                <path id="Path_14" d="M120.856 114.979a6.646 6.646 0 1 0 6.646 6.646 6.654 6.654 0 0 0-6.646-6.646zm0 11.877a5.23 5.23 0 1 1 5.23-5.23 5.236 5.236 0 0 1-5.23 5.23z" class="cls-1" data-name="Path 14" transform="translate(-114.21 -114.979)"/>
            </g>
        </g>
        <g id="Group_14" data-name="Group 14" transform="translate(11.293 14.283)">
            <g id="Group_13" data-name="Group 13">
                <path id="Path_15" d="M241.593 304.707a.708.708 0 1 0 .708.708.716.716 0 0 0-.708-.708z" class="cls-1" data-name="Path 15" transform="translate(-240.884 -304.707)"/>
            </g>
        </g>
        <g id="Group_16" data-name="Group 16" transform="translate(9.834 8.373)">
            <g id="Group_15" data-name="Group 15">
                <path id="Path_16" d="M211.93 178.625a2.17 2.17 0 0 0-2.167 2.167.708.708 0 0 0 1.416 0 .751.751 0 1 1 .751.751.708.708 0 0 0-.708.708v1.049a.708.708 0 1 0 1.416 0v-.46a2.168 2.168 0 0 0-.708-4.216z" class="cls-1" data-name="Path 16" transform="translate(-209.762 -178.625)"/>
            </g>
        </g>
        <g id="Group_18" data-name="Group 18" transform="translate(.002)">
            <g id="Group_17" data-name="Group 17">
                <path id="Path_17" d="M23.294 9.3h-1.621a9.95 9.95 0 0 0-.932-2.23l1.152-1.152a.708.708 0 0 0 0-1l-2.812-2.809a.708.708 0 0 0-1 0l-1.163 1.162a9.953 9.953 0 0 0-2.22-.916V.708A.708.708 0 0 0 13.99 0h-3.976a.708.708 0 0 0-.708.708v1.647a9.949 9.949 0 0 0-2.22.916L5.924 2.109a.708.708 0 0 0-1 0L2.111 4.921a.708.708 0 0 0 0 1l1.152 1.153A9.947 9.947 0 0 0 2.331 9.3H.71a.708.708 0 0 0-.71.712v3.976a.708.708 0 0 0 .71.712h1.6a9.947 9.947 0 0 0 .926 2.256l-1.125 1.122a.708.708 0 0 0 0 1l2.812 2.812a.708.708 0 0 0 1 0l1.117-1.115a9.946 9.946 0 0 0 2.266.942v1.575a.708.708 0 0 0 .708.708h3.976a.708.708 0 0 0 .708-.708v-1.575a9.945 9.945 0 0 0 2.266-.942l1.116 1.116a.708.708 0 0 0 1 0l2.812-2.812a.708.708 0 0 0 0-1l-1.126-1.126a9.95 9.95 0 0 0 .926-2.256h1.6a.708.708 0 0 0 .708-.709v-3.976a.708.708 0 0 0-.706-.712zm-.708 3.976h-1.449a.708.708 0 0 0-.693.561 8.554 8.554 0 0 1-1.165 2.839.708.708 0 0 0 .1.882l1.016 1.016-1.81 1.81-1.009-1.009a.708.708 0 0 0-.886-.094 8.552 8.552 0 0 1-2.847 1.184.708.708 0 0 0-.558.692v1.421h-2.56v-1.415a.708.708 0 0 0-.558-.692 8.556 8.556 0 0 1-2.847-1.184.708.708 0 0 0-.886.094l-1.011 1.008-1.81-1.81 1.016-1.016a.708.708 0 0 0 .1-.882 8.553 8.553 0 0 1-1.169-2.84.708.708 0 0 0-.693-.561H1.418v-2.56h1.465a.708.708 0 0 0 .691-.555 8.557 8.557 0 0 1 1.177-2.814.708.708 0 0 0-.094-.886L3.613 5.421l1.81-1.81 1.053 1.052a.708.708 0 0 0 .882.1A8.556 8.556 0 0 1 10.164 3.6a.708.708 0 0 0 .558-.692V1.416h2.56v1.493a.708.708 0 0 0 .558.692 8.557 8.557 0 0 1 2.806 1.158.708.708 0 0 0 .882-.1l1.052-1.052 1.81 1.81-1.044 1.049a.708.708 0 0 0-.094.886 8.554 8.554 0 0 1 1.177 2.813.708.708 0 0 0 .691.555h1.465v2.56z" class="cls-1" data-name="Path 17" transform="translate(-.002)"/>
            </g>
        </g>
    </g>
</svg>
